<svg viewBox="0 0 48 48" version="1.1" xmlns="http://www.w3.org/2000/svg" x="0" y="0" xml:space="preserve" id="root"><style>.st0{fill-rule:evenodd;clip-rule:evenodd}</style><g id="ProDemos-Library"><g id="ProDemos-UI-Elementen"><g id="Iconen-min-48-px"><g id="Group-Copy-9"><g id="Group"><path id="Path" class="st0" d="M28 22.2c0 .2.1.3.3.3h12c.2 0 .3-.1.3-.3s-.1-.3-.3-.3h-12c-.2-.1-.3.1-.3.3z"/><path class="st0" d="M28 25.1c0 .2.1.3.3.3h12c.2 0 .3-.1.3-.3s-.1-.3-.3-.3h-12c-.2 0-.3.1-.3.3zM28 28c0 .2.1.3.3.3h12c.2 0 .3-.1.3-.3s-.1-.3-.3-.3h-12c-.2-.1-.3.1-.3.3z"/></g><path class="st0" d="M42.7 17.1c.8 0 1.5.7 1.5 1.5v13.6c0 .8-.7 1.5-1.5 1.5H41c-.5 1.3-1.6 2.4-3.2 3.2-.7.4-1.5.7-2.3.9-.3.1-.5.2-.7.2l-.3.1h-.2l-.3.1v-4.4h-9c-.8 0-1.5-.7-1.5-1.5v-5.8H14v4.4l-.4-.1h-.2l-.3-.1c-.2 0-.4-.1-.6-.2-.8-.2-1.6-.5-2.3-.9-1.6-.8-2.7-1.9-3.2-3.2H5.3c-.8 0-1.5-.7-1.5-1.5V11.3c0-.8.7-1.5 1.5-1.5h24.2c.8 0 1.5.7 1.5 1.5v5.8h11.7zm-29.3 8.7h10.8v6.4c0 .5.4.9.9.9h9.6v4.3c.2 0 .4-.1.6-.2.8-.2 1.5-.5 2.2-.9 1.5-.8 2.6-1.8 3-3.1l.1-.2h2.2c.5 0 .9-.4.9-.9V18.6c0-.5-.4-.9-.9-.9H30.3v-6.4c0-.5-.4-.9-.9-.9H5.3c-.5 0-.9.4-.9.9v13.6c0 .5.4.9.9.9h2.2l.1.2c.4 1.3 1.4 2.3 3 3.1.7.4 1.4.6 2.2.9.2.1.4.1.6.2v-4.4z"/><path class="st0" d="M8.9 15.2c0 .2.1.3.3.3h16.1c.2 0 .3-.1.3-.3s-.1-.3-.3-.3H9.2c-.1-.1-.3.1-.3.3zM8.9 18.1c0 .2.1.3.3.3h16.1c.2 0 .3-.1.3-.3s-.1-.3-.3-.3H9.2c-.1 0-.3.1-.3.3zM8.9 21c0 .2.1.3.3.3h16.1c.2 0 .3-.1.3-.3s-.1-.3-.3-.3H9.2c-.1 0-.3.1-.3.3z"/></g></g></g></g></svg>