<svg viewBox="0 0 48 48"  xmlns="http://www.w3.org/2000/svg" id="root"><path d="M36.4 16.3h-6.8v-2.4c0-1.2-.9-2.1-2.1-2.1h-6.6c-1.2 0-2.1 1-2.1 2.1v2.3H12c-1.2 0-2.1 1-2.1 2.1v4.1c0 .6.3 1.2.7 1.7v10.3c0 1.2 1 2.2 2.2 2.2h23c1.2 0 2.2-1 2.2-2.2V24c.4-.4.6-1 .6-1.5v-4.1c0-1.2-1-2.1-2.2-2.1zm-17-2.4c0-.8.7-1.5 1.5-1.5h6.6c.8 0 1.5.7 1.5 1.5v2.3h-.6V14c0-.5-.4-.9-.9-.9H21c-.5 0-1 .4-1 .9v2.3h-.6v-2.4zm8.3 2.4h-7V14c0-.2.1-.3.3-.3h6.5c.2 0 .3.1.3.3l-.1 2.3zm-17.2 2.1c0-.8.7-1.5 1.5-1.5H36.4c.8 0 1.5.7 1.5 1.5v4.1c0 .4-.2.9-.5 1.2-.2.2-.4.3-.7.4l-9.6 2.1v-1.4c0-.5-.4-1-1-1h-3.8c-.5 0-1 .4-1 1v1.4l-3.1-.7-4.8-1.1-1.3-.3H12h.1-.1c-.3 0-.6-.2-.8-.4l-.2-.2c-.2-.3-.4-.7-.4-1l-.1-4.1zM22 28.7v-3.8c0-.2.1-.3.3-.3h3.8c.2 0 .3.1.3.3v3.7c0 .2-.1.3-.3.3h-3.8c-.2.1-.3-.1-.3-.2zm15.3 5.7c0 .9-.7 1.6-1.6 1.6h-23c-.9 0-1.6-.7-1.6-1.6v-9.8c.2.1.3.1.5.2h.1l.5.1c.1 0 .3.1.4.1l8.6 1.9v1.8c0 .5.4 1 1 1H26c.5 0 1-.4 1-1v-1.8l9.9-2.2c.1 0 .2-.1.3-.1h.1v9.8z"/></svg>