<svg viewBox="0 0 48 48"  version="1.1"  id="root" xmlns="http://www.w3.org/2000/svg" x="0" y="0" xml:space="preserve"><path fill="none" class="st0" d="M27.4 8.7zM27.4 8.7zM19.6 28.7l.5.1.4.1.7-3.3v-.1c.1-.3.5-.2.6.1v.2l-.6 3.2 1.3.2.3-2c.1-.4.6-.3.6 0v.1l-.3 2h1.3l.6-.1 1.4-.3.4-.1-.7-3.2c-.1-.4.4-.5.6-.3v.2l.7 3.2.4-.1c.1 0 .2-.1.2-.2L24.8 12h-2.3l-3.2 16.4c.1.2.2.3.3.3zM41.6 26.5zM27.5 8.7c-.1 0-.1 0 0 0z"/><path fill="none" class="st0" d="M33 8.8c0-.1-.1-.1-.2-.1h-5.3-.1v.1l-1.9 2.8v.1l3.2 16.7c.1.4-.2.8-.7.9l-1.5.3-1.4.3-.6.1c-.7.1-1.4 0-2.1-.1l-2.9-.5c-.5-.1-.8-.5-.7-.9L22 11.7v-.1l-1.9-2.8-.1-.1h-5.1c-.1 0-.2.1-.2.1L6.4 25.6v.2c0 .1.1.1.2.2l7.7 2h.1l.2.1c.6.2 1.3-.2 1.5-.8l1.2-3.9.6.2c-.2.5-1.1 3.8-1.2 3.9v.1c-.3.6-.8 1-1.4 1.1h-.1v10.4c0 .1.1.2.2.2h4.1v-3.1c0-.4.6-.4.6-.1v3.2h12.7c.1 0 .2-.1.2-.2v-10c-.7-.1-1.3-.6-1.5-1.3-.1-.4-1-3.2-2.5-8.5v-.1c0-.4.5-.5.6-.1l2.5 8.4c.2.5.7.9 1.3.9H33.7l8-2.4c.2 0 .2-.2.2-.3L33 8.8z"/><path d="M31.3 27.9c0-.1 0-.1 0 0zM31.3 27.8zM42.2 25.6c0-.1 0-.1 0 0 0-.1-.1-.2-.1-.3L33.6 8.5c-.1-.3-.4-.5-.7-.5H27.5c-.3 0-.6.2-.8.4l-2 2.9v.1h-2v-.1l-2-2.9c-.1-.1-.1-.2-.2-.2-.2-.1-.4-.2-.6-.2h-5.1c-.3 0-.6.2-.8.5L5.8 25.3c-.1.2-.1.4-.1.6 0 .3.3.6.6.7l7.6 2h.1l.1.1s.1.1.1.2v10.3c0 .5.4.9.9.9h17.6c.4-.1.8-.4.8-.9v-9.9c0-.1 0-.1.1-.2l.1-.1.5-.1 7.5-2.3h.2v-.1-.2-.1c.4-.5.4-.6.3-.6zM24.9 12.1L28 28.5c0 .1 0 .2-.2.2l-.4.1-.7-3.2v-.2c-.2-.2-.6-.1-.6.3l.7 3.2-.4.1-1.4.3-.6.1h-1.3l.3-2v-.1c0-.3-.6-.4-.6 0l-.3 2-1.3-.3.7-3.3v-.2c-.1-.3-.5-.3-.6-.1v.1l-.7 3.3-.4-.1-.5-.1c-.1 0-.2-.1-.1-.2L22.8 12h2.1zm16.5 13.8l-8 2.4h-.1-.1-.1c-.6 0-1.1-.3-1.3-.9L29.3 19c-.1-.4-.7-.2-.6.1v.1c1.5 5.2 2.4 8 2.5 8.5.2.7.8 1.2 1.5 1.3v10c0 .1-.1.2-.2.2H19.9V36c-.1-.3-.6-.3-.6.1v3.1h-4.1c-.1 0-.2-.1-.2-.2V28.8v-.1h.1c.6-.1 1.2-.5 1.4-1.1v-.1c0-.2 1-3.4 1.2-3.9l-.6-.2-1.2 3.9c-.2.6-.8 1-1.5.8l-.2-.1h-.1l-7.7-2c-.1 0-.1-.1-.2-.2v-.2l8.3-16.7c0-.1.1-.1.2-.1H20s.1 0 .1.1l1.9 2.8v.1l-3.2 16.7c-.1.4.2.9.7.9l2.9.5c.7.1 1.4.2 2.1.1l.6-.1 1.4-.3 1.5-.3c.5-.1.7-.5.7-.9l-3.2-16.7v-.1l1.9-2.8v-.1H32.8c.1 0 .2.1.2.1l8.5 16.8c.2.1.1.3-.1.3zM27.4 8.7zM27.4 8.7zM41.6 26.5zM41.7 26.5z"/></svg>