<svg viewBox="0 0 48 48" version="1.1"  id="root" xmlns="http://www.w3.org/2000/svg" x="0" y="0" xml:space="preserve"><style>.st0{fill:none}</style><path class="st0" fill="none"  d="M26.6 14.9c0-.8.6-1.3 1.3-1.3s1.3.6 1.3 1.3v14.9c0 .8-.6 1.3-1.3 1.3s-1.3-.6-1.3-1.3V14.9zM19.2 34.5h-3.9l-.5-1.7h3.8zM12.5 25.4l-.3-.2v-5.9L26 15v2.5l-8.7 2.8.2.6 8.5-2.7v1.5l-7.9 2.5.2.6 7.7-2.4v9.2l-13.4-4.2zM32.6 21.7v1.2c0 1.3-1 2.3-2.3 2.3H30v-5.8h.4c1.2 0 2.2 1 2.2 2.3zM17.7 29.8H14l-1.1-3.6 4 1.2zM17.9 30.4l.5 1.8h-3.7l-.6-1.8zM9.9 19.4h1.6v5.8H9.9c-.7 0-1.2-.5-1.2-1.2v-3.3c0-.7.6-1.3 1.2-1.3z"/><path d="M39.5 17.7l-4.2 1.5c-.2.1-.3 0-.4-.2s0-.3.2-.4l4.2-1.5c.2-.1.3 0 .4.2.1.2 0 .4-.2.4zM35.4 25.2l4.1 1.5c.2.1.3.2.2.4-.1.2-.2.3-.4.2l-4.1-1.5c-.2-.1-.3-.2-.2-.4.1-.2.2-.3.4-.2zM35.3 21.6h4.4c.2 0 .3.1.3.3 0 .2-.1.3-.3.3h-4.4c-.2 0-.3-.1-.3-.3-.1-.1.1-.3.3-.3zM8.1 20.6V24c0 1 .8 1.9 1.9 1.9h2l.2.1 1.1 3.9.9 3 .7 2.3h5.2l-1-3-.8-2.4-.7-2.1 8.4 2.7c.2.9 1 1.5 1.9 1.5 1.1 0 2-.9 2-2v-4h.4c1.6 0 2.9-1.3 2.9-2.9v-1.2c0-1.6-1.3-2.9-2.9-2.9H30V15c0-1.1-.9-2-2-2-.9 0-1.6.6-1.9 1.4l-14.3 4.5H9.9c-1-.1-1.8.7-1.8 1.7zM30 19.4h.4c1.3 0 2.3 1 2.3 2.3v1.2c0 1.3-1 2.3-2.3 2.3H30v-5.8zm-3.4 10.4V14.9c0-.8.6-1.3 1.3-1.3s1.3.6 1.3 1.3v14.9c0 .8-.6 1.3-1.3 1.3s-1.3-.5-1.3-1.3zm-14-4.4l-.4-.1v-5.9L26 15v2.6l-8.7 2.7.2.6 8.5-2.7v1.5l-7.9 2.5.2.6 7.7-2.4v9.2l-13.4-4.2zm2.2 7.4h3.8l.5 1.6h-3.9l-.4-1.6zm-.7-2.4h3.7l.6 1.8h-3.8l-.5-1.8zm-1.2-4.2l4 1.3.8 2.4H14l-1.1-3.7zm-4.2-5.6c0-.7.5-1.2 1.2-1.2h1.6v5.8H9.9c-.7 0-1.2-.5-1.2-1.2v-3.4z"/></svg>