<svg viewBox="0 0 48 48" xmlns="http://www.w3.org/2000/svg" id="root"><path d="M36.3 14.6h-.6c.6-.5 1-1.2 1-2 0-1.4-1.2-2.6-2.6-2.6H34c.3-.4.4-.9.4-1.4 0-1.4-1.2-2.6-2.6-2.6-.3 0-.6.1-.9.2 0-.3.1-.5.1-.8 0-1.4-1.2-2.6-2.6-2.6-.8 0-1.4.3-1.9.8 0-.6-.6-1.1-1.2-1.1h-2.4c-.6 0-1.1.5-1.2 1V3.8c-.5-.6-1.2-1-2.1-1C18.2 2.8 17 4 17 5.4c0 .3.1.5.1.8-.2-.2-.5-.2-.9-.2-1.4 0-2.6 1.2-2.6 2.6 0 .5.1 1 .4 1.4h-.1c-1.4 0-2.6 1.2-2.6 2.6 0 .8.4 1.6 1 2.1h-.5c-.6 0-1.1.5-1.2 1v3c0 .5.4.9.9 1-.6.5-1 1.2-1 2.1 0 1.3 1 2.4 2.3 2.6-.4.5-.7 1.1-.7 1.8 0 1.4 1.2 2.6 2.6 2.6-.3.4-.4.9-.4 1.4 0 1.4 1.2 2.6 2.6 2.6.3 0 .5 0 .7-.1-.1.2-.1.5-.1.8 0 1.4 1.2 2.6 2.6 2.6.9 0 1.6-.4 2.1-1.1 0 .1 0 .2.1.3-.3.2-.5.6-.5 1 0 .6.4 1 .9 1.1v1.2c-1.3.5-2.3 1.9-2.3 3.4 0 2 1.6 3.7 3.7 3.7s3.7-1.6 3.7-3.7c0-1.5-1-2.9-2.3-3.4v-1.2c.5-.1.9-.6.9-1.1 0-.4-.2-.7-.5-1v-.1c.5.6 1.2 1 2 1 1.4 0 2.6-1.2 2.6-2.6 0-.3-.1-.5-.1-.8.2.1.5.1.7.1 1.4 0 2.6-1.2 2.6-2.6 0-.5-.2-1.1-.5-1.5 1.4 0 2.6-1.2 2.6-2.6 0-.7-.3-1.3-.7-1.8 1.3-.2 2.3-1.3 2.3-2.6 0-.8-.4-1.6-1-2.1.6-.1 1-.5 1.1-1v-2.9c0-.7-.6-1.2-1.2-1.2zm-3 4.9c-.7.5-1.2 1.3-1.2 2.2 0 .7.3 1.3.7 1.8-1.3.2-2.3 1.3-2.3 2.6 0 .5.2 1.1.5 1.5-1.4 0-2.6 1.2-2.6 2.6 0 .3.1.5.1.8-.2-.1-.5-.1-.7-.1-.6 0-1.2.2-1.7.6.1-.1.1-.3.1-.4 0-.7-.5-1.2-1.2-1.2-.4 0-.8.2-1 .6h-.1c-.2-.3-.6-.6-1-.6-.7 0-1.2.5-1.2 1.2 0 .2.1.3.1.5-.5-.5-1.1-.7-1.8-.7-.3 0-.5 0-.7.1.1-.2.1-.5.1-.8 0-1.4-1.2-2.6-2.6-2.6.3-.4.4-.9.4-1.4 0-1.3-1-2.4-2.3-2.6.4-.5.7-1.1.7-1.8 0-.9-.4-1.7-1.1-2.1.4-.2.6-.5.7-.9v-2.9c0-.3-.2-.6-.4-.8.9-.4 1.5-1.3 1.5-2.4 0-.5-.1-1-.4-1.4h.1c1.4 0 2.6-1.2 2.6-2.6 0-.3-.1-.5-.1-.8.5 0 .8.1 1.1.1.9 0 1.7-.5 2.2-1.1.2.4.6.6 1 .6h2.4c.4 0 .8-.2 1-.5.5.6 1.3 1 2.1 1 .3 0 .6-.1.9-.2-.1.2-.1.5-.1.7 0 1.4 1.2 2.6 2.6 2.6h.1c-.3.4-.4.9-.4 1.4 0 1.1.7 2 1.6 2.4-.2.2-.3.4-.3.7v2.9c0 .5.3.8.6 1zm-10.6 12c-.2-.1-.3-.3-.3-.5 0-.3.2-.5.5-.5.2 0 .4.1.5.3l-.7.7zm2.7 0l-.8-.7c.1-.2.3-.3.5-.3.3 0 .5.2.5.5.1.2 0 .4-.2.5zM36 12.6c0 1.1-.9 2-2 2s-2-.9-2-2 .9-2 2-2 2 .9 2 2zm-2.3-4c0 1.1-.9 2-2 2s-2-.9-2-2 .9-2 2-2 2 .9 2 2zm-5.4-5.2c1.1 0 2 .9 2 2s-.9 2-2 2c-.9 0-1.7-.6-1.9-1.5v-1c.2-.8 1-1.5 1.9-1.5zm-6 .2c0-.3.2-.5.5-.5h2.4c.3 0 .5.2.5.5v1.3c0 .2-.1.4-.1.6 0 .2 0 .4.1.6v.3c0 .3-.3.5-.6.5h-2.4c-.3 0-.5-.2-.5-.5l.1-2.8zm-2.7-.2c1.1 0 2 .9 2 2s-.9 2-2 2-2-.9-2-2 .9-2 2-2zm-3.4 3.2c1.1 0 2 .9 2 2s-.9 2-2 2-2-.9-2-2c.1-1.1.9-2 2-2zm-4.3 6c0-1.1.9-2 2-2s2 .9 2 2-.9 2-2 2-2-.9-2-2zm-.6 6v-2.8c0-.2.2-.4.5-.4h2.4c.3 0 .5.2.5.5v2.8c0 .3-.3.5-.6.5h-2.4c-.2-.2-.5-.4-.4-.6zm-.1 3.1c0-1.1.9-2 2-2s2 .9 2 2-.9 2-2 2-2-.9-2-2zm1.5 4.4c0-1.1.9-2 2-2s2 .9 2 2-.9 2-2 2-2-.9-2-2zm4.1 6c-1.1 0-2-.9-2-2s.9-2 2-2 2 .9 2 2c0 .5-.2 1-.5 1.4l-.1.1c-.4.3-.8.5-1.4.5zm3.3 3.3c-1.1 0-2-.9-2-2 0-.5.2-1 .5-1.4l.1-.1c.4-.3.8-.5 1.3-.5 1.1 0 2 .9 2 2 .1 1.1-.8 2-1.9 2zm2.3.8c0-.2.1-.4.2-.5l.8.7c-.1.2-.3.3-.5.3s-.5-.2-.5-.5zm4.7 5.7c0 1.7-1.4 3-3 3s-3-1.4-3-3 1.4-3 3-3 3 1.3 3 3zm-3-3.7c-.3 0-.5 0-.7.1v-1c.3-.1.5-.2.7-.5h.2c.1.2.4.4.7.5v1c-.4-.1-.7-.1-.9-.1zm1-1.5c-.2 0-.4-.1-.5-.3l.8-.7c.1.1.2.3.2.5.1.3-.2.5-.5.5zm.2-1.9c0 .1-.1.3-.2.4l-1.1.9-1-.9c-.1-.1-.2-.3-.2-.4v-2.3c0-.1.1-.3.2-.4l1.1-1 1.1 1c.1.1.2.2.2.4v2.3zm4.6-1.3c0 1.1-.9 2-2 2-1 0-1.8-.8-2-1.7v-.5c.1-1 1-1.7 2-1.7.5 0 1 .2 1.3.5l.1.1c.4.3.6.7.6 1.3zm1.2-1.3c-.5 0-1-.2-1.3-.5l-.1-.1c-.3-.4-.5-.8-.5-1.4 0-1.1.9-2 2-2s2 .9 2 2c-.1 1.1-1 2-2.1 2zm2.1-4.1c-1.1 0-2-.9-2-2s.9-2 2-2 2 .9 2 2-.9 2-2 2zm3.6-6.4c0 1.1-.9 2-2 2s-2-.9-2-2 .9-2 2-2 2 .9 2 2zm0-3.2c0 .3-.3.5-.6.5h-2.4c-.3 0-.5-.2-.5-.5v-2.8c0-.2.2-.4.5-.4h2.4c.3 0 .5.2.5.5v2.7z"/><path d="M22.2 40.2v2.4c0 .4.2.7.5 1l1.2 1c.1.1.3.1.4 0l1.2-1c.3-.3.5-.6.5-1l-.1-2.4c0-.2-.1-.3-.3-.3h-3.1c-.2 0-.3.1-.3.3zm.6.3h2.5l.1 2.1c0 .2-.1.3-.2.5l-1 .9-1-.9c-.2-.1-.2-.3-.2-.5v-2.1z"/></svg>