<svg version="1.1" xmlns="http://www.w3.org/2000/svg" x="0" y="0" xml:space="preserve" id="root"><style>.st0{fill:none}</style><path class="st0" d="M18.7 31.6v.6s0 .1.1.1h1.8s.1 0 .1-.1v-.6h-2zM28 34.7h-.6s-.1 0-.1.1v1.8s0 .1.1.1h.6v-2zM20 34.7v2h.6s.1 0 .1-.1v-1.8s0-.1-.1-.1H20zM20.6 30.9v-.6s0-.1-.1-.1h-1.8s-.1 0-.1.1v.6h2zM33.1 34.7v2h.6s.1 0 .1-.1v-1.8s0-.1-.1-.1h-.6zM32.4 34.7h-.6s-.1 0-.1.1v1.8s0 .1.1.1h.6v-2zM27.3 31.6v.6s0 .1.1.1h1.8s.1 0 .1-.1v-.6h-2zM28.7 34.7v2h.6s.1 0 .1-.1v-1.8s0-.1-.1-.1h-.6zM29.3 30.9v-.6s0-.1-.1-.1h-1.8s-.1 0-.1.1v.6h2zM19.3 34.7h-.6s-.1 0-.1.1v1.8s0 .1.1.1h.6v-2zM10.5 34.7h-.6s-.1 0-.1.1v1.8s0 .1.1.1h.6v-2zM14.3 31.6v.6s0 .1.1.1h1.8s.1 0 .1-.1v-.6h-2zM23.9 29.6c-.7 0-1.3.6-1.3 1.3v7.6h2.6v-7.6c0-.7-.5-1.3-1.3-1.3zM11.8 30.9v-.6s0-.1-.1-.1H9.9s-.1 0-.1.1v.6h2zM11.2 34.7v2h.6s.1 0 .1-.1v-1.8s0-.1-.1-.1h-.6zM16.2 30.9v-.6s0-.1-.1-.1h-1.8s-.1 0-.1.1v.6h2zM9.8 31.6v.6s0 .1.1.1h1.8s.1 0 .1-.1v-.6h-2zM15.6 34.7v2h.6s.1 0 .1-.1v-1.8s0-.1-.1-.1h-.6zM14.9 34.7h-.6s-.1 0-.1.1v1.8s0 .1.1.1h.6v-2zM31.7 24.2c.6 0 1 .5 1 1v1.2H40.1L37 21.8h-8.4v2.4h3.1z"/><path class="st0" d="M32.7 27.3v.1c0 .1-.1.2-.2.3-.2.2-.5.3-.8.3H16.1c-.1 0-.3 0-.4-.1h-.1c-.1 0-.2-.1-.3-.2 0 0 0-.1-.1-.1-.1-.1-.1-.1-.1-.2v-.1-.2H8.4v11.4H22v-7.6c0-1.1.9-2 2-2s2 .9 2 2v7.6h13.6V27.1h-6.7l-.2.2zm-20.2 9.3c0 .4-.3.7-.7.7H9.9c-.4 0-.7-.3-.7-.7v-1.8c0-.4.3-.7.7-.7h1.8c.4 0 .7.3.7.7v1.8zm0-4.4c0 .4-.3.7-.7.7H9.9c-.4 0-.7-.3-.7-.7v-1.8c0-.4.3-.7.7-.7h1.8c.4 0 .7.3.7.7v1.8zm4.4 4.4c0 .4-.3.7-.7.7h-1.8c-.4 0-.7-.3-.7-.7v-1.8c0-.4.3-.7.7-.7h1.8c.4 0 .7.3.7.7v1.8zm0-4.4c0 .4-.3.7-.7.7h-1.8c-.4 0-.7-.3-.7-.7v-1.8c0-.4.3-.7.7-.7h1.8c.4 0 .7.3.7.7v1.8zm4.4 4.4c0 .4-.3.7-.7.7h-1.8c-.4 0-.7-.3-.7-.7v-1.8c0-.4.3-.7.7-.7h1.8c.4 0 .7.3.7.7v1.8zm0-4.4c0 .4-.3.7-.7.7h-1.8c-.4 0-.7-.3-.7-.7v-1.8c0-.4.3-.7.7-.7h1.8c.4 0 .7.3.7.7v1.8zm8.7 4.4c0 .4-.3.7-.7.7h-1.8c-.4 0-.7-.3-.7-.7v-1.8c0-.4.3-.7.7-.7h1.8c.4 0 .7.3.7.7v1.8zm0-4.4c0 .4-.3.7-.7.7h-1.8c-.4 0-.7-.3-.7-.7v-1.8c0-.4.3-.7.7-.7h1.8c.4 0 .7.3.7.7v1.8zm4.4 4.4c0 .4-.3.7-.7.7h-1.8c-.4 0-.7-.3-.7-.7v-1.8c0-.4.3-.7.7-.7h1.8c.4 0 .7.3.7.7v1.8zm1.1-6.3c0-.4.3-.7.7-.7H38c.4 0 .7.3.7.7v1.8c0 .4-.3.7-.7.7h-1.8c-.4 0-.7-.3-.7-.7v-1.8zm0 4.4c0-.4.3-.7.7-.7H38c.4 0 .7.3.7.7v1.8c0 .4-.3.7-.7.7h-1.8c-.4 0-.7-.3-.7-.7v-1.8zm-1.1-4.4v1.8c0 .4-.3.7-.7.7h-1.8c-.4 0-.7-.3-.7-.7v-1.8c0-.4.3-.7.7-.7h1.8c.4 0 .7.3.7.7zM40.1 39.2H7.8c-.2 0-.3.2-.3.3v.4h33v-.4c-.1-.2-.2-.3-.4-.3z"/><path class="st0" d="M15.7 25.2V27c0 .2.2.4.4.4h15.6c.2 0 .4-.2.4-.4v-1.8c0-.2-.2-.4-.4-.4H16.1c-.2.1-.4.2-.4.4zM31.8 30.3s-.1 0 0 0l-.1.7h2v-.6s0-.1-.1-.1h-1.8z"/><path class="st0" d="M15.1 25.2c0-.6.5-1 1-1h3.1v-2.4H11l-3.2 4.6h7.3v-1.2zM23.9 22.6c.9 0 1.6-.7 1.6-1.6 0-.9-.7-1.6-1.6-1.6-.9 0-1.6.7-1.6 1.6.1.9.8 1.6 1.6 1.6z"/><path class="st0" d="M23.2 15.2c.4-.4 1.1-.4 1.5 0l.8.9 3.7 4.2h.9l-5.8-6.6c-.1-.2-.4-.2-.5 0L18 20.3h.9l.5-.6 3.8-4.5zM26 10.3l.2-.1c.8-.2 1.3-.3 1.9-.2V8.2H28c-.5-.1-.9-.1-1.5.1l-.5.1c-.7.2-1.2.3-1.8.1v1.9c.6.2 1 .1 1.8-.1zM37.5 36.7h.6s.1 0 .1-.1v-1.8s0-.1-.1-.1h-.6v2z"/><path class="st0" d="M27.9 24.2v-4.4l-3.8-4.3c-.1-.2-.4-.2-.5 0l-3.7 4.2v4.4h8zm-4-5.3c1.2 0 2.2 1 2.2 2.2 0 1.2-1 2.2-2.2 2.2-1.2 0-2.2-1-2.2-2.2 0-1.3 1-2.2 2.2-2.2zM38.1 30.9v-.6s0-.1-.1-.1h-1.8s-.1 0-.1.1v.6h2zM36.2 31.6v.6s0 .1.1.1h1.8s.1 0 .1-.1v-.6h-2zM36.8 36.7v-2h-.6s-.1 0-.1.1v1.8s0 .1.1.1h.6zM31.7 31.6v.6s0 .1.1.1h1.8s.1 0 .1-.1v-.6h-2z"/><path d="M11.8 29.6H9.9c-.4 0-.7.3-.7.7v1.8c0 .4.3.7.7.7h1.8c.4 0 .7-.3.7-.7v-1.8c.1-.4-.2-.7-.6-.7zm-1.9.7h1.8s.1 0 .1.1v.6h-2l.1-.7c-.1 0 0 0 0 0zm1.9 1.9H9.9s-.1 0-.1-.1v-.6h2v.7zM11.8 34H9.9c-.4 0-.7.3-.7.7v1.8c0 .4.3.7.7.7h1.8c.4 0 .7-.3.7-.7v-1.8c.1-.4-.2-.7-.6-.7zm-2 2.6v-1.8s0-.1.1-.1h.6v2l-.7-.1c.1.1 0 0 0 0zm2 0s0 .1 0 0l-.7.1v-2h.6s.1 0 .1.1v1.8zM16.2 29.6h-1.8c-.4 0-.7.3-.7.7v1.8c0 .4.3.7.7.7h1.8c.4 0 .7-.3.7-.7v-1.8c0-.4-.3-.7-.7-.7zm-1.9.7h1.8s.1 0 .1.1v.6h-2l.1-.7zm1.9 1.9h-1.8s-.1 0-.1-.1v-.6h2l-.1.7zM16.2 34h-1.8c-.4 0-.7.3-.7.7v1.8c0 .4.3.7.7.7h1.8c.4 0 .7-.3.7-.7v-1.8c0-.4-.3-.7-.7-.7zm-1.9 2.6v-1.8s0-.1.1-.1h.6v2l-.7-.1c0 .1 0 0 0 0zm1.9 0s0 .1 0 0l-.7.1v-2h.6s.1 0 .1.1v1.8zM20.6 29.6h-1.8c-.4 0-.7.3-.7.7v1.8c0 .4.3.7.7.7h1.8c.4 0 .7-.3.7-.7v-1.8c0-.4-.3-.7-.7-.7zm-1.9.7h1.8s.1 0 .1.1v.6h-2l.1-.7zm1.9 1.9h-1.8s-.1 0-.1-.1v-.6h2l-.1.7zM20.6 34h-1.8c-.4 0-.7.3-.7.7v1.8c0 .4.3.7.7.7h1.8c.4 0 .7-.3.7-.7v-1.8c0-.4-.3-.7-.7-.7zm-1.9 2.6v-1.8s0-.1.1-.1h.6v2l-.7-.1c0 .1 0 0 0 0zm1.9 0s0 .1 0 0l-.6.1v-2h.6s.1 0 .1.1v1.8zM29.3 29.6h-1.8c-.4 0-.7.3-.7.7v1.8c0 .4.3.7.7.7h1.8c.4 0 .7-.3.7-.7v-1.8c0-.4-.3-.7-.7-.7zm-1.9.7h1.8s.1 0 .1.1v.6h-2l.1-.7c-.1 0 0 0 0 0zm1.9 1.9h-1.8s-.1 0-.1-.1v-.6h2l-.1.7zM29.3 34h-1.8c-.4 0-.7.3-.7.7v1.8c0 .4.3.7.7.7h1.8c.4 0 .7-.3.7-.7v-1.8c0-.4-.3-.7-.7-.7zm-2 2.6v-1.8s0-.1.1-.1h.6v2l-.7-.1c.1.1 0 0 0 0zm2 0s0 .1 0 0l-.7.1v-2h.6s.1 0 .1.1v1.8zM31.8 29.6c-.4 0-.7.3-.7.7v1.8c0 .4.3.7.7.7h1.8c.4 0 .7-.3.7-.7v-1.8c0-.4-.3-.7-.7-.7h-1.8zm1.9 2.6h-1.8s-.1 0-.1-.1v-.6h2l-.1.7zm0-1.3h-2v-.6s0-.1.1-.1h1.8s.1 0 .1.1v.6zM33.7 34h-1.8c-.4 0-.7.3-.7.7v1.8c0 .4.3.7.7.7h1.8c.4 0 .7-.3.7-.7v-1.8c0-.4-.3-.7-.7-.7zm-2 2.6v-1.8s0-.1.1-.1h.6v2l-.7-.1c.1.1 0 0 0 0zm2 0s0 .1 0 0l-.7.1v-2h.6s.1 0 .1.1v1.8zM36.2 32.9H38c.4 0 .7-.3.7-.7v-1.8c0-.4-.3-.7-.7-.7h-1.8c-.4 0-.7.3-.7.7v1.8c0 .4.3.7.7.7zm1.9-.7h-1.8s-.1 0-.1-.1v-.6h2l-.1.7zm-1.9-1.9H38s.1 0 .1.1v.6h-2l.1-.7zM36.2 37.3H38c.4 0 .7-.3.7-.7v-1.8c0-.4-.3-.7-.7-.7h-1.8c-.4 0-.7.3-.7.7v1.8c0 .4.3.7.7.7zm1.9-2.6v1.8s0 .1-.1.1h-.6v-2l.7.1zm-1.9 0l.7-.1v2h-.6s-.1 0-.1-.1v-1.8zM23.9 23.2c1.2 0 2.2-1 2.2-2.2 0-1.2-1-2.2-2.2-2.2s-2.2 1-2.2 2.2c0 1.3 1 2.2 2.2 2.2zm0-3.7c.9 0 1.6.7 1.6 1.6 0 .9-.7 1.6-1.6 1.6-.9 0-1.6-.7-1.6-1.6.1-.9.8-1.6 1.6-1.6z"/><path d="M40.1 38.5V27.1h1.3l-4.1-5.9h-8.7v-.6l.2.2h2.6l-6.7-7.6c-.1-.1-.3-.2-.4-.3v-1.8c.6.1 1.1.1 1.9-.2l.2-.1c.9-.3 1.3-.3 1.9-.1l.4.1V7.7l-.2-.1c-.7-.3-1.2-.2-2.1 0l-.2.1-.2.1c-.9.2-1.3.3-2 0l-.4-.1v5.2c-.2.1-.3.1-.4.3l-6.7 7.6h2.6l.2-.3v.7h-8.6l-4.1 5.9h1.2v11.4c-.5 0-1 .4-1 1v1h34.3v-1c0-.5-.5-.9-1-1zm-14.9 0h-2.6v-7.6c0-.7.6-1.3 1.3-1.3s1.3.6 1.3 1.3v7.6zm14.3 0H25.9v-7.6c0-1.1-.9-2-2-2s-2 .9-2 2v7.6H8.4V27.1h6.7V27.4c0 .1.1.2.1.2s0 .1.1.1c.1.1.2.1.3.2h.1c.1 0 .2.1.4.1h15.6c.3 0 .5-.1.7-.3.1-.1.1-.2.2-.3v-.1c0-.1.1-.1.1-.2h6.7v11.4zM27.9 24.9h3.8c.2 0 .4.2.4.4V27c0 .2-.2.4-.4.4H16.1c-.2 0-.4-.2-.4-.4v-1.8c0-.2.2-.4.4-.4h11.8zm.7-3.1H37l3.2 4.6H32.8v-1.2c0-.6-.5-1-1-1h-3.2v-2.4zM24.2 8.6c.6.1 1 .1 1.8-.1l.5-.1c.7-.2 1.1-.2 1.5-.1h.1v1.9c-.6-.1-1.1-.1-1.9.2l-.2-.1c-.8.2-1.2.3-1.7.1V8.6zm-5.5 11.6h-.9l5.8-6.6c.1-.2.4-.2.5 0l5.8 6.6H29L25.4 16l-.8-.9c-.4-.4-1.1-.4-1.5 0l-3.9 4.4-.5.7zm1.2-.4l3.7-4.2c.1-.2.4-.2.5 0l3.8 4.3v4.4h-8v-4.5zm-8.9 2h8.3v2.4h-3.1c-.6 0-1 .5-1 1v1.2H7.8l3.2-4.6zm29.4 18.1h-33v-.4c0-.2.2-.3.3-.3h32.4c.2 0 .3.2.3.3v.4z"/></svg>