<svg viewBox="0 0 48 48" version="1.1" xmlns="http://www.w3.org/2000/svg" x="0" y="0" xml:space="preserve" id="root"><style>.st0{fill:none}</style><path class="st0" fill="none"  d="M12.5 24.2v-8.7h-5v28.8c0 .5.4 1 1 1h4.1l-.1-21.1zm-2.1 14h-.7v-4.9h.6v4.9zm0-6.5h-.7v-4.9h.6v4.9zM16.6 35.1h-.1c-.4 0-.8.4-.8.8v5.4h1.7V36c-.1-.5-.4-.8-.8-.9zM24.3 29c1.7 0 3.1-1.4 3.1-3.1 0-1.7-1.4-3.1-3.1-3.1-1.7 0-3.1 1.4-3.1 3.1 0 1.7 1.4 3.1 3.1 3.1zM24.5 35.1h-.4c-.9 0-1.7.8-1.7 1.7v8.4h3.8v-8.4c0-.9-.8-1.7-1.7-1.7zM41.1 14.1l-.2-.5H35l-.2.5c-.1.4.1.7.5.7h5.3c.4 0 .6-.3.5-.7z"/><path class="st0" fill="none"  d="M34.8 30.4v-6.2H33.1l-9-14.8-.1-.1s-.1 0-.1.1l-9 14.8h-1.6v6.2h21.5zm-10.5-8.2c2 0 3.7 1.7 3.7 3.7 0 2.1-1.6 3.7-3.7 3.7s-3.7-1.7-3.7-3.7 1.6-3.7 3.7-3.7zM12.7 13L10 4.4 7.3 13zM13.1 14.1l-.2-.5H7.1l-.2.5c-.1.3 0 .5.2.6.1 0 .2.1.3.1h5.2c.4 0 .6-.3.5-.7zM13.3 31v14.2h8.4v-8.4c0-1.3 1-2.3 2.3-2.3h.4c1.3 0 2.3 1 2.3 2.3v8.4h8V31H13.3zM18 42h-3v-6c0-.8.7-1.5 1.5-1.5h.1c.8 0 1.4.7 1.4 1.5v6zm11.9 0v-6c0-.8.7-1.5 1.5-1.5h.1c.8 0 1.4.7 1.4 1.5v6h-3zM40.7 13L38 4.3 35.2 13zM40.5 44.3V15.5h-5.1V45.3h4.1c.6-.1 1-.5 1-1zm-2.2-6.1h-.6v-4.9h.6v4.9zm0-6.5h-.6v-4.9h.6v4.9z"/><path class="st0" fill="none"  d="M31.5 35.1h-.1c-.4 0-.8.4-.8.8v5.4h1.7V36c-.1-.5-.4-.8-.8-.9z"/><path d="M24.3 29.6c2.1 0 3.7-1.6 3.7-3.7s-1.7-3.7-3.7-3.7c-2.1 0-3.7 1.7-3.7 3.7 0 2.1 1.6 3.7 3.7 3.7zm0-6.8c1.7 0 3.1 1.4 3.1 3.1 0 1.7-1.4 3.1-3.1 3.1-1.7 0-3.1-1.4-3.1-3.1 0-1.7 1.4-3.1 3.1-3.1z"/><path d="M41.8 14L38 2.1v.1-.1L34.2 14c-.1.2 0 .4 0 .6 0 .2.1.3.2.4v.1c0 .1.1.1.1.1l.1.1.1.1h.1v8.2h-1.2L24.8 9.1c-.2-.3-.5-.4-.8-.4-.3 0-.6.1-.8.4l-8.8 14.5h-1.2v-8.2c.5-.2.8-.8.6-1.4L10.1 2.1v.2-.2L6.2 14c-.1.4 0 .7.2 1v.1l.1.1c.1.1.2.1.3.2v28.9c0 .9.7 1.6 1.6 1.6H39.6c.9 0 1.6-.7 1.6-1.6v-29c.5-.2.7-.8.6-1.3zm-1.1-1h-5.5L38 4.3l2.7 8.7zm-5.4 1.8c-.4 0-.6-.3-.5-.7l.2-.5h5.9l.2.5c.1.4-.1.7-.5.7h-5.3zm-20.5 9.4l9.1-14.8.1-.1s.1 0 .1.1l9 14.8H34.8v6.2H13.3v-6.2h1.5zM12.7 13H7.3L10 4.4l2.7 8.6zm-5.3 1.8c-.1 0-.2 0-.3-.1-.2-.1-.3-.4-.2-.6l.2-.5H13l.2.5c.1.4-.1.7-.5.7H7.4zm1.1 30.4c-.5 0-1-.4-1-1V15.5h5v8.7h.1v21.1H8.5zm13.9 0v-8.4c0-.9.8-1.7 1.7-1.7h.4c.9 0 1.7.8 1.7 1.7v8.4h-3.8zm4.4 0v-8.4c0-1.3-1-2.3-2.3-2.3h-.4c-1.3 0-2.3 1-2.3 2.3v8.4h-8.4V31h21.5v14.2h-8.1zm8.7 0V15.5h5.1v28.8c0 .5-.4 1-1 1h-4.1z"/><path d="M31.5 34.5c-.9 0-1.6.7-1.6 1.5v6h2.9v-6c.1-.8-.5-1.5-1.3-1.5zm.7 6.9h-1.7V36c0-.4.3-.8.8-.8h.2c.4 0 .8.4.8.8v5.4zM16.6 34.5c-.9 0-1.6.7-1.6 1.5v6h3v-6c0-.8-.6-1.5-1.4-1.5zm.7 6.9h-1.7V36c0-.4.3-.8.8-.8h.2c.4 0 .8.4.8.8v5.4zM37.7 26.8h.6v4.9h-.6zM37.7 33.3h.6v4.9h-.6zM9.7 26.8h.6v4.9h-.6zM9.7 33.3h.6v4.9h-.6z"/></svg>