<svg viewBox="0 0 48 48" version="1.1" xmlns="http://www.w3.org/2000/svg" x="0" y="0" xml:space="preserve" id="root"><style>.st0{fill:none}</style><path class="st0" fill="none"  d="M28 24.3h-8.1c-.1 0-.2.1-.2.2v8.1c0 .1.1.2.2.2H28c.1 0 .2-.1.2-.2v-8.1c.1-.1 0-.2-.2-.2zm-1.2 7l-.2.2c-3.9 2.8-8.3-1.5-5.4-5.5l.1-.1.1-.1c4-2.7 8.2 1.6 5.4 5.5z"/><path class="st0" fill="none"  d="M33.6 41.1V19c0-.1-.1-.2-.2-.2H14.6c-.1 0-.2.1-.2.2v22.2c0 .1.1.2.1.2h18.9c.1-.1.2-.2.2-.3zm-4.7-8.5c0 .5-.4.9-.9.9h-8.1c-.5 0-.9-.4-.9-.9v-8.1c0-.5.4-.9.9-.9H28c.5 0 .9.4.9.9v8.1zM33.3 42H13.7c-.3 0-.6.3-.6.6s.3.5.6.5h20.5c.3 0 .6-.3.6-.6s-.3-.5-.6-.5h-.7-.2z"/><path class="st0" fill="none"  d="M21.7 26.4c-2.5 3.4 1.2 7 4.5 4.6 2.5-3.4-1.2-7.1-4.5-4.6zM34.8 15h-6.6c-.9 0-1.2-1.2-.4-1.6l3.1-1.4c.1-.1.2-.2.1-.3l-3-6.6c-.1-.1-.2-.2-.3-.1l-10 4.5c-.1.1-.1.2-.1.3l1.8 3.9c.3.6-.2 1.2-.8 1.2h-5.5c-.1 0-.2.1-.2.2v2.7c0 .1.1.2.2.2h21.8c.1 0 .2-.1.2-.2v-2.7s-.2-.1-.3-.1zm-15-4.9L26.7 7l.3.6-6.8 3.1-.4-.6zm.9 2L27.6 9l.3.6-6.9 3-.3-.5zm.9 1.9l6.8-3.1.3.6-6.8 3.1-.3-.6z"/><path d="M21.5 25.8l-.1.1-.1.1c-2.9 3.9 1.5 8.3 5.4 5.5.1 0 .1-.1.1-.1 2.8-4-1.4-8.3-5.3-5.6zm4.8 5.1c-3.4 2.5-7-1.1-4.6-4.5 3.3-2.5 7 1.2 4.6 4.5z"/><path transform="rotate(-24.605 23.39 8.856)" d="M19.6 8.5h7.5v.6h-7.5z"/><path transform="rotate(-24.508 24.269 10.777)" d="M20.5 10.5h7.6v.6h-7.6z"/><path transform="rotate(-24.605 25.15 12.695)" d="M21.4 12.4h7.5v.6h-7.5z"/><path d="M35.7 15.1c-.1-.4-.5-.8-.9-.8h-6.6c-.2 0-.3-.3-.1-.4l3.1-1.4c.4-.2.6-.7.4-1.1l-3.1-6.7c-.2-.4-.7-.6-1.1-.4L17.4 9c-.4.2-.6.6-.4 1l1.8 4c.1.1 0 .3-.2.3h-5.5c-.5 0-.9.4-.9.9v2.7c0 .5.4.9.9.9h.6c0 .1-.1.1-.1.2v22.4c-.7 0-1.2.5-1.2 1.2v.1c0 .6.6 1.2 1.2 1.2h20.5c.7 0 1.2-.6 1.2-1.2v-.1c0-.6-.6-1.2-1.2-1.2V19c0-.1 0-.2-.1-.3h.7c.5 0 .9-.4.9-.9l.1-2.7zm-.9 27.4c0 .3-.3.6-.6.6H13.7c-.3 0-.6-.2-.6-.5s.3-.6.6-.6H34.3c.2 0 .5.2.5.5zm-20.3-1.2c-.1 0-.1-.1-.1-.2V19c0-.1.1-.2.2-.2h18.8c.1 0 .2.1.2.2v22.1c0 .1-.1.2-.1.2h-19zm20.6-23.4c0 .1-.1.2-.2.2H13.1c-.1 0-.2-.1-.2-.2v-2.7c0-.1.1-.2.2-.2h5.5c.6 0 1-.6.8-1.2l-1.8-3.9c0-.1 0-.2.1-.3L27.8 5c.1 0 .2 0 .3.1l3 6.6c0 .1 0 .2-.1.3l-3.1 1.4c-.8.4-.6 1.6.4 1.6h6.6c.1 0 .2.1.3.2v2.7z"/><path d="M28 23.6h-8.1c-.5 0-.9.4-.9.9v8.1c0 .5.4.9.9.9H28c.5 0 .9-.4.9-.9v-8.1c0-.5-.4-.9-.9-.9zm.3 9c0 .1-.1.2-.2.2H20c-.1 0-.2-.1-.2-.2v-8.1c0-.1.1-.2.2-.2h8c.1 0 .2.1.2.2v8.1z"/></svg>