<svg viewBox="0 0 48 48"  version="1.1" xmlns="http://www.w3.org/2000/svg" x="0" y="0" xml:space="preserve" id="root"><style>.st0{fill:none}</style><g id="ProDemos-Library"><g id="ProDemos-UI-Elementen"><g id="Iconen-min-48-px"><g id="Group-Copy-17"><path class="st0" fill="none"  d="M26.6 18c.1.1.4.1.5 0l.1-.1c.1-.1.1-.4 0-.5l-4.8-4.8c-.1-.1-.4-.1-.5 0l-.1.1c-.1.2-.1.4 0 .5l4.8 4.8zM18.9 14.9c-.1-.1-.2-.1-.3 0l-.3.3c-.1.1-.1.2 0 .3l.4.4.6-.6-.4-.4zM15.4 19.6c-.1-.1-.4-.1-.5 0l-.1.1c-.1.2-.1.4 0 .5l4.8 4.8c.1.1.4.1.5 0l.1-.1c.1-.1.1-.4 0-.5l-4.8-4.8zM27.7 16.9c.1.1.4.1.5 0l.1-.1c.1-.1.1-.4 0-.5l-4.8-4.8c-.1-.1-.4-.1-.5 0l-.1.1c-.1.2-.1.4 0 .5l4.8 4.8zM24.5 20.5l-.6.6 13.3 13.3c.1.1.3.1.5 0l.2-.2c.1-.1.1-.3 0-.5L24.5 20.5zM16.6 18.5c-.1-.1-.4-.1-.5 0l-.1.1c-.1.2-.1.4 0 .5l4.8 4.8c.1.1.4.1.5 0l.1-.1c.1-.1.1-.4 0-.5l-4.8-4.8zM25.7 18.5l-4.4-4.4-1.1 1.2-1.6 1.5-1.1 1.2 4.3 4.3 1.2-1.1 1.5-1.6z"/><path d="M38.3 33.4L25 20.1l1.4-1.4c.4.2.8.1 1.1-.2l.1-.1c.2-.2.3-.5.3-.7.2 0 .5-.1.7-.3l.1-.1c.4-.4.4-1 0-1.4L24.1 11c-.4-.4-1-.4-1.4 0l-.1.1c-.2.2-.3.4-.3.7-.2 0-.5.1-.7.3l-.1.1c-.3.3-.3.8-.2 1.1l-1.4 1.4-.4-.4c-.3-.3-.9-.3-1.2 0l-.3.3c-.3.3-.3.9 0 1.2l.4.4-1.5 1.5c-.4-.2-.8-.1-1.1.2l-.1.1c-.2.2-.3.4-.3.7-.2 0-.5.1-.7.3l-.1.1c-.4.4-.4 1.1 0 1.4l4.8 4.8c.4.4 1 .4 1.4 0l.1-.1c.2-.2.3-.5.3-.7.2 0 .5-.1.7-.3l.1-.1c.3-.3.4-.8.2-1.1l1.5-1.5L37 34.8c.4.4 1 .4 1.4 0l.1-.1c.1-.3.2-1-.2-1.3zM22.9 11.6l.1-.2c.2-.1.4-.1.5 0l4.8 4.8c.1.2.1.4 0 .5l-.1.1c-.2.1-.4.1-.5 0L22.9 12c-.1 0-.1-.2 0-.4zm-1.1 1.1l.1-.2c.2-.1.4-.1.5 0l4.8 4.8c.1.2.1.4 0 .5l-.1.2c-.2.1-.4.1-.5 0l-4.8-4.8c-.1-.1-.1-.3 0-.5zm-3.5 2.8c-.1-.1-.1-.2 0-.3l.3-.3c.1-.1.2-.1.3 0l.4.4-.6.6-.4-.4zm1.9 9.4l-.1.1c-.2.1-.4.1-.5 0l-4.8-4.8c-.1-.1-.1-.3 0-.5l.1-.1c.2-.1.4-.1.5 0l4.8 4.8c.1.1.1.4 0 .5zm1.1-1.1l-.1.1c-.2.1-.4.1-.5 0l-4.8-4.8c-.1-.1-.1-.3 0-.5l.1-.1c.2-.1.4-.1.5 0l4.8 4.8c.2.1.2.4 0 .5zm1.7-2.6l-1.1 1.1-4.4-4.3 1.1-1.1 1.5-1.5 1.1-1.1 4.3 4.3-1.1 1.1-1.4 1.5zm14.8 13.1l-.2.2c-.1.1-.3.1-.5 0L23.9 21.2l.6-.6 13.3 13.3c.1 0 .1.2 0 .4z"/><g><path class="st0" fill="none"  d="M22.9 32.9c-.1-.1-.1-.1-.1-.2v-.3c0-.3-.2-.5-.5-.5h-9.7c-.3 0-.5.2-.5.5v.3c0 .1 0 .2-.1.2L10.6 34h13.6l-1.3-1.1zM10.1 34.6h14.6v.9H10.1zM10.1 36.6s0 .1 0 0l14.5.1s.1 0 .1-.1v-.4H10.1v.4z"/><path d="M25.3 35.6v-1.1c.1-.1.1-.3 0-.4l-1.8-1.6v-.1c0-.7-.5-1.2-1.2-1.2h-9.7c-.7 0-1.2.5-1.2 1.2v.1l-1.8 1.6c-.1.1-.1.3 0 .4h-.1v2c0 .4.3.7.7.7h14.5c.4 0 .7-.3.7-.7v-.7s-.1-.1-.1-.2zm-15.2-1h14.6v.9H10.1v-.9zm1.8-1.7c.1-.1.1-.1.1-.2v-.3c0-.3.2-.5.5-.5h9.7c.3 0 .5.2.5.5v.3c0 .1 0 .2.1.2l1.3 1.1H10.6l1.3-1.1zm12.8 3.7s0 .1 0 0l-14.6.1s-.1 0-.1-.1v-.4h14.6v.4z"/></g></g></g></g></g></svg>