<svg xmlns="http://www.w3.org/2000/svg"  id="root"><path d="M36.2 11.4c1.1 0 2 .9 2 2v21.3c0 1.1-.9 2-2 2H11.3c-1.1 0-2-.9-2-2V13.3c0-1.1.9-2 2-2h24.9m0-.6H11.3c-1.4 0-2.6 1.2-2.6 2.6v21.3c0 1.4 1.2 2.6 2.6 2.6h24.9c1.4 0 2.6-1.2 2.6-2.6V13.3c0-1.4-1.1-2.6-2.6-2.6z"/><path d="M31.7 20.1l.9.6-.4-1.1.9-.6H32l-.4-1-.4 1.1h-1.1l.9.6-.4 1.1 1.1-.7zm-3.4 12.5l.9.6-.4-1.1.9-.6h-1.1l-.4-1.1-.2 1.2h-1.1l.9.6-.4 1.1.9-.7zm0-15.8l.9.6-.4-1.1.9-.6h-1.1l-.4-1.1-.2 1.1h-1.1l.9.6-.4 1.1.9-.6zm-4.5 17.1l.9.6-.4-1.1.9-.6h-1.1l-.4-1.1-.4 1.1h-1.1l.9.6-.4 1.1 1.1-.6zm-4.6-1.3l.9.6-.4-1.1.9-.6h-1.1l-.4-1.1-.4 1.1h-1.1l.9.6-.4 1.1 1.1-.6zm0-15.8l.9.6-.4-1.1.9-.6h-1.1l-.4-1.1-.4 1.1h-1.1l.9.6-.4 1.1 1.1-.6zm-3.4 3.3l.9.6-.4-1.1.9-.6h-1.1l-.3-1-.4 1.1h-1.1l.9.6-.4 1.1 1-.7zm-2.1 5.2l.9-.6.9.6-.4-1.1.9-.6h-1.1l-.4-1.1-.4 1.1H13l.9.6-.2 1.1zm1.2 4.6l.9-.6.9.6-.4-1.1.9-.6h-1.1l-.4-1.1-.4 1.1h-1.1l.9.6-.2 1.1zm8-13.7l.9-.6.9.6-.4-1.1.9-.6h-1.1l-.4-1.1-.4 1.1h-1.1l.9.6-.2 1.1zm7.9 13.7l.9-.6.9.6-.4-1.1.9-.6H32l-.4-1.1-.4 1.1h-1.1l.9.6-.2 1.1zm1.2-4.6l.9-.6.9.6-.4-1.1.9-.6h-1.1l-.4-1.1-.4 1.1h-1.1l.9.6-.2 1.1z"/></svg>