<svg version="1.1" xmlns="http://www.w3.org/2000/svg" x="0" y="0" xml:space="preserve" id="root"><style>.st0{fill:none}</style><path class="st0" d="M11.9 22.1h25.6v1.4H11.9zM7.9 23.7l-.3.1.3.2zM8.6 24.3l2.7 1.1v-3.1l-2.7 1.1zM39.9 22.1h-1.8v3.4h1.8c.1 0 .2-.1.2-.2v-3c0-.1-.1-.2-.2-.2zM11.9 24.2h25.6v1.4H11.9z"/><path d="M39.9 21.5H11.5l-4.6 1.9c-.4.1-.4.6-.1.8h.1l4.6 1.9H39.9c.5 0 .8-.4.8-.8v-3c0-.4-.4-.8-.8-.8zm-2.4 2H11.9v-1.4h25.6v1.4zm-26.2 1.9l-2.7-1.1v-.8l2.7-1.1v3zm-3.4-1.7v.3l-.4-.2.4-.1zm4 1.8v-1.4h25.6v1.4H11.9zm28.2-.2c0 .1-.1.2-.2.2h-1.8v-3.4h1.8c.1 0 .2.1.2.2v3z"/></svg>