<svg version="1.1" xmlns="http://www.w3.org/2000/svg" x="0" y="0" xml:space="preserve" id="root"><style>.st0{fill:none}</style><path class="st0" d="M23.7 12.9h.3V11l.2-.1c.4-.2.7-.6.7-1.1 0-.7-.5-1.2-1.2-1.2s-1.2.5-1.2 1.2c0 .5.3.9.7 1.1l.2.1v2c.1 0 .2-.1.3-.1zM15.4 37.1c-.7 0-1.2.5-1.2 1.2v1h19.3v-1c0-.7-.6-1.2-1.2-1.2H15.4zM21.9 34.7c-.9 0-1.6.7-1.6 1.6v.1h7.2v-.1c0-.9-.7-1.6-1.6-1.6h-4zM7 30.5c0 .1 0 .1 0 0h10.5l-5.2-11.2L7 30.5zM10.4 34.3h3.8c1.7 0 3.1-1.3 3.3-3v-.1H7c.2 1.7 1.6 3.1 3.4 3.1zM33.8 34.3h3.8c1.7 0 3.1-1.3 3.3-3v-.1H30.5c.1 1.7 1.6 3.1 3.3 3.1zM24 29.9V15.7h-.6V30h-.3c-.3 0-.6.3-.6.7v3.5H25v-3.5c0-.4-.3-.7-.7-.7H24zM30.5 30.6H41l-5.3-11.2-5.2 11.2z"/><path class="st0" d="M29.8 15.5l-.2-.1c-2.1-1.3-3.5-1.8-5.9-1.8-2.3 0-3.7.5-5.8 1.8l-.9.6-.5.3c-.4.2-.7.4-1 .6l.6-.2c3.5-1.2 5.2-1.6 6.9-1.6H24.8c1.6 0 3.2.4 6.4 1.5l.7.3c-.3-.2-.6-.4-1-.6l-1.1-.8z"/><path d="M41.6 30.6v-.3L35.8 18c.2 0 .3 0 .5-.1.4-.1.3-.7-.1-.6-1 .1-2.4-.2-3.8-1-.3-.2-.6-.4-1-.6l-.4-.3-1-.5c-1.9-1.2-3.3-1.8-5.3-1.9v-1.5c.5-.3.9-.9.9-1.6 0-1-.8-1.8-1.8-1.8S22 8.9 22 9.9c0 .6.3 1.2.9 1.5V13c-1.9.1-3.3.7-5.2 1.9l-1.1.7c-.4.2-.7.4-1 .6l-.2.1-.4.1c-1.4.8-2.7 1.1-3.6.9-.4-.1-.5.5-.1.6.3.1.6.1.9.1L6.4 30.3c0 .1-.1.2 0 .3v.4c.1 2.2 1.8 3.9 4 3.9h3.8c2.2 0 4-1.8 4-4v-.3-.3l-5.7-12.2c.9 0 1.9-.1 3.1-.6l.7-.3c3.3-1.2 4.9-1.5 6.4-1.6h.2v13.7c-.5.2-.9.7-.9 1.2V34c-1.3 0-2.3 1-2.3 2.3v.1h-4.2c-1 0-1.8.8-1.8 1.8V40h20.6v-1.7c0-1-.9-1.8-1.9-1.8h-4.2v-.1c0-1.2-1-2.3-2.3-2.3h-.1v-3.5c0-.7-.4-1.2-1.1-1.3V15.7c1.6 0 3.2.4 6.7 1.6l.5.2c1.5.5 2.7.7 3.8.6l-5.8 12.2c-.1.1-.1.2-.1.4v.3c.1 2.2 1.8 3.9 4 3.9h3.8c2.2 0 4-1.8 4-4v-.3zm-24.1.7c-.2 1.7-1.6 3-3.3 3h-3.8c-1.7 0-3.2-1.3-3.3-3h10.4zM7 30.6l5.3-11.2 5.2 11.2H7zm16.2-19.7c-.4-.2-.7-.6-.7-1.1 0-.7.5-1.2 1.2-1.2s1.2.5 1.2 1.2c0 .5-.3.9-.7 1.1l-.2.1v2h-.6v-2l-.2-.1zm9.2 26.2c.7 0 1.2.5 1.2 1.2v1H14.2v-1c0-.7.5-1.2 1.2-1.2h17zm-6.5-2.4c.9 0 1.6.7 1.6 1.6v.1h-7.2v-.1c0-.9.7-1.6 1.6-1.6h4zm-.8-4.1v3.5h-2.5v-3.5c0-.3.3-.6.6-.7h.3V15.7h.6V30h.4c.3-.1.6.2.6.6zm6.1-14.1C28 15.4 26.4 15 24.8 15H23c-1.8 0-3.4.4-6.9 1.6l-.6.2c.3-.2.7-.4 1-.6l.5-.2.9-.6c2.1-1.3 3.5-1.8 5.8-1.8 2.4 0 3.8.5 5.9 1.8l.2.1 1.1.7c.4.2.7.4 1 .6l-.7-.3zm4.5 2.9L41 30.6H30.5l5.2-11.2zM41 31.3c-.2 1.7-1.6 3-3.3 3h-3.8c-1.7 0-3.2-1.3-3.3-3H41z"/></svg>