<svg xmlns="http://www.w3.org/2000/svg" viewBox="0 0 24 24" id="root">
    <g fill="currentColor" fill-rule="evenodd">
        <path d="M17,8c-0.6,0-1,0.4-1,1v8c0,0.6-0.4,1-1,1H9c-0.6,0-1-0.4-1-1V9c0-0.6-0.4-1-1-1S6,8.4,6,9v8c0,1.7,1.3,3,3,3h6
		    c1.7,0,3-1.3,3-3V9C18,8.4,17.6,8,17,8z"/>
        <path d="M7,7h2h2h2h2h2c0.6,0,1-0.4,1-1s-0.4-1-1-1h-2.6C14,4.2,13.2,3.5,12,3.5S10,4.2,9.6,5H7C6.4,5,6,5.4,6,6S6.4,7,7,7z"/>
        <path d="M9.5,9v6.5c0,0.6,0.4,1,1,1s1-0.4,1-1V9c0-0.6-0.4-1-1-1S9.5,8.4,9.5,9z"/>
        <path d="M12.5,9v6.5c0,0.6,0.4,1,1,1c0.6,0,1-0.4,1-1V9c0-0.6-0.4-1-1-1C12.9,8,12.5,8.4,12.5,9z"/>
    </g>
</svg>