<svg xmlns="http://www.w3.org/2000/svg" viewBox="0 0 24 24" height="24px" width="24px">
    <path fill="currentColor" fill-rule="evenodd" d="M12,6c-3.3,0-6,2.7-6,6s2.7,6,6,6s6-2.7,6-6S15.3,6,12,6z M14.4,13.6c0.2,0.2,0.2,0.5,0,0.7l-0.1,0.1
	c-0.2,0.2-0.5,0.2-0.7,0L12,12.8l-1.6,1.6c-0.2,0.2-0.5,0.2-0.7,0l-0.1-0.1c-0.2-0.2-0.2-0.5,0-0.7l1.6-1.6l-1.6-1.6
	c-0.2-0.2-0.2-0.5,0-0.7l0.1-0.1c0.2-0.2,0.5-0.2,0.7,0l1.6,1.6l1.6-1.6c0.2-0.2,0.5-0.2,0.7,0l0.1,0.1c0.2,0.2,0.2,0.5,0,0.7
	L12.8,12L14.4,13.6z"/>
</svg>