<svg xmlns="http://www.w3.org/2000/svg" viewBox="0 0 24 24" height="24px" width="24px">
    <path fill="currentColor" fill-rule="evenodd" d="M18.245 13.818c0 .229-.02.457-.062.682l-.7 3.854a2 2 0 01-.713 1.2C15.574 20.519 13.984 21 12 21c-1.984 0-3.574-.482-4.77-1.445a2 2 0 01-.714-1.201l-.7-3.854A3.82 3.82 0 017.8 10.436c.328.639.795 1.189 1.359 1.613l.09-.02a1.818 1.818 0 00-1.464 2.114l.699 3.854.167.127C9.453 18.697 10.55 19 12 19c1.554 0 2.702-.348 3.516-1.003l.7-3.854a1.818 1.818 0 00-1.373-2.095 4.718 4.718 0 001.357-1.61 3.815 3.815 0 012.045 3.38zM12 3a3.541 3.541 0 013.493 4.124l-.178 1.068a3.36 3.36 0 01-6.63 0l-.178-1.068A3.541 3.541 0 0112 3zm0 2a1.541 1.541 0 00-1.52 1.795l.178 1.068a1.36 1.36 0 002.684 0l.178-1.068A1.541 1.541 0 0012 5z"/>
</svg>