<svg version="1.1" id="Layer_1" xmlns="http://www.w3.org/2000/svg" x="0" y="0" width="48" height="48" xml:space="preserve"><style>.st0{fill-rule:evenodd;clip-rule:evenodd}</style><g id="ProDemos-Library"><g id="ProDemos-UI-Elementen"><g id="Iconen-min-48-px"><g id="Group-Copy-19"><path id="Path" class="st0" d="M11.9 30.1c-.8 0-1.5-.7-1.5-1.5V15c0-.8.7-1.5 1.5-1.5h24.2c.8 0 1.5.7 1.5 1.5v13.6c0 .8-.7 1.5-1.5 1.5H20.6v4.1c0 .2-.2.4-.4.3h-.1-.1l-.3-.1c-.2 0-.4-.1-.6-.2-.8-.2-1.6-.5-2.3-.9-1.5-.8-2.6-1.8-3.2-3.1v-.1h-1.7zm8.1-.3c0-.2.1-.3.3-.3h15.8c.5 0 .9-.4.9-.9V15c0-.5-.4-.9-.9-.9H11.9c-.5 0-.9.4-.9.9v13.6c0 .5.4.9.9.9h2c.1 0 .3.1.3.2.4 1.3 1.4 2.3 3 3.1.7.4 1.4.6 2.2.9.2.1.3.1.5.1h.1v-4z"/><g id="Group"><path class="st0" d="M32.5 17.8H13.8c-.2 0-.3.1-.3.3s.1.3.3.3h18.7c.2 0 .3-.1.3-.3s-.1-.3-.3-.3zM32.5 21.3H13.8c-.2 0-.3.1-.3.3 0 .2.1.3.3.3h18.7c.2 0 .3-.1.3-.3 0-.2-.1-.3-.3-.3zM32.5 24.8H13.8c-.2 0-.3.1-.3.3s.1.3.3.3h18.7c.2 0 .3-.1.3-.3s-.1-.3-.3-.3z"/></g></g></g></g></g></svg>