<svg version="1.1" id="Layer_1" xmlns="http://www.w3.org/2000/svg" x="0" y="0" width="48" height="48" xml:space="preserve"><style>.st0{fill-rule:evenodd;clip-rule:evenodd}</style><path class="st0" d="M35.8 33.6c0-.2-.1-.3-.3-.3h-23c-.2 0-.3.1-.3.3 0 .2.1.3.3.3v1.5c-.2 0-.3.1-.3.3 0 .2.1.3.3.3h23c.2 0 .3-.1.3-.3 0-.2-.1-.3-.3-.3v-1.5c.2 0 .3-.1.3-.3zm-.9 1.8H13.1v-1.5h21.7v1.5zM36.3 18.8c-.9 0-1.6.7-1.6 1.6 0 .6.3 1.1.7 1.3l-2.9 3.4-2.3-4-2.2 3.8-3.6-7.1-.1-.1v-2.5c.7-.1 1.3-.8 1.3-1.6 0-.9-.7-1.6-1.6-1.6-.9 0-1.6.7-1.6 1.6 0 .8.6 1.5 1.3 1.6v2.6l-3.8 7.3-2.3-3.9-2.2 3.8-2.7-3.2c.4-.3.7-.8.7-1.3 0-.9-.7-1.6-1.6-1.6s-1.8.7-1.8 1.6c0 .9.7 1.6 1.6 1.6h.1v.1l.4 7.2.1 2c0 .2.2.4.4.4h22.5c.3 0 .5-.2.5-.5l.5-9.2h.1c.9 0 1.6-.7 1.6-1.6.2-.9-.6-1.7-1.5-1.7zm-25.6 1.7c0-.5.4-1 1-1s1 .4 1 1c0 .5-.4 1-1 1s-1-.5-1-1zM32 25.7l-2.1 2.5h-.1-.1l-1.4-2.7 1.8-3.1 1.9 3.3zm-9-12.1c0-.5.4-1 1-1s1 .4 1 1-.4 1-1 1-1-.5-1-1zm-3.5 12.1l-.5 1-.7 1.5h-.1l-2.3-2.7 1.8-3.1 1.8 3.3zm15.6 5.5H13l-.1-1.8-.4-6.8 2.6 3 2.5 3c.1.1.1.1.2.1.1.1.2.1.4.1h.1c.2-.1.4-.2.5-.4l.7-1.4.6-1.1 3.8-7.5 3.6 7 1.5 2.9v.1c.1.2.3.4.6.4h.1c.2 0 .4-.1.5-.3l2.3-2.7 2.9-3.4-.3 8.8zm1.2-9.7c-.5 0-1-.4-1-1 0-.5.4-1 1-1s1 .4 1 1c0 .5-.4 1-1 1z"/></svg>