<svg version="1.1" id="Layer_1" xmlns="http://www.w3.org/2000/svg" x="0" y="0" width="48" height="48" xml:space="preserve"><style>.st0{fill:none}</style><path class="st0" d="M22.8 15.8l.5-.1c.7-.2 1.2-.3 1.8-.1v-1.9H25c-.4-.1-.8 0-1.5.1l-.5.1c-.7.2-1.2.3-1.8.1v1.9c.5.1.9.1 1.6-.1zM14.2 28.6c0-.6-.5-1.1-1.1-1.1s-1.1.5-1.1 1v4.1h2.2v-4zM22 29.3c.1 0 .3-.1.3-.3v-1.4c0-.1-.1-.3-.3-.3h-.5c-.1 0-.3.1-.3.3V29c0 .1.1.3.3.3h.5zM29.1 15.8l.5-.1c.7-.2 1.2-.3 1.8-.1v-1.9h-.1c-.4-.1-.8 0-1.5.1l-.5.1c-.7.2-1.2.3-1.8.1v1.9c.5.1.9.1 1.6-.1z"/><path class="st0" d="M21.2 31.5h-2.1V32.7s.1 0 .1.1h4.1v-9.5c-.2 0-.3 0-.5.1-.1 0-.3 0-.4.1-.1 0-.3.1-.4.1-.1 0-.2.1-.3.1 0 0-.1 0-.1.1-.1.1-.2.1-.3.2-.1 0-.3 0-.4.1l-.3.3-.3.3-.1.1c-.1.1-.2.2-.2.3-.1.1-.1.2-.2.2l-.1.1c-.1.1-.1.2-.2.4-.1.1-.1.2-.2.3v.1c-.1.1-.1.3-.1.4 0 .1 0 .1-.1.2v.2c0 .3-.1.5-.1.8v.3h.5v-.2c.1-1.7 1-3.1 2.2-3.6.2-.1.4 0 .4.2.1.2 0 .4-.2.4-1.1.5-1.9 1.9-1.9 3.6v.3h-1.1v2.1H21c.2 0 .3.1.3.3.2.2.1.3-.1.3zm-.6-2.4v-1.4c0-.5.4-.9.9-.9h.5c.5 0 .9.4.9.9v1.4c0 .5-.4.9-.9.9h-.5c-.4 0-.9-.4-.9-.9zM36.1 32.7v-4.1c0-.6-.5-1.1-1.1-1.1-.6 0-1.1.5-1.1 1v4.1h2.2zM28.9 28.4v4.4H31v-8.5h-.1c-1.2.4-2 2-2 4.1z"/><path class="st0" d="M42.3 32.3l-8.2-12.7c-.3-.4-.7-.6-1.2-.6H15.1c-.5 0-.9.2-1.2.6L5.7 32.3c-.1.1-.1.2 0 .3 0 .1.1.1.2.1h5.4v-4.2c0-.9.8-1.7 1.7-1.7s1.7.7 1.7 1.7v4.1h3.7v-1.3h-.3c-.2 0-.3-.1-.3-.3 0-.2.1-.3.3-.3h.3v-2.1h-.3c-.2 0-.3-.1-.3-.3 0-.2.1-.3.3-.3h.3v-.3c0-.3 0-.6.1-.9v-.1-.1c.1-.2.1-.5.2-.7v-.1-.1l.3-.6.1-.1.1-.1c.1-.2.2-.3.4-.5 0-.1.1-.1.1-.2.2-.2.4-.3.6-.5l.1-.1c.1 0 .1-.1.2-.1s.1-.1.2-.1.2-.1.3-.1c.1 0 .2-.1.2-.1s.1 0 .1-.1c.2-.1.5-.2.7-.2h.4c.2 0 .3-.1.5-.1H23.8c.2 0 .4 0 .6.1.1 0 .2 0 .3.1.3.1.5.2.8.3.1 0 .2.1.2.1.1.1.2.1.3.2.1 0 .1.1.2.1.1.1.2.1.3.2.2.1.4.3.6.5 0 0 .1 0 .1.1.2.2.4.4.6.7 0 .1.1.1.1.2.2.2.3.5.4.8v.1c0 .1.1.2.1.3.5-1.5 1.4-2.5 2.7-2.5h.3v9.1H33V29c0-1 .8-1.7 1.7-1.7 1 0 1.7.8 1.7 1.7v4.1h5.4c.1 0 .2-.1.2-.1.3-.5.3-.6.3-.7zM31 34v-.6h-1.1z"/><path class="st0" d="M28.1 32.8c.1 0 .1-.1.1-.2v-4.8c0-.3 0-.5-.1-.8v-.2c-.1-.2-.1-.5-.2-.7V26c-.1-.2-.2-.4-.4-.7 0-.1-.1-.1-.1-.2-.1-.2-.3-.4-.5-.6l-.1-.1c-.1-.1-.3-.3-.5-.4-.1-.1-.2-.1-.2-.2-.1-.1-.3-.2-.4-.2-.1 0-.1-.1-.2-.1-.2-.1-.4-.2-.7-.2h-.2c-.2 0-.3-.1-.5-.1H24v9.5h4.1z"/><path d="M45 32.8h-2.1c.1-.3 0-.6-.1-.8l-8.2-12.7c-.4-.6-1-.9-1.7-.9h-5.4v-1.7c.6.1 1 .1 1.8-.1l.5-.1c.8-.2 1.2-.3 1.8 0l.4.1v-3.2l-.4-.1c-.7-.2-1.2-.2-2 .1l-.5.1c-.8.2-1.2.2-1.8 0l-.4-.1v5.1h-5.6v-1.7c.6.1 1 .1 1.8-.1l.5-.1c.8-.2 1.2-.3 1.8 0l.4.1v-3.2l-.4-.1c-.7-.2-1.2-.2-2 .1l-.5.1c-.8.2-1.2.3-1.8 0l-.4-.1v5.1h-5.4c-.7 0-1.3.4-1.7.9L5.2 32c-.2.2-.2.5-.1.8H3c-.2 0-.3.1-.3.3 0 .2.1.3.3.3h25.6v.1l2.5 1.4.5.3v-1.7H45c.2 0 .3-.1.3-.3.1-.3-.1-.4-.3-.4zM27.5 14c.6.1 1 .1 1.8-.1l.5-.1c.6-.2 1-.2 1.5-.1h.1v1.9c-.6-.1-1-.1-1.8.1l-.5.1c-.7.2-1.1.2-1.6.1V14zm-6.3 0c.6.1 1 .1 1.8-.1l.5-.1c.6-.2 1-.2 1.5-.1h.1v1.9c-.6-.1-1-.1-1.8.1l-.5.1c-.7.2-1.1.2-1.6.1V14zm-9.3 18.8v-4.1c0-.6.5-1 1.1-1s1.1.5 1.1 1.1v4.1h-2.2zm9.3-1.9h-2.1v-2.1h1.1v-.3c0-1.6.7-3.1 1.9-3.6.2-.1.2-.3.2-.4-.1-.2-.3-.2-.4-.2-1.3.5-2.1 2-2.2 3.6v.2h-.5v-.3c0-.3 0-.5.1-.8v-.2c0-.1 0-.1.1-.2 0-.2.1-.3.1-.4v-.1c0-.1.1-.2.2-.3.1-.1.1-.3.2-.4l.1-.1c.1-.1.1-.2.2-.2.1-.1.1-.2.2-.3l.1-.1.3-.3.3-.3c.1-.1.2-.2.4-.2.1-.1.2-.1.3-.2 0 0 .1 0 .1-.1.1-.1.2-.1.3-.1.1-.1.3-.1.4-.1.1 0 .3-.1.4-.1.2 0 .3-.1.5-.1v9.5h-4.1s-.1 0-.1-.1V31.4h2.1c.2 0 .3-.1.3-.3-.2-.1-.3-.2-.5-.2zm2.9-7.7c.2 0 .3 0 .5.1h.2c.2.1.4.1.7.2.1 0 .2.1.2.1.2.1.3.2.4.2.1 0 .2.1.2.2.2.1.3.3.5.4l.1.1c.2.2.3.4.5.6 0 .1.1.1.1.2.1.2.3.4.4.7v.1c.1.2.2.5.2.7v.2c0 .3.1.5.1.8v4.8c0 .1-.1.2-.1.2H24l.1-9.6c-.1 0 0 0 0 0zM31 34l-1.1-.6H31v.6zm0-1.2h-2v-4.4c0-2.1.8-3.8 1.9-4.1h.1v8.5zm4-5.2c.6 0 1.1.5 1.1 1.1v4.1h-2.2v-4.1c0-.7.5-1.1 1.1-1.1zm7.1 5.2h-5.4v-4.1c0-1-.8-1.7-1.7-1.7-1 0-1.7.8-1.7 1.7v4.2h-1.6v-9.1h-.3c-1.3 0-2.2 1-2.7 2.5 0-.1-.1-.2-.1-.3v-.1c-.1-.3-.3-.5-.4-.8 0-.1-.1-.1-.1-.2-.2-.2-.3-.5-.6-.7 0 0-.1 0-.1-.1-.2-.2-.4-.3-.6-.5-.1-.1-.2-.1-.3-.2-.1 0-.1-.1-.2-.1-.1-.1-.2-.1-.3-.2-.1 0-.2-.1-.2-.1-.2-.1-.5-.2-.8-.3-.1 0-.2 0-.3-.1-.2 0-.4-.1-.6-.1h-.8c-.2 0-.3 0-.5.1h-.4c-.2.1-.5.1-.7.2 0 0-.1 0-.1.1-.1 0-.2.1-.2.1-.1 0-.2.1-.3.1-.1 0-.1.1-.2.1s-.1.1-.2.1l-.1.1c-.2.1-.4.3-.6.5 0 0-.1.1-.1.2-.1.2-.3.3-.4.5l-.1.1-.1.1-.3.6v.2c-.1.2-.2.5-.2.7v.2c-.1.3-.1.6-.1.9v.3h-.3c-.2 0-.3.1-.3.3 0 .2.1.3.3.3h.3v2.1h-.3c-.2 0-.3.1-.3.3 0 .2.1.3.3.3h.3v1.3H15v-4.1c0-.9-.8-1.7-1.7-1.7s-1.7.7-1.7 1.7v4.2H5.9c-.1 0-.2-.1-.2-.1-.1-.1 0-.2 0-.3l8.2-12.7c.3-.4.7-.6 1.2-.6h17.8c.5 0 .9.2 1.2.6L42.3 32c.1.1.1.2 0 .3-.1.4-.1.4-.2.5z"/><path d="M22 30c.5 0 .9-.4.9-.9v-1.4c0-.5-.4-.9-.9-.9h-.5c-.5 0-.9.4-.9.9v1.4c0 .5.4.9.9.9h.5zm-.7-.9v-1.4c0-.1.1-.3.3-.3h.4c.1 0 .3.1.3.3v1.4c0 .1-.1.3-.3.3h-.5c-.1-.1-.2-.2-.2-.3z"/></svg>