<svg version="1.1" id="Layer_1" xmlns="http://www.w3.org/2000/svg" x="0" y="0" width="48" height="48" xml:space="preserve"><style>.st0{fill:none}</style><path class="st0" d="M29.8 32.8c-.1.1-.3.1-.5 0l-1.5-1.5H13.3v1.3c0 .6.5 1.1 1.1 1.1h19.1c.6 0 1.1-.5 1.1-1.1v-1.3h-3.4l-1.4 1.5zM13.9 22.8h20.3c.7 0 1.2-.5 1.2-1.2v-.1c-.1-4-3.3-7.1-7.3-7.1h-8.2c-4 0-7.2 3.2-7.2 7.3v.1c0 .5.5 1 1.2 1zm17.9-6.1c.3 0 .7.4.9.5.1.2.1.4-.1.5-.1 0-.2.1-.3.1-.1 0-.2 0-.3-.1-.1-.2-.4-.9-.2-1zm-2.8-.9h.2c.2 0 .3.1.3.2.1.2.1.9-.1 1-.2 0-.6-.6-.6-.7-.1-.2 0-.4.2-.5zM26.6 18c.1-.2.5-.7.7-.7h.1c.2.1 0 .8 0 1-.1.1-.2.2-.3.2h-.2c-.3-.2-.4-.4-.3-.5zm-1.2-2.6c.3 0 .7.5.8.7.1.2 0 .4-.2.5h-.2c-.2 0-.3-.1-.3-.2-.2-.2-.3-.9-.1-1zm-3.1 1.7c.1-.2.5-.7.7-.7h.1c.2.1 0 .8 0 1-.1.1-.2.2-.3.2h-.2c-.2-.2-.3-.4-.3-.5zm-2-1.7c.3 0 .7.4.8.5.1.2 0 .4-.2.5-.1 0-.2.1-.2.1-.1 0-.2 0-.3-.1 0-.1-.3-.8-.1-1zm-2.3 2c.1-.1.6-.3.8-.3h.2c.1.2-.3.8-.5.9-.1 0-.1.1-.2.1s-.2-.1-.3-.2c-.1-.1-.1-.4 0-.5zm-2.1-.3s.1-.1.2-.1.3.1.4.2c.1.2.1.4-.1.5-.1.1-.6.3-.8.3-.1 0-.1 0-.2-.1-.2-.2.3-.7.5-.8zM34.3 27.4H18l-1 1c-.1.1-.3.1-.5 0l-1-1h-1.8c-.4 0-.8.3-.8.8v.1c0 .4.4.8.8.8h20.5c.5 0 .8-.4.8-.8.1-.5-.3-.9-.7-.9z"/><path d="M33.3 25c-.8-.7-1.3-.9-2.1-.9s-1.2.2-1.9.8l-.1.1c-.6.5-.9.7-1.6.7-.6 0-.9-.1-1.5-.6l-.1-.2c-.7-.6-1.2-.8-2-.8s-1.2.2-1.9.8H22c-.6.5-.9.7-1.6.7-.6 0-.9-.1-1.5-.6l-.1-.1c-.7-.6-1.2-.8-2-.8s-1.2.2-1.9.8l-.1.1c-.6.5-.9.7-1.6.7-.2 0-.3.1-.3.3 0 .2.1.3.3.3.8 0 1.3-.2 1.9-.8l.1-.1c.6-.5.9-.7 1.6-.7.6 0 1 .1 1.5.6l.1.1c.7.6 1.2.8 2 .8s1.3-.2 1.9-.8l.1-.1c.6-.5.9-.7 1.6-.7.6 0 1 .1 1.5.6l.1.1c.7.6 1.2.8 2 .8s1.3-.2 1.9-.8l.1-.1c.6-.5.9-.7 1.6-.7.6 0 1 .1 1.5.6l.1.1c.7.6 1.2.8 2 .8.2 0 .3-.1.3-.3 0-.2-.1-.3-.3-.3-.6.2-.9 0-1.5-.4zM34.3 26.8H17.9c-.1 0-.2 0-.2.1l-.9.9-.9-.9c-.1-.1-.1-.1-.2-.1h-1.9c-.8 0-1.4.6-1.4 1.4v.1c0 .8.7 1.4 1.5 1.4h20.5c.8 0 1.5-.7 1.5-1.5-.2-.8-.8-1.4-1.6-1.4zm0 2.3H13.8c-.4 0-.8-.3-.8-.8v-.1c0-.4.4-.8.8-.8h1.8l1 1c.1.1.3.1.5 0l1-1h16.3c.5 0 .8.4.8.8-.1.5-.5.9-.9.9zM34.7 30.6h-3.5c-.1 0-.2 0-.2.1l-1.4 1.4-1.4-1.4c-.1-.1-.1-.1-.2-.1H13.3c-.3 0-.6.3-.6.6v1.4c0 1 .8 1.8 1.8 1.8h19.1c1 0 1.8-.8 1.8-1.8v-1.4c-.1-.3-.4-.6-.7-.6zm0 2c0 .6-.5 1.1-1.1 1.1H14.4c-.6 0-1.1-.5-1.1-1.1v-1.3h14.5l1.5 1.5c.1.1.3.1.5 0l1.5-1.5h3.4v1.3zM13.9 23.4h20.3c1 0 1.9-.8 1.9-1.9v-.1c-.1-4.3-3.6-7.8-7.9-7.8H20c-4.4 0-7.9 3.5-7.9 7.9v.1c0 1 .8 1.8 1.8 1.8zm6-9.1h8.2c4 0 7.2 3.2 7.3 7.1v.1c0 .7-.5 1.2-1.2 1.2H13.9c-.7 0-1.2-.5-1.2-1.2v-.1c0-3.9 3.2-7.1 7.2-7.1z"/><path d="M29.4 17c.2-.1.2-.8.1-1 0-.2-.2-.2-.3-.2H29c-.2.1-.3.3-.3.4.1.2.5.8.7.8zM20.8 16.5c.1 0 .2 0 .2-.1.2-.1.3-.4.2-.5-.1-.1-.5-.6-.8-.6h-.1c-.2.1.1.8.2 1 0 .2.1.2.3.2zM26.8 18.4h.2c.1 0 .3-.1.3-.2.1-.2.2-.9 0-1h-.1c-.2 0-.6.5-.7.7 0 .2.1.4.3.5zM32.3 17.8c.1 0 .2 0 .3-.1.2-.1.3-.4.1-.5-.1-.2-.6-.6-.8-.6h-.1c-.2.1.1.8.2 1 0 .2.1.2.3.2zM22.5 17.5h.2c.1 0 .3-.1.3-.2.1-.2.2-.9 0-1h-.1c-.2 0-.6.5-.7.7.1.2.2.4.3.5zM15.5 18c.3 0 .7-.2.8-.3.2-.1.2-.4.1-.5-.1-.1-.3-.2-.4-.2-.1 0-.1 0-.2.1-.2.1-.7.7-.5.9h.2zM25.7 16.5h.2c.2-.1.3-.3.2-.5-.1-.2-.5-.7-.7-.7h-.1c-.2.1 0 .8.1 1 .1.2.2.2.3.2zM18.4 18.1c.1 0 .1 0 .2-.1.2-.1.6-.7.5-.9h-.2c-.3 0-.7.2-.8.3-.2.1-.2.4 0 .5 0 .1.1.2.3.2z"/></svg>