<svg version="1.1" id="Layer_1" xmlns="http://www.w3.org/2000/svg" x="0" y="0" width="48" height="48" xml:space="preserve"><style>.st1{fill-rule:evenodd;clip-rule:evenodd}</style><g id="ProDemos-Library"><g id="ProDemos-UI-Elementen"><g id="Iconen-min-48-px"><path id="Rectangle-Copy-21" fill-rule="evenodd" clip-rule="evenodd" fill="#fff" fill-opacity="0" d="M10 3h48v48H10z"/><g id="Group-Copy-18"><path id="Path" class="st1" d="M23.8 3c.7 0 1.3.6 1.3 1.3v1.3h-2.9V4.3c0-.7.6-1.3 1.3-1.3h.3zm.6 2v-.7c0-.4-.3-.7-.7-.7h-.3c-.4 0-.7.3-.7.7V5h1.7z"/><path class="st1" d="M35.7 5c.8 0 1.5.7 1.5 1.5v13.6c0 .8-.7 1.5-1.5 1.5H11.5c-.8 0-1.5-.7-1.5-1.5V6.5c0-.8.7-1.5 1.5-1.5h24.2zm0 .7H11.5c-.5 0-.9.4-.9.9v13.6c0 .5.4.9.9.9h24.2c.5 0 .9-.4.9-.9V6.5c-.1-.5-.5-.8-.9-.8z"/><path class="st1" d="M25 43.1c0 .8-.6 1.3-1.3 1.3h-.3c-.7 0-1.3-.6-1.3-1.3V21H25v22.1zm-2.2-21.5v21.5c0 .4.3.7.7.7h.3c.4 0 .7-.3.7-.7V21.6h-1.7z"/><g id="Group"><path class="st1" d="M29.8 3.9H11.2c-.2 0-.3.1-.3.3s.1.3.3.3h18.7c.2 0 .3-.1.3-.3s-.2-.3-.4-.3zM29.8 7.9H11.2c-.2 0-.3.1-.3.3s.1.3.3.3h18.7c.2 0 .3-.1.3-.3s-.2-.3-.4-.3zM29.8 12H11.2c-.2 0-.3.1-.3.3s.1.3.3.3h18.7c.2 0 .3-.1.3-.3s-.2-.3-.4-.3z" transform="translate(2.84 5.08)"/></g></g></g></g></g></svg>