<svg version="1.1" id="Layer_1" xmlns="http://www.w3.org/2000/svg" x="0" y="0" width="48" height="48" xml:space="preserve"><style>.st0{fill:none}</style><path class="st0" d="M24.9 16.7h.3c1.6 0 2.9 1.4 2.9 3 0 1.7-1.4 3-3.1 3-1.6 0-2.9-1.3-2.9-2.9 0-1.7 1.2-3 2.8-3.1zM16.9 23.8l.6-.6c.1-.1.3-.1.4 0l.6.6c.1.1.1.3 0 .4l-.5.8c-.1.1-.3.1-.4 0l-.6-.6c-.3-.2-.3-.4-.1-.6zM23.8 26.3l1.3-1.2 1.3 1.2-1.3 2.6z"/><path class="st0" d="M22.6 24.5h.2c.5.2 1 .3 1.5.3L23.2 26c-.1.1-.1.2-.1.4l1.6 3.3c.1.2.5.2.6 0l1.7-3.3c.1-.1 0-.3-.1-.4l-1.2-1.2c.6-.1 1.2-.2 1.7-.4 1.3.8 2.2 2.3 2.3 3.9v2.5h-9.3v-2.4c0-1.6.9-3 2.2-3.9z"/><path class="st0" d="M11.6 14.6v15.7c0 .3.3.6.6.6h3.1V27l-1.1 1.2c-.1.1-.3.1-.5 0-.1-.1-.1-.3 0-.5l2.7-2.8-.1-.1c-.3-.4-.3-1 0-1.3l.6-.6c.4-.3 1-.3 1.3 0l.6.6c.3.4.3 1 0 1.3l-.6.6c-.4.3-1 .3-1.3 0l.1-.1-.9 1v4.6h3.8v-2.5c0-1.9 1.1-3.6 2.7-4.5.1 0 .2-.1.3 0 .7.3 1.5.5 2.3.5.8 0 1.6-.2 2.3-.5h.3l.1.1c1.6.9 2.6 2.7 2.6 4.6V31h5.3c.3 0 .6-.3.6-.6V14.6c0-.3-.3-.6-.6-.6H12.3c-.4 0-.7.2-.7.6zm9.9 5.1c0-2 1.6-3.6 3.5-3.6h.2c2 .1 3.5 1.6 3.5 3.6S27 23.4 25 23.3c-1.9 0-3.4-1.6-3.5-3.4v-.2zM13.2 18c0-.2.1-.3.3-.3h2.2c.2 0 .3.1.3.3 0 .2-.1.3-.3.3h-2.2c-.1 0-.3-.1-.3-.3zm0-2.2c0-.2.1-.3.3-.3h4.4c.2 0 .3.1.3.3 0 .2-.1.3-.3.3h-4.4c-.1 0-.3-.1-.3-.3z"/><path d="M19.8 28.4c0-1.9 1.1-3.6 2.7-4.5.1 0 .2-.1.3 0 .7.3 1.5.5 2.3.5.8 0 1.6-.2 2.3-.5h.3l.1.1c1.6.9 2.6 2.7 2.6 4.6V31h-.6v-2.5c0-1.6-.9-3.1-2.3-3.9-.5.2-1.1.3-1.7.4l-.5-.5c-.1-.1-.3-.1-.5 0l-.5.5c-.5-.1-1.1-.1-1.5-.3l-.1-.1-.1.1c-1.3.8-2.2 2.3-2.2 3.9V31h-.6v-2.6zM16.4 24.8l.1.1.2-.2c.1-.1.3-.1.5 0 .1.1.1.3 0 .5l-.2.1.1.1c.4.4 1 .4 1.3 0l.6-.6c.4-.4.4-1 0-1.3l-.6-.6c-.4-.4-1-.4-1.3 0l-.6.6c-.5.3-.5.8-.1 1.3zm.4-.9l.7-.7c.1-.1.3-.1.4 0l.6.6c.1.1.1.3 0 .4l-.5.8c-.1.1-.3.1-.4 0l-.6-.6c-.3-.2-.3-.4-.2-.5zM21.5 19.7v.2c.1 1.9 1.6 3.4 3.5 3.4 2 .1 3.7-1.6 3.7-3.6s-1.6-3.6-3.5-3.6H25c-2 0-3.5 1.6-3.5 3.6zm.6.1c-.1-1.6 1.2-3 2.8-3.1H25.2c1.6 0 2.9 1.4 2.9 3 0 1.7-1.4 3-3.1 3-1.6-.1-2.9-1.4-2.9-2.9zM35.8 13.3c.6 0 1.2.6 1.2 1.3 0-.7-.5-1.2-1.2-1.3zM12.3 31.6h11.4-11.4c-.7 0-1.3-.5-1.3-1.2 0 .6.6 1.2 1.3 1.2zM35.7 31.6c.7 0 1.3-.6 1.3-1.2 0 .6-.6 1.2-1.3 1.2H24.3h11.4z"/><path d="M27 26l-1.2-1.2-.5-.5c-.1-.1-.3-.1-.5 0l-.5.5-1.1 1.2c-.1.1-.1.2-.1.4l1.6 3.3c.1.2.5.2.6 0l1.7-3.3c.1-.1.1-.3 0-.4zm-.6.3l-1.3 2.5-1.2-2.5 1.2-1.2 1.3 1.2zM13.5 15.5h4.4c.2 0 .3.1.3.3 0 .2-.1.3-.3.3h-4.4c-.2 0-.3-.1-.3-.3 0-.2.2-.3.3-.3zM13.5 17.7h2.2c.2 0 .3.1.3.3 0 .2-.1.3-.3.3h-2.2c-.2 0-.3-.1-.3-.3 0-.2.2-.3.3-.3z"/><path d="M11 14.6v15.7c0 .7.6 1.3 1.3 1.3h11.4V34H16c-.2 0-.3.1-.3.3 0 .2.1.3.3.3h16c.2 0 .3-.1.3-.3 0-.2-.1-.3-.3-.3h-7.7v-2.5h11.4c.7 0 1.3-.6 1.3-1.2V14.6c0-.7-.5-1.2-1.2-1.3H12.3c-.7 0-1.3.6-1.3 1.3zm.6 0c0-.4.3-.6.6-.6h23.4c.4 0 .6.3.6.6v15.7c0 .3-.3.6-.6.6H16v-4.6l.9-1 .2-.2c.1-.1.1-.3 0-.5-.1-.1-.3-.1-.5 0l-.2.2-2.7 2.8c-.1.1-.1.3 0 .5.1.1.3.1.5 0l1.1-1.2v3.9h-3.1c-.4 0-.6-.3-.6-.6V14.6z"/></svg>