<svg viewBox="0 0 20 24" xmlns="http://www.w3.org/2000/svg" id="root">
  <path transform="translate(-2,0)" fill="currentColor" d="M13,0.75 C14.7949254,0.75 16.25,2.20507456 16.25,4 L16.2505859,4.75587505 C19.0337195,4.8866583 21.25,7.18450912 21.25,10 L21.25,10 L21.25,20 C21.25,21.7949254 19.7949254,23.25 18,23.25 L18,23.25 L6,23.25 C4.20507456,23.25 2.75,21.7949254 2.75,20 L2.75,20 L2.75,10 C2.75,7.1841704 4.96681383,4.88610541 7.75041858,4.75582794 L7.75,4 C7.75,2.20507456 9.20507456,0.75 11,0.75 L13,0.75 Z M16,7.25 L8,7.25 C6.48121694,7.25 5.25,8.48121694 5.25,10 L5.25,10 L5.25,20 C5.25,20.4142136 5.58578644,20.75 6,20.75 L6,20.75 L6.75,20.75 L6.75,16 C6.75,14.2050746 8.20507456,12.75 10,12.75 L14,12.75 C15.7949254,12.75 17.25,14.2050746 17.25,16 L17.25,20.75 L18,20.75 C18.3796958,20.75 18.693491,20.4678461 18.7431534,20.1017706 L18.75,20 L18.75,10 C18.75,8.48121694 17.5187831,7.25 16,7.25 L16,7.25 Z M14.75,19.25 L9.25,19.25 L9.25,20.75 L14.75,20.75 L14.75,19.25 Z M14,15.25 L10,15.25 C9.58578644,15.25 9.25,15.5857864 9.25,16 L9.25,16.75 L14.75,16.75 L14.75,16 C14.75,15.5857864 14.4142136,15.25 14,15.25 Z M16,8.75 C16.6903559,8.75 17.25,9.30964406 17.25,10 C17.25,10.6903559 16.6903559,11.25 16,11.25 L8,11.25 C7.30964406,11.25 6.75,10.6903559 6.75,10 C6.75,9.30964406 7.30964406,8.75 8,8.75 L16,8.75 Z M13,3.25 L11,3.25 C10.5857864,3.25 10.25,3.58578644 10.25,4 L10.25,4.75 L13.75,4.75 L13.75,4 C13.75,3.58578644 13.4142136,3.25 13,3.25 Z"></path>
</svg>