<svg viewBox="0 0 30 27" xmlns="http://www.w3.org/2000/svg"  id="root">
  <path transform="translate(3,3)" fill="currentColor" d="M7.89492652,3.50708923 C8.36215101,2.91332738 9.13416461,2.82877401 9.61926717,3.31823398 C10.1043697,3.80769396 10.1188628,4.68581875 9.65163827,5.2795806 L9.65163827,5.2795806 L6.955,8.705 L16.587,8.705 L13.9076798,5.30011065 C13.4404553,4.7063488 13.4549484,3.82822401 13.9400509,3.33876403 C14.4251535,2.84930406 15.1971671,2.93385743 15.6643916,3.52761928 L19.4477505,8.33561682 C19.5377086,8.44993813 19.6098092,8.57480095 19.6641315,8.70540157 L22,8.70588235 L20.7105864,18.2860104 C20.5141069,19.5466326 19.4941396,20.4705882 18.2990011,20.4705882 L5.70099891,20.4705882 C4.50586043,20.4705882 3.48589312,19.5466326 3.28941356,18.2860104 L2,8.70588235 L3.88695151,8.70505364 C3.9421446,8.56713382 4.01698592,8.43528382 4.11156761,8.31508677 L4.11156761,8.31508677 Z M19.1139511,11.3202614 L4.88604886,11.3202614 L5.70099891,17.8562092 L18.2990011,17.8562092 L19.1139511,11.3202614 Z"></path>
</svg>