<svg viewBox="0 0 28.8 28.8" xmlns="http://www.w3.org/2000/svg" id="root">
  <path transform="translate(2,2)" fill="currentColor" d="M21,13.75 C21.6903559,13.75 22.25,14.3096441 22.25,15 L22.25,19 C22.25,20.7949254 20.7949254,22.25 19,22.25 L5,22.25 C3.20507456,22.25 1.75,20.7949254 1.75,19 L1.75,15 C1.75,14.3096441 2.30964406,13.75 3,13.75 C3.69035594,13.75 4.25,14.3096441 4.25,15 L4.25,19 C4.25,19.4142136 4.58578644,19.75 5,19.75 L19,19.75 C19.4142136,19.75 19.75,19.4142136 19.75,19 L19.75,15 C19.75,14.3096441 20.3096441,13.75 21,13.75 Z M12,1.75 C12.6903559,1.75 13.25,2.30964406 13.25,3 L13.25,11.983 L16.1161165,9.11611652 C16.5717282,8.66050485 17.2915486,8.63013074 17.7823881,9.02499419 L17.8838835,9.11611652 C18.3720388,9.60427189 18.3720388,10.3957281 17.8838835,10.8838835 L12.8838835,15.8838835 C12.8541503,15.9136167 12.8229261,15.9418589 12.7903328,15.9684885 L12.8838835,15.8838835 C12.8361129,15.931654 12.7854378,15.9747498 12.7324266,16.0131708 C12.7185423,16.0231093 12.7044468,16.0328841 12.6901448,16.0423723 C12.6715087,16.0548698 12.6525493,16.0667223 12.633353,16.0780183 C12.6160518,16.0880901 12.5982356,16.0980088 12.5801584,16.107498 C12.558142,16.1191222 12.5361135,16.1298384 12.5138515,16.1398693 C12.5002057,16.1460022 12.4861081,16.1520615 12.4718795,16.1578662 C12.4461899,16.1683106 12.4204672,16.1777904 12.3945183,16.1863968 C12.3811908,16.1909034 12.3671763,16.1952949 12.3530581,16.199444 C12.3279224,16.206711 12.3032341,16.2131233 12.2784068,16.2187699 C12.261729,16.222689 12.2440463,16.2263232 12.2262318,16.2295798 C12.2026075,16.2337846 12.1796467,16.2373164 12.1566207,16.2402079 C12.1369126,16.2427556 12.1164886,16.2448136 12.0959256,16.2463741 C12.0762103,16.2478443 12.0564966,16.2488855 12.036772,16.2494624 C12.0244204,16.2498243 12.0122307,16.25 12,16.25 L11.963228,16.2494624 C11.9435034,16.2488855 11.9237897,16.2478443 11.904105,16.2463388 L12,16.25 C11.9467619,16.25 11.8943011,16.2466718 11.8428144,16.2402121 C11.8203533,16.2373164 11.7973925,16.2337846 11.7745255,16.2296124 C11.7559537,16.2263232 11.738271,16.222689 11.7207289,16.2186857 C11.6967659,16.2131233 11.6720776,16.206711 11.647566,16.199533 C11.6328237,16.1952949 11.6188092,16.1909034 11.6049033,16.1862742 C11.5795328,16.1777904 11.5538101,16.1683106 11.5283595,16.1579574 C11.5138919,16.1520615 11.4997943,16.1460022 11.4858333,16.1396939 C11.4638865,16.1298384 11.441858,16.1191222 11.4200949,16.1077208 C11.4017644,16.0980088 11.3839482,16.0880901 11.3664063,16.0777553 C11.3474507,16.0667223 11.3284913,16.0548698 11.3097923,16.0424609 C11.2955532,16.0328841 11.2814577,16.0231093 11.2675769,16.0130563 C11.2478155,15.9988509 11.2283822,15.9838816 11.2093029,15.9682629 C11.1770739,15.9418589 11.1458497,15.9136167 11.1161165,15.8838835 L6.11611652,10.8838835 C5.62796116,10.3957281 5.62796116,9.60427189 6.11611652,9.11611652 C6.60427189,8.62796116 7.39572811,8.62796116 7.88388348,9.11611652 L10.75,11.983 L10.75,3 C10.75,2.30964406 11.3096441,1.75 12,1.75 Z"></path>
</svg>