<svg viewBox="0 0 22 24" xmlns="http://www.w3.org/2000/svg"  id="root">
    <path transform="translate(-1, 0)" fill="currentColor" d="M16,0.75 C16.6903559,0.75 17.25,1.30964406 17.25,2 L17.25,2.75 L19,2.75 C20.7330315,2.75 22.1492459,4.10645477 22.2448552,5.81557609 L22.25,6 L22.25,20 C22.25,21.7949254 20.7949254,23.25 19,23.25 L19,23.25 L5,23.25 C3.20507456,23.25 1.75,21.7949254 1.75,20 L1.75,20 L1.75,6 C1.75,4.20507456 3.20507456,2.75 5,2.75 L5,2.75 L6.75,2.75 L6.75,2 C6.75,1.30964406 7.30964406,0.75 8,0.75 C8.69035594,0.75 9.25,1.30964406 9.25,2 L9.25,2.75 L14.75,2.75 L14.75,2 C14.75,1.30964406 15.3096441,0.75 16,0.75 Z M19.75,11.25 L4.25,11.25 L4.25,20 C4.25,20.3796958 4.53215388,20.693491 4.89822944,20.7431534 L5,20.75 L19,20.75 C19.4142136,20.75 19.75,20.4142136 19.75,20 L19.75,20 L19.75,11.25 Z M8.01,16.75 C8.70035594,16.75 9.26,17.3096441 9.26,18 C9.26,18.6472087 8.76812534,19.1795339 8.13780524,19.2435464 L8,19.25 C7.30964406,19.25 6.75,18.6903559 6.75,18 C6.75,17.3527913 7.24187466,16.8204661 7.87219476,16.7564536 L8.01,16.75 Z M12.01,16.75 C12.7003559,16.75 13.26,17.3096441 13.26,18 C13.26,18.6472087 12.7681253,19.1795339 12.1378052,19.2435464 L12,19.25 C11.3096441,19.25 10.75,18.6903559 10.75,18 C10.75,17.3527913 11.2418747,16.8204661 11.8721948,16.7564536 L12.01,16.75 Z M16.01,16.75 C16.7003559,16.75 17.26,17.3096441 17.26,18 C17.26,18.6472087 16.7681253,19.1795339 16.1378052,19.2435464 L16,19.25 C15.3096441,19.25 14.75,18.6903559 14.75,18 C14.75,17.3527913 15.2418747,16.8204661 15.8721948,16.7564536 L16.01,16.75 Z M8.01,12.75 C8.70035594,12.75 9.26,13.3096441 9.26,14 C9.26,14.6472087 8.76812534,15.1795339 8.13780524,15.2435464 L8,15.25 C7.30964406,15.25 6.75,14.6903559 6.75,14 C6.75,13.3527913 7.24187466,12.8204661 7.87219476,12.7564536 L8.01,12.75 Z M12.01,12.75 C12.7003559,12.75 13.26,13.3096441 13.26,14 C13.26,14.6472087 12.7681253,15.1795339 12.1378052,15.2435464 L12,15.25 C11.3096441,15.25 10.75,14.6903559 10.75,14 C10.75,13.3527913 11.2418747,12.8204661 11.8721948,12.7564536 L12.01,12.75 Z M16.01,12.75 C16.7003559,12.75 17.26,13.3096441 17.26,14 C17.26,14.6472087 16.7681253,15.1795339 16.1378052,15.2435464 L16,15.25 C15.3096441,15.25 14.75,14.6903559 14.75,14 C14.75,13.3527913 15.2418747,12.8204661 15.8721948,12.7564536 L16.01,12.75 Z M6.75,5.25 L5,5.25 C4.58578644,5.25 4.25,5.58578644 4.25,6 L4.25,6 L4.25,8.75 L19.75,8.75 L19.75,6 C19.75,5.62030423 19.4678461,5.30650904 19.1017706,5.25684662 L19,5.25 L17.25,5.25 L17.25,6 C17.25,6.69035594 16.6903559,7.25 16,7.25 C15.3096441,7.25 14.75,6.69035594 14.75,6 L14.75,5.25 L9.25,5.25 L9.25,6 C9.25,6.69035594 8.69035594,7.25 8,7.25 C7.30964406,7.25 6.75,6.69035594 6.75,6 L6.75,5.25 Z"></path>
</svg>