<svg viewBox="0 0 24 24" xmlns="http://www.w3.org/2000/svg" id="root">
  <path fill="currentColor" d="M12,0 C18.627417,0 24,5.372583 24,12 C24,18.627417 18.627417,24 12,24 C5.372583,24 0,18.627417 0,12 C0,5.372583 5.372583,0 12,0 Z M12,2.66666667 C6.84534234,2.66666667 2.66666667,6.84534234 2.66666667,12 C2.66666667,17.1546577 6.84534234,21.3333333 12,21.3333333 C17.1546577,21.3333333 21.3333333,17.1546577 21.3333333,12 C21.3333333,6.84534234 17.1546577,2.66666667 12,2.66666667 Z M12.25,4 C12.9403559,4 13.5,4.5925643 13.5,5.32352941 L13.5,10.3529412 L16.75,10.3529412 C17.3972087,10.3529412 17.9295339,10.8737496 17.9935464,11.5411474 L18,11.6764706 C18,12.4074357 17.4403559,13 16.75,13 L12.25,13 C11.5596441,13 11,12.4074357 11,11.6764706 L11,5.32352941 C11,4.5925643 11.5596441,4 12.25,4 Z"></path>
</svg>