<svg xmlns="http://www.w3.org/2000/svg" viewBox="-2 -2 24 24" id="root">
    <path fill="currentColor" d="M10,0 C15.5,0 20,4.5 20,10 C20,15.5 15.5,20 10,20 C4.5,20 0,15.5 0,10 C0,4.5 4.5,0 10,0 Z M6,9 C5.44771525,9 5,9.44771525 5,10 C5,10.5522847 5.44771525,11 6,11 C6.55228475,11 7,10.5522847 7,10 C7,9.44771525 6.55228475,9 6,9 Z M10,9 C9.44771525,9 9,9.44771525 9,10 C9,10.5522847 9.44771525,11 10,11 C10.5522847,11 11,10.5522847 11,10 C11,9.44771525 10.5522847,9 10,9 Z M14,9 C13.4477153,9 13,9.44771525 13,10 C13,10.5522847 13.4477153,11 14,11 C14.5522847,11 15,10.5522847 15,10 C15,9.44771525 14.5522847,9 14,9 Z"></path>
</svg>