<svg xmlns="http://www.w3.org/2000/svg" viewBox="-2 -2 24 24" id="root">
    <path fill="currentColor" transform="translate(5.000000, 9.000000)" d="M1,0 C0.44771525,0 0,0.44771525 0,1 C0,1.5522847 0.44771525,2 1,2 C1.55228475,2 2,1.5522847 2,1 C2,0.44771525 1.55228475,0 1,0 Z M5,0 C4.44771525,0 4,0.44771525 4,1 C4,1.5522847 4.44771525,2 5,2 C5.5522847,2 6,1.5522847 6,1 C6,0.44771525 5.5522847,0 5,0 Z M9,0 C8.4477153,0 8,0.44771525 8,1 C8,1.5522847 8.4477153,2 9,2 C9.5522847,2 10,1.5522847 10,1 C10,0.44771525 9.5522847,0 9,0 Z"></path>
</svg>