<svg viewBox="0 0 20 20" xmlns="http://www.w3.org/2000/svg" id="root">
    <path transform="translate(0,0)" fill="currentColor" d="M16.5,0 L2.75,0 C1.976559,0.02865 1.332034,0.30078 0.8164062,0.81641 C0.3007787,1.33203 0.02864598,1.97656 0,2.75 L0,16.5 C0.02864598,17.273441 0.3007787,17.917966 0.8164062,18.4335938 C1.332034,18.9492213 1.976559,19.221354 2.75,19.25 L16.5,19.25 C17.27344,19.221354 17.91797,18.9492213 18.43359,18.4335938 C18.94922,17.917966 19.22135,17.273441 19.25,16.5 L19.25,2.75 C19.22135,1.97656 18.94922,1.33203 18.43359,0.81641 C17.91797,0.30078 17.27344,0.02865 16.5,0 Z M16.5,13.0625 C16.5,13.463544 16.3711,13.792967 16.11328,14.050781 L16.11328,14.050781 C15.85547,14.308595 15.52604,14.4375 15.125,14.4375 L4.125,14.4375 C3.723956,14.4375 3.394533,14.308595 3.136719,14.050781 C2.878905,13.792967 2.75,13.463544 2.75,13.0625 L2.75,8.33594 L8.722656,11.300781 C9.009116,11.444011 9.309894,11.515625 9.625,11.515625 C9.940106,11.515625 10.24088,11.444011 10.52734,11.300781 L16.5,8.33594 L16.5,13.0625 Z M16.5,6.78906 L9.925781,10.097656 C9.725259,10.183594 9.524741,10.183594 9.324219,10.097656 L2.75,6.78906 L2.75,6.1875 C2.75,5.78646 2.878905,5.45703 3.136719,5.19922 C3.394533,4.9414 3.723956,4.8125 4.125,4.8125 L15.125,4.8125 C15.52604,4.8125 15.85547,4.9414 16.11328,5.19922 C16.3711,5.45703 16.5,5.78646 16.5,6.1875 L16.5,6.78906 Z"></path>
</svg>