<svg viewBox="0 0 24 24" xmlns="http://www.w3.org/2000/svg" id="root">
  <path fill="currentColor" d="M19.1428571,2 L4.85714286,2 C4.05356779,2.02976623 3.38393143,2.3124987 2.84821423,2.84821818 C2.31249735,3.38392727 2.02976206,4.05356883 2,4.85714286 L2,19.1428571 C2.02976206,19.9464322 2.31249735,20.6160686 2.84821423,21.1517858 C3.38393143,21.6875026 4.05356779,21.9702379 4.85714286,22 L19.1428571,22 C19.9464312,21.9702379 20.6160727,21.6875026 21.1517818,21.1517858 C21.6875013,20.6160686 21.9702338,19.9464322 22,19.1428571 L22,4.85714286 C21.9702338,4.05356883 21.6875013,3.38392727 21.1517818,2.84821818 C20.6160727,2.3124987 19.9464312,2.02976623 19.1428571,2 Z M19.1428571,15.5714286 C19.1428571,15.9880977 19.0089351,16.3303553 18.7410701,16.598214 L18.7410701,16.598214 C18.4732156,16.8660727 18.1309506,17 17.7142857,17 L6.28571429,17 C5.86904519,17 5.52678753,16.8660727 5.25892883,16.598214 C4.99107013,16.3303553 4.85714286,15.9880977 4.85714286,15.5714286 L4.85714286,10.6607169 L11.0624997,13.7410712 C11.3601205,13.8898816 11.6726171,13.9642857 12,13.9642857 C12.3273829,13.9642857 12.6398753,13.8898816 12.9374961,13.7410712 L19.1428571,10.6607169 L19.1428571,15.5714286 Z M19.1428571,9.05356883 L12.3124997,12.4910712 C12.1041652,12.5803574 11.8958348,12.5803574 11.6875003,12.4910712 L4.85714286,9.05356883 L4.85714286,8.42857143 C4.85714286,8.01190649 4.99107013,7.66964156 5.25892883,7.40178701 C5.52678753,7.13392208 5.86904519,7 6.28571429,7 L17.7142857,7 C18.1309506,7 18.4732156,7.13392208 18.7410701,7.40178701 C19.0089351,7.66964156 19.1428571,8.01190649 19.1428571,8.42857143 L19.1428571,9.05356883 Z"></path>
</svg>