<svg viewBox="0 0 2 10" xmlns="http://www.w3.org/2000/svg" id="root">
  <path fill="currentColor" transform="translate(-4, 0)" d="M4.99999991,8 C5.55228466,8 5.99999991,8.44771525 5.99999991,9 C5.99999991,9.55228475 5.55228466,10 4.99999991,10 C4.44771516,10 3.99999991,9.55228475 3.99999991,9 C3.99999991,8.44771525 4.44771516,8 4.99999991,8 Z M4.99999991,3.4532377e-12 C5.55228466,3.45313624e-12 5.99999991,0.44771525 5.99999991,1 L5.99999991,6 C5.99999991,6.55228475 5.55228466,7 4.99999991,7 C4.44771516,7 3.99999991,6.55228475 3.99999991,6 L3.99999991,1 C3.99999991,0.44771525 4.44771516,3.45333915e-12 4.99999991,3.4532377e-12 Z"></path>
</svg>