<svg viewBox="0 0 24 24" xmlns="http://www.w3.org/2000/svg" id="root">
  <path fill="currentColor" d="M12,0 C18.627417,0 24,5.372583 24,12 C24,18.627417 18.627417,24 12,24 C5.372583,24 0,18.627417 0,12 C0,5.372583 5.372583,0 12,0 Z M12,2.66666667 C6.84534234,2.66666667 2.66666667,6.84534234 2.66666667,12 C2.66666667,17.1546577 6.84534234,21.3333333 12,21.3333333 C17.1546577,21.3333333 21.3333333,17.1546577 21.3333333,12 C21.3333333,6.84534234 17.1546577,2.66666667 12,2.66666667 Z M12.0039841,15 C12.5540685,15 13,15.4477153 13,16 C13,16.5522847 12.5540685,17 12.0039841,17 C11.4459315,17 11,16.5522847 11,16 C11,15.4871642 11.3845022,15.0644928 11.8798594,15.0067277 L12.0039841,15 Z M12,6 C12.5522847,6 13,6.60269361 13,7.34615385 L13,11.6538462 C13,12.3973064 12.5522847,13 12,13 C11.4477153,13 11,12.3973064 11,11.6538462 L11,7.34615385 C11,6.60269361 11.4477153,6 12,6 Z"></path>              
</svg>