<svg viewBox="-2 -2 24 24" xmlns="http://www.w3.org/2000/svg" id="root">
    <path fill="currentColor" d="M10,0 C15.5,0 20,4.5 20,10 C20,15.5 15.5,20 10,20 C4.5,20 0,15.5 0,10 C0,4.5 4.5,0 10,0 Z M10,14 C9.44771525,14 9,14.4477153 9,15 C9,15.5522847 9.44771525,16 10,16 C10.5522847,16 11,15.5522847 11,15 C11,14.4477153 10.5522847,14 10,14 Z M10,4 C9.44771525,4 9,4.44771525 9,5 L9,5 L9,11 C9,11.5522847 9.44771525,12 10,12 C10.5522847,12 11,11.5522847 11,11 L11,11 L11,5 C11,4.44771525 10.5522847,4 10,4 Z"></path>
</svg>