<svg viewBox="0 0 22 24" xmlns="http://www.w3.org/2000/svg" id="root">
  <path fill="currentColor" transform="translate(-1, 0)" d="M5,23.25 C3.20507456,23.25 1.75,21.7949254 1.75,20 L1.75,20 L1.75,9 C1.75,8.61426196 1.92809105,8.25012998 2.23257423,8.01330973 L2.23257423,8.01330973 L11.2325742,1.01330973 C11.6839623,0.662230091 12.3160377,0.662230091 12.7674258,1.01330973 L12.7674258,1.01330973 L21.7674258,8.01330973 C22.0719089,8.25012998 22.25,8.61426196 22.25,9 L22.25,9 L22.25,20 C22.25,21.7949254 20.7949254,23.25 19,23.25 L19,23.25 Z M12,3.583 L4.25,9.61 L4.25,20 C4.25,20.3796958 4.53215388,20.693491 4.89822944,20.7431534 L4.89822944,20.7431534 L5,20.75 L7.75,20.75 L7.75,12 C7.75,11.3096441 8.30964406,10.75 9,10.75 L15,10.75 C15.6903559,10.75 16.25,11.3096441 16.25,12 L16.25,20.75 L19,20.75 C19.3796958,20.75 19.693491,20.4678461 19.7431534,20.1017706 L19.75,20 L19.75,9.611 L12,3.583 Z M13.75,13.25 L10.25,13.25 L10.25,20.75 L13.75,20.75 L13.75,13.25 Z"></path>
</svg>