<svg viewBox="0 0 28.8 28.8" xmlns="http://www.w3.org/2000/svg" id="root">
    <path fill="currentColor" transform="translate(2,2)" d="M12,0.75 C17.1086339,0.75 21.25,4.89136606 21.25,10 C21.25,13.0019258 19.6189022,16.0602342 16.9342616,19.0804548 C16.0218338,20.1069361 15.0476379,21.0567771 14.0731308,21.9094709 C13.7314492,22.2084422 13.4134116,22.4744929 13.1267389,22.7048549 L13.1267389,22.7048549 L13.027315,22.7843369 L12.75,23 C12.3055556,23.3333333 11.6944444,23.3333333 11.25,23 L11.25,23 L10.6524963,22.525435 C10.4260918,22.33941 10.1831304,22.1336994 9.92686924,21.9094709 C8.95236207,21.0567771 7.97816616,20.1069361 7.06573835,19.0804548 C4.38109785,16.0602342 2.75,13.0019258 2.75,10 C2.75,4.89136606 6.89136606,0.75 12,0.75 Z M12,3.25 C8.27207794,3.25 5.25,6.27207794 5.25,10 C5.25,12.2480742 6.61890215,14.8147658 8.93426165,17.4195452 C9.77183384,18.3618139 10.6726379,19.2400979 11.5731308,20.0280291 L11.5731308,20.0280291 L12,20.394 L12.4268692,20.0280291 C13.3273621,19.2400979 14.2281662,18.3618139 15.0657384,17.4195452 C17.3810978,14.8147658 18.75,12.2480742 18.75,10 C18.75,6.27207794 15.7279221,3.25 12,3.25 Z M12,5.75 C14.3472102,5.75 16.25,7.65278981 16.25,10 C16.25,12.3472102 14.3472102,14.25 12,14.25 C9.65278981,14.25 7.75,12.3472102 7.75,10 C7.75,7.65278981 9.65278981,5.75 12,5.75 Z M12,8.25 C11.0335017,8.25 10.25,9.03350169 10.25,10 C10.25,10.9664983 11.0335017,11.75 12,11.75 C12.9664983,11.75 13.75,10.9664983 13.75,10 C13.75,9.03350169 12.9664983,8.25 12,8.25 Z"></path>
</svg>