<svg viewBox="0 0 22 22" xmlns="http://www.w3.org/2000/svg" id="root">
    <path fill="currentColor" transform="translate(-1, -1)" d="M11,1.75 C16.1086339,1.75 20.25,5.89136606 20.25,11 C20.25,13.1039279 19.5475818,15.0437973 18.3644621,16.5978913 L21.8838835,20.1161165 C22.3720388,20.6042719 22.3720388,21.3957281 21.8838835,21.8838835 C21.3957281,22.3720388 20.6042719,22.3720388 20.1161165,21.8838835 L16.5978913,18.3644621 C15.0437973,19.5475818 13.1039279,20.25 11,20.25 C5.89136606,20.25 1.75,16.1086339 1.75,11 C1.75,5.89136606 5.89136606,1.75 11,1.75 Z M11,4.25 C7.27207794,4.25 4.25,7.27207794 4.25,11 C4.25,14.7279221 7.27207794,17.75 11,17.75 C12.8124786,17.75 14.4581092,17.0356389 15.6706964,15.8731123 C15.7004167,15.8356641 15.73208,15.800153 15.7661165,15.7661165 C15.800153,15.73208 15.8356641,15.7004167 15.872444,15.6711265 C17.0356389,14.4581092 17.75,12.8124786 17.75,11 C17.75,7.27207794 14.7279221,4.25 11,4.25 Z"></path>
</svg>