<svg viewBox="0 0 28.8 28.8" xmlns="http://www.w3.org/2000/svg" id="root">
    <path transform="translate(2,2)" fill="currentColor" d="M12,-0.25 C18.7654882,-0.25 24.25,5.23451181 24.25,12 C24.25,18.7654882 18.7654882,24.25 12,24.25 C5.23451181,24.25 -0.25,18.7654882 -0.25,12 C-0.25,5.23451181 5.23451181,-0.25 12,-0.25 Z M12,2.25 C6.61522369,2.25 2.25,6.61522369 2.25,12 C2.25,17.3847763 6.61522369,21.75 12,21.75 C17.3847763,21.75 21.75,17.3847763 21.75,12 C21.75,6.61522369 17.3847763,2.25 12,2.25 Z M16,10.75 C16.6903559,10.75 17.25,11.3096441 17.25,12 C17.25,12.6903559 16.6903559,13.25 16,13.25 L8,13.25 C7.30964406,13.25 6.75,12.6903559 6.75,12 C6.75,11.3096441 7.30964406,10.75 8,10.75 L16,10.75 Z"></path>
</svg>