<svg viewBox="0 0 28.8 28.8" xmlns="http://www.w3.org/2000/svg" id="root">
    <path transform="translate(2,2)" fill="currentColor" d="M12,0 C18.627417,0 24,5.372583 24,12 C24,18.627417 18.627417,24 12,24 C5.372583,24 0,18.627417 0,12 C0,5.372583 5.372583,0 12,0 Z M12,2.66666667 C6.84534234,2.66666667 2.66666667,6.84534234 2.66666667,12 C2.66666667,17.1546577 6.84534234,21.3333333 12,21.3333333 C17.1546577,21.3333333 21.3333333,17.1546577 21.3333333,12 C21.3333333,6.84534234 17.1546577,2.66666667 12,2.66666667 Z M11.5059761,16 C12.3311027,16 13,16.6715729 13,17.5 C13,18.2766504 12.412102,18.9154407 11.6587314,18.9922557 L11.4940239,19 C10.6688973,19 10,18.3284271 10,17.5 C10,16.7233496 10.587898,16.0845593 11.3412686,16.0077443 L11.5059761,16 Z M12.184603,5.06515644 C14.3913347,5.43588767 16.0033238,7.31143893 16,9.5023972 C16,10.9636381 15.1280024,12.1023901 13.7780419,12.98386 C13.0536162,13.4568809 12.3445808,13.7655286 11.8354067,13.9317637 C11.1278298,14.1627734 10.363024,13.7882321 10.1271653,13.0952023 C9.90604773,12.4454869 10.2283244,11.7465069 10.8524982,11.4713263 L11.1685944,11.3524206 C11.2256423,11.3296601 11.2921148,11.30209 11.3662958,11.2697986 C11.6806758,11.1329469 11.9945515,10.9689884 12.279816,10.7827221 C12.9555833,10.3414732 13.2990275,9.89296267 13.299029,9.50042966 C13.3004004,8.59745768 12.6366388,7.82517021 11.7279838,7.67251605 C10.8727792,7.52884157 10.0353531,7.97347686 9.68473172,8.73643813 L9.62480947,8.88315783 C9.37730346,9.57228008 8.60628988,9.93440584 7.90270244,9.69198836 C7.199115,9.44957088 6.82938794,8.69440873 7.07689395,8.00528648 C7.81987847,5.93662088 9.97786986,4.69442497 12.184603,5.06515644 Z"></path>
</svg>