<svg viewBox="-2 -2 24 24" xmlns="http://www.w3.org/2000/svg" id="root">
    <path fill="currentColor" d="M10,0 C15.5,0 20,4.5 20,10 C20,15.5 15.5,20 10,20 C4.5,20 0,15.5 0,10 C0,4.5 4.5,0 10,0 Z M9.852,13.21 C9.42,13.21 9.057,13.36 8.763,13.66 C8.469,13.96 8.322,14.32 8.322,14.74 C8.322,15.172 8.469,15.538 8.763,15.838 C9.057,16.138 9.42,16.288 9.852,16.288 C10.284,16.288 10.65,16.135 10.95,15.829 C11.25,15.523 11.4,15.16 11.4,14.74 C11.4,14.32 11.25,13.96 10.95,13.66 C10.65,13.36 10.284,13.21 9.852,13.21 Z M10.428,3.256 C9.564,3.256 8.796,3.418 8.124,3.742 C7.536,4.0255 7.003125,4.41925 6.525375,4.92325 L6.324,5.146 L7.98,6.424 C8.628,5.668 9.36,5.29 10.176,5.29 C10.608,5.29 10.947,5.389 11.193,5.587 C11.439,5.785 11.562,6.07 11.562,6.442 C11.562,6.742 11.475,6.988 11.301,7.18 C11.127,7.372 10.848,7.594 10.464,7.846 C10.092,8.098 9.783,8.338 9.537,8.566 C9.291,8.794 9.081,9.1 8.907,9.484 C8.75785714,9.81314286 8.67263265,10.204 8.65132653,10.6565714 L8.646,10.888 L8.646,11.518 L11.004,11.518 L11.004,10.978 C11.004,10.546 11.121,10.195 11.355,9.925 C11.589,9.655 11.946,9.358 12.426,9.034 C12.822,8.758 13.14,8.515 13.38,8.305 C13.62,8.095 13.824,7.816 13.992,7.468 C14.16,7.12 14.244,6.7 14.244,6.208 C14.244,5.68 14.1,5.191 13.812,4.741 C13.524,4.291 13.092,3.931 12.516,3.661 C11.94,3.391 11.244,3.256 10.428,3.256 Z"></path>
</svg>