<svg viewBox="-2 -2 24 24" xmlns="http://www.w3.org/2000/svg" id="root">
    <path fill="currentColor" transform="translate(6.324000, 3.256000)" d="M3.528,9.954 C3.096,9.954 2.733,10.104 2.439,10.404 C2.145,10.704 1.998,11.064 1.998,11.484 C1.998,11.916 2.145,12.282 2.439,12.582 C2.733,12.882 3.096,13.032 3.528,13.032 C3.96,13.032 4.326,12.879 4.626,12.573 C4.926,12.267 5.076,11.904 5.076,11.484 C5.076,11.064 4.926,10.704 4.626,10.404 C4.326,10.104 3.96,9.954 3.528,9.954 Z M4.104,0 C3.24,0 2.472,0.162 1.8,0.486 C1.212,0.7695 0.679125,1.16325 0.201375,1.66725 L1.77635684e-15,1.89 L1.656,3.168 C2.304,2.412 3.036,2.034 3.852,2.034 C4.284,2.034 4.623,2.133 4.869,2.331 C5.115,2.529 5.238,2.814 5.238,3.186 C5.238,3.486 5.151,3.732 4.977,3.924 C4.803,4.116 4.524,4.338 4.14,4.59 C3.768,4.842 3.459,5.082 3.213,5.31 C2.967,5.538 2.757,5.844 2.583,6.228 C2.43385714,6.55714286 2.34863265,6.948 2.32732653,7.4005714 L2.322,7.632 L2.322,8.262 L4.68,8.262 L4.68,7.722 C4.68,7.29 4.797,6.939 5.031,6.669 C5.265,6.399 5.622,6.102 6.102,5.778 C6.498,5.502 6.816,5.259 7.056,5.049 C7.296,4.839 7.5,4.56 7.668,4.212 C7.836,3.864 7.92,3.444 7.92,2.952 C7.92,2.424 7.776,1.935 7.488,1.485 C7.2,1.035 6.768,0.675 6.192,0.405 C5.616,0.135 4.92,0 4.104,0 Z"></path>
</svg>