<svg viewBox="0 0 20 20" xmlns="http://www.w3.org/2000/svg" id="root">
	<path transform="translate(0, 0.8049)" d="M4.33524648,2.38045923 C6.62820423,4.10189937 9.09440141,7.59233599 10,9.46529373 C10.9055986,7.59233599 13.3717958,4.10189937 15.6647535,2.38045923 C17.3192254,1.1383631 20,0.177286691 20,3.23548387 C20,3.84623035 19.6498239,8.36620923 19.4444366,9.10008247 C18.7305282,11.6512444 16.1291197,12.3019487 13.8150352,11.9081106 C17.8599296,12.5965261 18.8888732,14.8768078 16.6666549,17.1570895 C12.4462324,21.4877937 10.6007394,16.070505 10.1278521,14.6824064 C10.041162,14.4279346 10.0005986,14.3088853 10,14.4101177 C9.99940141,14.3088853 9.95883803,14.4279346 9.87214789,14.6824064 C9.39926056,16.070505 7.55376761,21.4877937 3.33333451,17.1570895 C1.11111268,14.8768078 2.14006338,12.5965261 6.18496479,11.9081106 C3.87088028,12.3019487 1.26948944,11.6512444 0.555556338,9.10008247 C0.350184859,8.36620923 0,3.84623035 0,3.23548387 C0,0.177286691 2.68079225,1.1383631 4.33524648,2.38045923 Z" fill="currentColor" fill-rule="nonzero"></path>
</svg>