<svg viewBox="0 0 20 20" xmlns="http://www.w3.org/2000/svg" id="root">
  <path fill="currentColor" transform="translate(-2, -2)" d="M19.8571429,2 L4.14285714,2 C3.54761558,2.02976623 3.04166857,2.23808831 2.625,2.6249974 C2.2380933,3.04167273 2.02976206,3.54761558 2,4.14285714 L2,19.8571429 C2.02976206,20.4523844 2.2380933,20.9583314 2.625,21.375 C3.04166857,21.7619067 3.54761558,21.9702379 4.14285714,22 L10.2589288,22 L10.2589288,15.2142857 L7.44642909,15.2142857 L7.44642909,12 L10.2589288,12 L10.2589288,9.54464416 C10.2886909,8.17558442 10.6755917,7.11905455 11.4196426,6.3750026 C12.1636945,5.63095065 13.1755844,5.25892987 14.4553558,5.25892987 C15.0803636,5.25892987 15.6458286,5.28868571 16.1517818,5.34821818 C16.6279792,5.40774026 16.8809558,5.45238442 16.9107117,5.48214026 C16.9107117,5.48214026 16.9107117,5.48214026 16.9107117,5.48214026 L16.9107117,8.20536104 L15.5267844,8.20536104 C14.8422545,8.20536104 14.3660779,8.38392727 14.098213,8.74107013 C13.8303584,9.06845714 13.7113143,9.45535584 13.7410701,9.90178701 L13.7410701,12 L16.8214234,12 L16.3303584,15.2142857 L13.7410701,15.2142857 L13.7410701,22 L19.8571429,22 C20.4523844,21.9702379 20.9583273,21.7619067 21.3750026,21.375 C21.7619117,20.9583314 21.9702338,20.4523844 22,19.8571429 L22,4.14285714 C21.9702338,3.54761558 21.7619117,3.04167273 21.3750026,2.6249974 C20.9583273,2.23808831 20.4523844,2.02976623 19.8571429,2 Z"></path>
</svg>