<svg viewBox="0 0 20 20" xmlns="http://www.w3.org/2000/svg" id="root">
    <path fill="currentColor" transform="translate(-2, -2)" d="M20.5714286,2 L3.42857143,2 C3.01190265,2 2.66964416,2.13392208 2.40178577,2.40178701 C2.13392727,2.69940779 2,3.04166234 2,3.42857143 L2,20.5714286 C2,20.9583356 2.13392727,21.3005938 2.40178577,21.5982142 C2.66964416,21.8660727 3.01190265,22 3.42857143,22 L20.5714286,22 C20.9880935,22 21.3303584,21.8660727 21.598213,21.5982142 C21.8660779,21.3005938 22,20.9583356 22,20.5714286 L22,3.42857143 C22,3.04166234 21.8660779,2.69940779 21.598213,2.40178701 C21.3303584,2.13392208 20.9880935,2 20.5714286,2 Z M8.02678545,19.1428571 L5.0803574,19.1428571 L5.0803574,9.58928831 L8.07142857,9.58928831 L8.07142857,19.1428571 L8.02678545,19.1428571 Z M6.55357091,8.29463896 C6.0773787,8.29463896 5.67559688,8.13095065 5.34821403,7.80357403 L5.34821403,7.80357403 C5.02083221,7.47618701 4.85714286,7.07441039 4.85714286,6.59821299 C4.85714286,6.09225974 5.02083221,5.67559481 5.34821403,5.34821818 C5.67559688,5.02083117 6.0773787,4.85714286 6.55357091,4.85714286 C7.05952623,4.85714286 7.46130805,5.02083117 7.75892883,5.34821818 C8.08631065,5.67559481 8.26488104,6.09225974 8.29464312,6.59821299 C8.26488104,7.07441039 8.08631065,7.47618701 7.75892883,7.80357403 C7.46130805,8.13095065 7.05952623,8.29463896 6.55357091,8.29463896 Z M19.1428571,19.1428571 L16.196426,19.1428571 L16.196426,14.5 C16.2261922,13.9047584 16.1517818,13.3392883 15.9732156,12.8035719 C15.8244052,12.2976166 15.3779844,12.014881 14.6339325,11.9553569 C13.8898805,11.985119 13.3988156,12.2380925 13.1607169,12.7142857 C12.9523844,13.190479 12.8630961,13.7559491 12.8928623,14.4107138 L12.8928623,19.1428571 L9.90178597,19.1428571 L9.90178597,9.58928831 L12.7589299,9.58928831 L12.7589299,10.8839273 L12.803574,10.8839273 C12.9821403,10.4970182 13.3095169,10.1547636 13.7857143,9.85714286 C14.2619117,9.52975584 14.8720208,9.36606753 15.6160727,9.36606753 C17.0744104,9.39583377 18.0416623,9.82737662 18.5178597,10.6607169 C18.9940468,11.523813 19.2023792,12.6101122 19.1428571,13.9196426 L19.1428571,19.1428571 Z"></path>
</svg>