<svg viewBox="0 0 20 20" xmlns="http://www.w3.org/2000/svg" id="root">
	<path fill="currentColor" d="M19.4106138,4.42781588 C19.1183573,2.27889794 17.2249727,0.585405639 14.9805112,0.257251794 C14.6018445,0.201801281 13.1671266,0 9.84361379,0 L9.81879327,0 C6.49438303,0 5.78115226,0.201801281 5.4024856,0.257251794 C3.22051125,0.576315895 1.22788818,2.09800563 0.744435872,4.27235434 C0.511901375,5.34317485 0.48708536,6.53035434 0.530283565,7.61935433 C0.591863821,9.18104663 0.603812282,10.7399953 0.747193307,12.2953287 C0.846316384,13.3284569 1.01923433,14.3533543 1.26465228,15.3623287 C1.72420612,17.2258158 3.5844856,18.7765851 5.40707534,19.4092774 C7.35843431,20.0690722 9.45694712,20.1785851 11.4676907,19.7256107 C11.6888702,19.6747133 11.9076394,19.6156107 12.1239215,19.5483543 C12.6119728,19.3947389 13.1845881,19.2229184 13.6055369,18.9211235 C13.6113061,18.9168928 13.6160497,18.9114312 13.619383,18.9051235 C13.6227163,18.8988415 13.6245881,18.8918671 13.6248189,18.8847645 L13.6248189,17.3776363 C13.6247163,17.3709953 13.6231266,17.3644569 13.6201522,17.3585081 C13.6171522,17.3525594 13.6128702,17.3473287 13.6075625,17.3432517 C13.6022804,17.3391492 13.5961266,17.3362774 13.5895881,17.3348158 C13.583024,17.3333799 13.5762292,17.3334056 13.5696907,17.3348928 C12.2814343,17.6392517 10.9613061,17.7918158 9.63681892,17.7894056 C7.35743431,17.7894056 6.74438303,16.7195081 6.56881893,16.2740722 C6.42771636,15.8891235 6.33810098,15.4875851 6.30228047,15.0796364 C6.30192149,15.0727902 6.30320354,15.065944 6.30599842,15.059662 C6.30879329,15.0534056 6.31307534,15.0478671 6.31843431,15.0435338 C6.32381893,15.0392005 6.33015226,15.0361748 6.33692149,15.0347133 C6.34369072,15.0332261 6.35071636,15.0333799 6.35743431,15.0350979 C7.62422918,15.3373799 8.92281892,15.489944 10.2259728,15.4896107 C10.539383,15.4896107 10.8518702,15.4896107 11.1653061,15.4814312 C12.4759471,15.4450723 13.8573574,15.3787133 15.1468702,15.1296364 C15.1790497,15.1232774 15.2112035,15.1178158 15.2387933,15.1096364 C17.2727676,14.723303 19.2084086,13.5106876 19.4051009,10.440021 C19.4124599,10.3191236 19.4308445,9.17376458 19.4308445,9.04832869 C19.4317676,8.62199535 19.5696394,6.02404664 19.4106138,4.42781588 Z M16.2801266,12.0898928 L14.141383,12.0898928 L14.141383,6.90850818 C14.141383,5.81768767 13.6818189,5.26137998 12.7470753,5.26137998 C11.7195112,5.26137998 11.2048189,5.91950818 11.2048189,7.21937997 L11.2048189,10.0555082 L9.07892148,10.0555082 L9.07892148,7.21937997 C9.07892148,5.91950818 8.5633061,5.26137998 7.535742,5.26137998 C6.60651123,5.26137998 6.14235739,5.81768767 6.14143431,6.90850818 L6.14143431,12.0898928 L4.00451124,12.0898928 L4.00451124,6.75125177 C4.00451124,5.66043126 4.28607535,4.79384152 4.84917791,4.15145691 C5.4300497,3.51061076 6.19199842,3.18155948 7.13776764,3.18155948 C8.23240866,3.18155948 9.05961379,3.59786717 9.61107533,4.42963639 L10.1432548,5.31320049 L10.6763317,4.42963639 C11.2277933,3.59786717 12.0549984,3.18155948 13.1478189,3.18155948 C14.0926651,3.18155948 14.8545881,3.51061076 15.4373061,4.15145691 C16.0004343,4.79322614 16.2819727,5.65981588 16.2819727,6.75125177 L16.2801266,12.0898928 Z" fill-rule="nonzero"></path>
</svg>