<svg viewBox="0 0 20 20" xmlns="http://www.w3.org/2000/svg" id="root">
  <path fill="currentColor" transform="translate(-2, -2)" d="M12,6.86606753 C10.5416592,6.89583377 9.33631377,7.40177662 8.38392831,8.38392727 L8.38392831,8.38392727 C7.40178078,9.33631169 6.89583377,10.5416623 6.86607169,12 C6.89583377,13.4583408 7.40178078,14.6636852 8.38392831,15.6160717 C9.33631377,16.5982192 10.5416592,17.1041662 12,17.1339283 C13.4583377,17.1041662 14.6636883,16.5982192 15.6160727,15.6160717 C16.5982234,14.6636852 17.1041662,13.4583408 17.1339325,12 C17.1041662,10.5416623 16.5982234,9.33631169 15.6160727,8.38392727 C14.6636883,7.40177662 13.4583377,6.89583377 12,6.86606753 Z M12,15.348214 C11.0476145,15.3184519 10.2589319,14.9910743 9.63392831,14.3660717 L9.63392831,14.3660717 C9.00892571,13.7410681 8.68154805,12.9523855 8.65178597,12 C8.68154805,11.0476156 9.00892571,10.2589299 9.63392831,9.63393247 C10.2589319,9.00892468 11.0476145,8.68154805 12,8.65178182 C12.9523844,8.68154805 13.7410701,9.00892468 14.3660675,9.63393247 C14.9910753,10.2589299 15.3184519,11.0476156 15.3482182,12 C15.3184519,12.9523855 14.9910753,13.7410681 14.3660675,14.3660717 C13.7410701,14.9910743 12.9523844,15.3184519 12,15.348214 Z M18.5625039,6.64285714 C18.4732156,7.38690909 18.0714286,7.78868571 17.3571429,7.84821818 C16.6130909,7.78868571 16.2113143,7.38690909 16.1517818,6.64285714 C16.1517818,6.31547013 16.2708364,6.03273766 16.5089247,5.79463896 C16.7172675,5.58630649 17,5.48214026 17.3571429,5.48214026 C17.6845299,5.48214026 17.9672623,5.58630649 18.205361,5.79463896 C18.4136935,6.03273766 18.5327377,6.31547013 18.5625039,6.64285714 Z M21.9553558,7.89286234 C21.9553558,6.25594805 21.4047688,4.85715325 20.303574,3.69642597 C19.1428468,2.59523117 17.7589403,2.04464416 16.1517818,2.04464416 C15.5565403,2.01487792 14.7083429,2 13.6071481,2 C12.5357091,2 11.4642909,2 10.3928571,2 C9.2916613,2 8.45833662,2.01487792 7.89285714,2.04464416 C6.28570597,2.04464416 4.88691117,2.59523117 3.69642805,3.69642597 C2.59523262,4.85715325 2.05952366,6.24105974 2.08928571,7.84821818 C2.02976161,8.44345974 2,9.29165714 2,10.3928519 C2,11.4642909 2,12.5357091 2,13.6071429 C2,14.6785766 2.02976161,15.5119013 2.08928571,16.1071429 C2.05952366,17.7440561 2.59523262,19.1428509 3.69642805,20.3035719 C4.85714909,21.4047674 6.2559439,21.9404763 7.89285714,21.9107143 C8.45833662,21.9404763 9.2916613,21.9702379 10.3928571,22 C11.4642909,22 12.5357091,22 13.6071481,22 C14.7083429,21.9702379 15.5565403,21.9404763 16.1517818,21.9107143 C17.7589403,21.9404763 19.1428468,21.4047674 20.303574,20.3035719 C21.4047688,19.1428509 21.9553558,17.7440561 21.9553558,16.1071429 C21.9851221,15.5119013 22,14.6785766 22,13.6071429 C22,12.5357091 22,11.4642909 22,10.3928519 C22,9.29165714 21.9851221,8.44345974 21.9553558,7.84821818 L21.9553558,7.89286234 Z M19.8124987,17.8928571 C19.4255896,18.7857184 18.7857143,19.4255938 17.8928623,19.8124997 C17.2976208,20.0208343 16.4940571,20.1398805 15.4821403,20.1696426 C14.4702338,20.1994047 13.547626,20.2142857 12.7142857,20.2142857 C12.4464312,20.2142857 12.2083345,20.2142857 12,20.2142857 C11.7916655,20.2142857 11.553573,20.2142857 11.2857143,20.2142857 C10.4523771,20.2142857 9.52976727,20.1994047 8.51785766,20.1696426 C7.53570909,20.1398805 6.73214649,20.0208343 6.10714286,19.8124997 C5.21428156,19.4255938 4.57440623,18.7857184 4.18750026,17.8928571 C3.97916571,17.2678535 3.86011948,16.4642909 3.8303574,15.4821423 C3.80059532,14.4702327 3.78571429,13.5476229 3.78571429,12.7142857 C3.78571429,12.446427 3.78571429,12.2083345 3.78571429,12 C3.78571429,11.7916655 3.78571429,11.5535688 3.78571429,11.2857143 C3.78571429,10.452374 3.80059532,9.52976623 3.8303574,8.51785974 C3.86011948,7.50594286 3.97916571,6.70237922 4.18750026,6.10713766 C4.57440623,5.21428571 5.21428156,4.57441039 6.10714286,4.1875013 C6.73214649,3.97916883 7.53570909,3.86011429 8.51785766,3.83035844 C9.52976727,3.77083213 10.4523771,3.75594805 11.2857143,3.78571429 C11.553573,3.78571429 11.7916655,3.78571429 12,3.78571429 C12.2083345,3.78571429 12.4464312,3.78571429 12.7142857,3.78571429 C13.547626,3.78571429 14.4702338,3.80059221 15.4821403,3.83035844 C16.4940571,3.86011429 17.2976208,3.97916883 17.8928623,4.1875013 C18.7857143,4.57441039 19.4255896,5.21428571 19.8124987,6.10713766 C20.0208312,6.70237922 20.1398857,7.50594286 20.1696416,8.51785974 C20.2291679,9.52976623 20.2440519,10.452374 20.2142857,11.2857143 C20.2142857,11.5535688 20.2142857,11.7916655 20.2142857,12 C20.2142857,12.2083345 20.2142857,12.446427 20.2142857,12.7142857 C20.2440519,13.5476229 20.2291679,14.4702327 20.1696416,15.4821423 C20.1398857,16.494053 20.0208312,17.2976156 19.8124987,17.8928571 Z"></path>
</svg>