<svg viewBox="0 0 22 22" xmlns="http://www.w3.org/2000/svg" id="root">
    <path fill="currentColor" transform="translate(-1, -1)" d="M20.72266,7.46875 C20.7513,7.66927 20.76562,7.85547 20.76562,8.02734 L20.76562,8.02734 C20.76562,8.02734 20.76562,8.02734 20.76562,8.02734 C20.76562,10.06121 20.26433,12.052074 19.26172,14 C18.28776,15.947926 16.84116,17.5664 14.92188,18.855469 C13.03124,20.1445377 10.696628,20.8177081 7.917969,20.875 C5.339831,20.846354 3.033864,20.1731837 1,18.855469 C1.3437517,18.884115 1.7018211,18.898438 2.074219,18.898438 C4.222667,18.869792 6.09895,18.225267 7.703125,16.964844 C6.67187,16.936198 5.783858,16.63542 5.039062,16.0625 C4.294267,15.48958 3.778647,14.759119 3.492188,13.871094 C3.750001,13.89974 4.022134,13.914062 4.308594,13.914062 C4.738283,13.914062 5.139321,13.871094 5.511719,13.785156 C4.451818,13.555988 3.592451,13.040369 2.933594,12.238281 C2.274736,11.436194 1.9309897,10.47657 1.9023438,9.35938 L1.9023438,9.27344 C2.503909,9.61719 3.17708,9.81771 3.921875,9.875 C2.661452,8.98697 1.9882817,7.72657 1.9023438,6.09375 C1.9309897,5.26302 2.145831,4.50391 2.546875,3.81641 C3.664068,5.19141 5.024732,6.29427 6.628906,7.125 C8.204435,7.95573 9.937491,8.42838 11.82812,8.54297 C11.77083,8.19922 11.74219,7.85547 11.74219,7.51172 C11.77083,6.2513 12.20052,5.19141 13.03125,4.33203 C13.89063,3.47265 14.95051,3.02865 16.21094,3 C17.5573,3.02865 18.66015,3.5013 19.51953,4.41797 C20.55079,4.21745 21.51041,3.85938 22.39844,3.34375 C22.02604,4.40365 21.36719,5.23437 20.42188,5.83594 C21.3099,5.72135 22.16927,5.47787 23,5.10547 C22.36979,6.02214 21.61068,6.80989 20.72266,7.46875 Z"></path>
</svg>