<svg viewBox="0 0 22 16" xmlns="http://www.w3.org/2000/svg" id="root">
  <path fill="currentColor" transform="translate(-1, -4)" d="M9.72940885,14.582589 L15.6713739,11.513393 L9.72940885,8.40737 L9.72940885,14.582589 Z M12.0006139,4 C13.3756239,4 14.7035439,4.01841 15.9844339,4.05525 C17.2653139,4.09208 18.2044839,4.13095 18.8019539,4.17188 L19.6981539,4.22098 C19.7063439,4.22098 19.7759139,4.22712 19.9068639,4.2394 C20.0378139,4.25167 20.1319339,4.26395 20.1892339,4.27623 C20.2465239,4.2885 20.3426939,4.30692 20.4777339,4.33147 C20.6127839,4.35603 20.7294039,4.38876 20.8276239,4.42969 C20.9258339,4.47061 21.0404239,4.52381 21.1713739,4.58929 C21.3023239,4.65476 21.4291839,4.73456 21.5519539,4.82868 C21.6747239,4.92281 21.7933939,5.03125 21.9079839,5.15402 C21.9570839,5.20313 22.0205139,5.27883 22.0982739,5.38114 C22.1760239,5.48345 22.2946939,5.72284 22.4542939,6.09933 C22.6138939,6.47582 22.7223439,6.88913 22.7796339,7.33929 C22.8451039,7.8631 22.8962639,8.42169 22.9330939,9.01507 C22.9699239,9.608448 22.9924339,10.072915 23.0006139,10.408482 L23.0006139,10.899554 L23.0006139,12.569196 C23.0087939,13.755958 22.9351339,14.942702 22.7796339,16.129464 C22.7223439,16.579615 22.6200339,16.986791 22.4727139,17.351004 C22.3253939,17.715218 22.1944339,17.966889 22.0798539,18.106027 L21.9079839,18.314732 C21.7933939,18.437501 21.6747239,18.5459445 21.5519539,18.640067 C21.4291839,18.7341895 21.3023239,18.8119417 21.1713739,18.8733259 C21.0404239,18.9347101 20.9258339,18.9858629 20.8276239,19.0267857 C20.7294039,19.0677085 20.6127839,19.1004463 20.4777339,19.125 C20.3426939,19.1495537 20.2444739,19.1679687 20.1830939,19.1802455 C20.1217039,19.1925224 20.0275839,19.204799 19.9007239,19.2170759 C19.7738639,19.2293527 19.7063439,19.2354911 19.6981539,19.2354911 C17.6438339,19.3909978 15.0780139,19.46875 12.0006139,19.46875 C10.3064089,19.4523809 8.83525585,19.4257814 7.58710985,19.3889509 C6.33896285,19.3521204 5.51847285,19.3214287 5.12561385,19.296875 L4.52405185,19.2477679 L4.08208685,19.1986607 C3.78744285,19.1577379 3.56441685,19.1168157 3.41300185,19.0758929 C3.26158785,19.03497 3.05288485,18.9490334 2.78688585,18.8180804 C2.52088785,18.6871273 2.28967685,18.5193463 2.09324785,18.314732 C2.04414085,18.265625 1.98071095,18.189919 1.90295765,18.087612 C1.82520425,17.985305 1.70652985,17.74591 1.54693085,17.36942 C1.38733185,16.99293 1.27888795,16.579615 1.22159595,16.129464 C1.15611945,15.605652 1.10496675,15.047064 1.06813617,14.453683 C1.03130563,13.860302 1.00879842,13.395835 1.00061385,13.060268 L1.00061385,12.569196 L1.00061385,10.899554 C0.992429285,9.712792 1.06608926,8.52605 1.22159595,7.33929 C1.27888795,6.88913 1.38119345,6.48196 1.52851565,6.11775 C1.67583785,5.75353 1.80678885,5.50186 1.92137275,5.36272 L2.09324785,5.15402 C2.20783185,5.03125 2.32650585,4.92281 2.44927485,4.82868 C2.57204285,4.73456 2.69890185,4.65476 2.82985485,4.58929 C2.96080785,4.52381 3.07538985,4.47061 3.17360485,4.42969 C3.27181985,4.38876 3.38844785,4.35603 3.52349285,4.33147 C3.65853885,4.30692 3.75470585,4.2885 3.81199785,4.27623 C3.86928985,4.26395 3.96341085,4.25167 4.09436385,4.2394 C4.22531685,4.22712 4.29488485,4.22098 4.30306885,4.22098 C6.35739485,4.07366 8.92321785,4 12.0006139,4 Z"></path>
</svg>