<svg viewBox="0 0 18 22" xmlns="http://www.w3.org/2000/svg" id="root">
  <path transform="translate(-3, -1)" fill="currentColor" d="M15,13.75 C17.8994949,13.75 20.25,16.1005051 20.25,19 L20.25,21 C20.25,21.6903559 19.6903559,22.25 19,22.25 C18.3096441,22.25 17.75,21.6903559 17.75,21 L17.75,19 C17.75,17.4812169 16.5187831,16.25 15,16.25 L9,16.25 C7.48121694,16.25 6.25,17.4812169 6.25,19 L6.25,21 C6.25,21.6903559 5.69035594,22.25 5,22.25 C4.30964406,22.25 3.75,21.6903559 3.75,21 L3.75,19 C3.75,16.1005051 6.10050506,13.75 9,13.75 L15,13.75 Z M12,1.75 C14.8994949,1.75 17.25,4.10050506 17.25,7 C17.25,9.89949494 14.8994949,12.25 12,12.25 C9.10050506,12.25 6.75,9.89949494 6.75,7 C6.75,4.10050506 9.10050506,1.75 12,1.75 Z M12,4.25 C10.4812169,4.25 9.25,5.48121694 9.25,7 C9.25,8.51878306 10.4812169,9.75 12,9.75 C13.5187831,9.75 14.75,8.51878306 14.75,7 C14.75,5.48121694 13.5187831,4.25 12,4.25 Z"></path>
</svg>