
<svg viewBox="0 0 24 24" xmlns="http://www.w3.org/2000/svg" id="root">
    <path fill="currentColor" transform="translate(2.75, 3)" d="M11.5,10.0625 C13.6746212,10.0625 15.4375,11.8253788 15.4375,14 L15.4375,15.5 C15.4375,16.017767 15.017767,16.4375 14.5,16.4375 C13.982233,16.4375 13.5625,16.017767 13.5625,15.5 L13.5625,14 C13.5625,12.8609127 12.6390873,11.9375 11.5,11.9375 L7,11.9375 C5.8609127,11.9375 4.9375,12.8609127 4.9375,14 L4.9375,15.5 C4.9375,16.017767 4.51776695,16.4375 4,16.4375 C3.48223305,16.4375 3.0625,16.017767 3.0625,15.5 L3.0625,14 C3.0625,11.8253788 4.8253788,10.0625 7,10.0625 L11.5,10.0625 Z M9.25,1.0625 C11.4246212,1.0625 13.1875,2.8253788 13.1875,5 C13.1875,7.1746212 11.4246212,8.9375 9.25,8.9375 C7.0753788,8.9375 5.3125,7.1746212 5.3125,5 C5.3125,2.8253788 7.0753788,1.0625 9.25,1.0625 Z M9.25,2.9375 C8.1109127,2.9375 7.1875,3.8609127 7.1875,5 C7.1875,6.1390873 8.1109127,7.0625 9.25,7.0625 C10.3890873,7.0625 11.3125,6.1390873 11.3125,5 C11.3125,3.8609127 10.3890873,2.9375 9.25,2.9375 Z"></path>
</svg>