<?xml version="1.0" encoding="UTF-8"?>
<svg width="123px" height="22px" viewBox="0 0 123 22" version="1.1" xmlns="http://www.w3.org/2000/svg" xmlns:xlink="http://www.w3.org/1999/xlink" id="root">
    <title>ProDemos / Logo</title>
    <g stroke="none" stroke-width="1" fill="#D60D41" fill-rule="evenodd">
        <path d="M16.9268519,20.6636872 C16.4181287,20.6636872 16,20.2456859 16,19.738175 L16,6.47945376 C16,5.97194289 16.4181287,5.55394165 16.9268519,5.55394165 L17.79534,5.55394165 C18.3345518,5.55394165 18.8127865,5.94239603 18.9025099,6.44990689 L19.1124454,7.46492862 C20.1298918,6.15183116 21.4774857,5.28541279 23.0637614,5.28541279 C23.2127197,5.28541279 23.3930377,5.28541279 23.541996,5.31582868 C23.7519315,5.34537554 23.9017609,5.49484792 23.9017609,5.79292365 L23.5123786,8.24183737 C23.4827611,8.5399131 23.1831023,8.74934823 22.8538259,8.68938547 C22.674379,8.65983861 22.4348261,8.63029174 22.1952733,8.63029174 C21.0279974,8.63029174 20.2797212,8.98833023 19.4112331,9.73482309 L19.4112331,19.738175 C19.4112331,20.2456859 18.9931045,20.6636872 18.4843812,20.6636872 L16.9268519,20.6636872" id="Fill-2"></path>
        <path d="M32.3418625,18.4841713 C34.3175205,18.4841713 35.0657967,17.3492241 35.0657967,13.078833 C35.0657967,8.74934823 34.287032,7.73432651 32.3122451,7.73432651 C30.335716,7.73432651 29.588311,8.7788951 29.588311,13.1092489 C29.588311,17.3787709 30.3662045,18.4841713 32.3418625,18.4841713 Z M32.3418625,21.0521415 C28.420164,21.0521415 25.9662713,18.7527002 25.9662713,13.078833 C25.9662713,7.37541899 28.3905465,5.1663563 32.3122451,5.1663563 C36.2322014,5.1663563 38.7174538,7.43538175 38.7174538,13.1092489 C38.7174538,18.7831161 36.26269,21.0521415 32.3418625,21.0521415 L32.3418625,21.0521415 Z" id="Fill-4"></path>
        <path d="M46.0495144,17.5882061 L48.4737896,17.5882061 C51.6768295,17.5882061 52.6350411,16.0361266 52.6350411,10.1528243 C52.6350411,4.59888268 51.706447,3.0459342 48.4737896,3.0459342 L46.0495144,3.0459342 L46.0495144,17.5882061 Z M43.3560688,20.6636872 C42.8464745,20.6636872 42.4274747,20.2456859 42.4274747,19.738175 L42.4274747,0.925512104 C42.4274747,0.418001241 42.8464745,0 43.3560688,0 L48.4145547,0 C53.8615519,0 56.5558685,2.5983861 56.5558685,10.3022967 C56.5558685,17.6777157 54.3110402,20.6636872 48.5635131,20.6636872 L43.3560688,20.6636872 L43.3560688,20.6636872 Z" id="Fill-5"></path>
        <path d="M65.8034811,7.70391061 C64.2764404,7.70391061 63.4689294,8.48081937 63.2894825,11.6458101 L68.2582449,11.6458101 C68.2277564,8.71980137 67.6885446,7.70391061 65.8034811,7.70391061 Z M66.4019278,21.0521415 C61.8826537,21.0521415 59.6378253,18.7527002 59.6378253,13.078833 C59.6378253,7.34587213 61.9723771,5.1663563 65.7738637,5.1663563 C69.8445206,5.1663563 71.7600726,7.43538175 71.7600726,12.9606456 L71.7600726,13.5272502 C71.7600726,13.8261949 71.5205197,14.0651769 71.2513494,14.0651769 L63.2589939,14.0651769 C63.3792059,17.5282433 64.2172055,18.3051521 66.3723104,18.3051521 C67.5090977,18.3051521 68.3470973,17.9766605 69.0962445,17.4986965 C69.5152443,17.2301676 70.114562,17.3492241 70.3828613,17.7672253 L70.9516905,18.5736809 C71.2513494,18.9916822 71.1320085,19.5591558 70.7121376,19.8572315 C69.5448617,20.6037244 68.1981389,21.0521415 66.4019278,21.0521415 L66.4019278,21.0521415 Z" id="Fill-6"></path>
        <path d="M103.665033,18.4841713 C105.641562,18.4841713 106.388967,17.3492241 106.388967,13.078833 C106.388967,8.74934823 105.611074,7.73432651 103.635416,7.73432651 C101.659758,7.73432651 100.911481,8.7788951 100.911481,13.1092489 C100.911481,17.3787709 101.690246,18.4841713 103.665033,18.4841713 Z M103.665033,21.0521415 C99.7442055,21.0521415 97.2903129,18.7527002 97.2903129,13.078833 C97.2903129,7.37541899 99.7145881,5.1663563 103.635416,5.1663563 C107.557114,5.1663563 110.040624,7.43538175 110.040624,13.1092489 C110.040624,18.7831161 107.586732,21.0521415 103.665033,21.0521415 L103.665033,21.0521415 Z" id="Fill-7"></path>
        <path d="M117.552132,21.0521415 C115.786409,21.0521415 114.201005,20.5741775 113.062475,20.0067039 C112.583369,19.7685909 112.403922,19.2002483 112.614729,18.7527002 L113.032858,17.8862818 C113.242793,17.4091868 113.811622,17.2301676 114.26024,17.4682806 C115.188834,17.9471136 116.175792,18.2451893 117.253344,18.2451893 C118.989449,18.2451893 119.618384,17.6481688 119.618384,16.4532588 C119.618384,15.0801986 118.899726,14.8108007 116.715003,14.2137803 C114.619133,13.6463066 113.00324,12.4218498 113.00324,9.52538796 C113.00324,6.92787089 114.649622,5.1663563 117.942385,5.1663563 C119.468555,5.1663563 120.546107,5.37492241 121.533936,5.73382992 C122.013042,5.94239603 122.252595,6.47945376 122.073148,6.95741775 L121.743001,7.82383613 C121.563554,8.30180012 121.025213,8.5399131 120.575725,8.36089385 C119.797831,8.06281813 119.079173,7.94289261 118.211556,7.94289261 C116.924068,7.94289261 116.265515,8.42085661 116.265515,9.46629423 C116.265515,10.6603352 116.804727,10.9297331 118.690661,11.4363749 C121.025213,12.0638113 123,12.9901924 123,16.3037865 C123,19.4392303 121.234277,21.0521415 117.552132,21.0521415" id="Fill-8"></path>
        <path d="M3.62462281,10.0142569 L6.20056327,10.0142569 C8.26654597,10.0142569 9.22544089,9.22558668 9.22544089,6.61582135 C9.22544089,3.91420641 8.32669483,3.09550845 6.23020184,3.09550845 L3.62462281,3.09550845 L3.62462281,10.0142569 Z M0.928384631,21 C0.419298599,21 0,20.5751956 0,20.0594247 L0,0.940575322 C0,0.424804441 0.419298599,0 0.928384631,0 L6.05062697,0 C10.6036344,0 13,1.91206157 13,6.37294979 C13,10.5 11.3524442,13.0497098 6.4097767,13.0497098 L3.62462281,13.0497098 L3.62462281,20.0594247 C3.62462281,20.5751956 3.20445249,21 2.69536646,21 L0.928384631,21 L0.928384631,21 Z" id="Fill-1"></path>
        <g id="M" transform="translate(75.000000, 5.000000)">
            <path d="M0,5 L0,15.0451545 C0,15.5687505 0.369160071,16 0.816441154,16 L2.18509063,16 C2.63237171,16 3,15.5687505 3,15.0451545 L3,5 L0,5" id="Fill-10"></path>
            <path d="M8,5 L8,15.0451545 C8,15.5687505 8.36839418,16 8.81644115,16 L10.1843247,16 C10.6316058,16 11,15.5687505 11,15.0451545 L11,5 L8,5" id="Fill-11"></path>
            <path d="M16,5 L16,15.0451545 C16,15.5687505 16.3690658,16 16.8162328,16 L18.1845329,16 C18.6316998,16 19,15.5687505 19,15.0451545 L19,5 L16,5" id="Fill-12"></path>
            <polygon id="Fill-13" points="0 3 19 3 19 0 0 0"></polygon>
        </g>
    </g>
</svg>