<?xml version="1.0" encoding="UTF-8"?>
<svg width="402px" height="25px" viewBox="0 0 402 25" version="1.1" xmlns="http://www.w3.org/2000/svg" xmlns:xlink="http://www.w3.org/1999/xlink"  id="root">
    <title>ProDemos / Logo Payoff</title>
    <g stroke="none" stroke-width="1" fill="none" fill-rule="evenodd">
        <path d="M145.384,21 L145.384,19.64 L144.456,19.592 L144.456,16.36 L148.984,16.36 L148.984,19.128 C148.984,19.32 148.946667,19.4506667 148.872,19.52 C148.797333,19.5893333 148.68,19.6346667 148.52,19.656 L148.52,19.656 L147.992,19.704 L147.992,21 L151.864,21 L151.864,19.64 L150.952,19.592 L150.952,12.216 C150.952,11.9066667 151.106667,11.736 151.416,11.704 L151.416,11.704 L151.944,11.656 L151.944,10.36 L148.072,10.36 L148.072,11.72 L148.984,11.768 L148.984,14.712 L144.456,14.712 L144.456,12.232 C144.456,12.04 144.493333,11.9093333 144.568,11.84 C144.642667,11.7706667 144.765333,11.7253333 144.936,11.704 L144.936,11.704 L145.464,11.656 L145.464,10.36 L141.592,10.36 L141.592,11.72 L142.504,11.768 L142.504,19.208 C142.504,19.4746667 142.349333,19.624 142.04,19.656 L142.04,19.656 L141.512,19.704 L141.512,21 L145.384,21 Z M156.216,21.208 C157.357333,21.208 158.221333,20.792 158.808,19.96 L158.808,19.96 L158.808,21 L161.4,21 L161.4,19.736 L160.84,19.688 C160.68,19.6666667 160.573333,19.6266667 160.52,19.568 C160.466667,19.5093333 160.44,19.3946667 160.44,19.224 L160.44,19.224 L160.44,12.952 L157.624,12.952 L157.624,14.264 L158.136,14.296 C158.285333,14.3066667 158.389333,14.3466667 158.448,14.416 C158.506667,14.4853333 158.536,14.6053333 158.536,14.776 L158.536,14.776 L158.536,18.152 C158.536,18.5893333 158.384,18.9626667 158.08,19.272 C157.776,19.5813333 157.373333,19.736 156.872,19.736 C156.370667,19.736 156.04,19.592 155.88,19.304 C155.72,19.016 155.64,18.5893333 155.64,18.024 L155.64,18.024 L155.64,12.952 L152.824,12.952 L152.824,14.264 L153.336,14.296 C153.602667,14.3066667 153.736,14.456 153.736,14.744 L153.736,14.744 L153.736,18.44 C153.736,20.2853333 154.562667,21.208 156.216,21.208 Z M164.136,11.896 C164.498667,11.896 164.794667,11.7866667 165.024,11.568 C165.253333,11.3493333 165.368,11.0693333 165.368,10.728 C165.368,10.3866667 165.253333,10.1013333 165.024,9.872 C164.794667,9.64266667 164.498667,9.528 164.136,9.528 C163.773333,9.528 163.48,9.64266667 163.256,9.872 C163.032,10.1013333 162.92,10.3866667 162.92,10.728 C162.92,11.0693333 163.032,11.352 163.256,11.576 C163.48,11.7893333 163.773333,11.896 164.136,11.896 Z M166.184,21 L166.184,19.72 L165.272,19.672 L165.272,12.952 L162.408,12.952 L162.408,14.28 L162.968,14.312 C163.117333,14.312 163.221333,14.344 163.28,14.408 C163.338667,14.472 163.368,14.5946667 163.368,14.776 L163.368,14.776 L163.368,19.224 C163.368,19.5333333 163.213333,19.704 162.904,19.736 L162.904,19.736 L162.376,19.784 L162.376,21 L166.184,21 Z M170.232,21.208 C171.128,21.208 171.866667,20.9813333 172.448,20.528 C173.029333,20.0746667 173.32,19.448 173.32,18.648 C173.32,18.0293333 173.133333,17.5226667 172.76,17.128 C172.621333,16.968 172.416,16.8186667 172.144,16.68 C171.872,16.5413333 171.645333,16.4426667 171.464,16.384 C171.282667,16.3253333 171.005333,16.2453333 170.632,16.144 C170.258667,16.0426667 169.938667,15.9226667 169.672,15.784 C169.501333,15.688 169.376,15.5733333 169.296,15.44 C169.216,15.3066667 169.176,15.12 169.176,14.88 C169.176,14.64 169.285333,14.4373333 169.504,14.272 C169.722667,14.1066667 170.013333,14.024 170.376,14.024 C170.738667,14.024 171.048,14.072 171.304,14.168 C171.549333,14.264 171.672,14.4453333 171.672,14.712 L171.672,14.712 L171.672,15.384 L173.112,15.272 L173.112,13.352 C172.237333,12.9253333 171.354667,12.712 170.464,12.712 C169.573333,12.712 168.834667,12.936 168.248,13.384 C167.661333,13.832 167.368,14.4693333 167.368,15.296 C167.368,16.1226667 167.64,16.712 168.184,17.064 C168.461333,17.2346667 168.714667,17.3653333 168.944,17.456 C169.173333,17.5466667 169.386667,17.6186667 169.584,17.672 C169.781333,17.7253333 169.984,17.7786667 170.192,17.832 C170.4,17.8853333 170.578667,17.9386667 170.728,17.992 C170.877333,18.0453333 171.029333,18.1466667 171.184,18.296 C171.338667,18.4453333 171.416,18.6373333 171.416,18.872 C171.416,19.5226667 170.968,19.848 170.072,19.848 C169.176,19.848 168.728,19.6133333 168.728,19.144 L168.728,19.144 L168.728,18.376 L167.288,18.488 L167.288,20.712 C167.949333,21.0426667 168.930667,21.208 170.232,21.208 Z M182.776,21 L184.84,14.616 C184.914667,14.3813333 185.058667,14.2533333 185.272,14.232 L185.272,14.232 L185.768,14.2 L185.768,12.952 L182.392,12.952 L182.392,14.232 L183.224,14.28 L181.624,19.544 L181.592,19.544 L179.944,14.28 L180.92,14.232 L180.92,12.952 L177.16,12.952 L177.16,14.2 L177.624,14.232 C177.762667,14.2426667 177.861333,14.2746667 177.92,14.328 C177.978667,14.3813333 178.034667,14.4826667 178.088,14.632 L178.088,14.632 L180.328,21 L182.776,21 Z M190.016,21.24 C191.130667,21.24 192.045333,20.8613333 192.76,20.104 C193.474667,19.3466667 193.832,18.232 193.832,16.76 C193.832,16.056 193.744,15.4453333 193.568,14.928 C193.392,14.4106667 193.178667,14.016 192.928,13.744 C192.677333,13.472 192.330667,13.232 191.888,13.024 C191.445333,12.816 190.904,12.712 190.264,12.712 C189.346667,12.712 188.509333,13 187.752,13.576 C187.357333,13.8853333 187.042667,14.3306667 186.808,14.912 C186.573333,15.4933333 186.456,16.1786667 186.456,16.968 C186.456,18.376 186.770667,19.44 187.4,20.16 C188.029333,20.88 188.901333,21.24 190.016,21.24 Z M190.136,19.832 C189.773333,19.832 189.469333,19.7466667 189.224,19.576 C188.669333,19.192 188.392,18.248 188.392,16.744 C188.392,15.9333333 188.536,15.2933333 188.824,14.824 C189.112,14.3546667 189.562667,14.12 190.176,14.12 C190.789333,14.12 191.226667,14.3653333 191.488,14.856 C191.749333,15.3466667 191.88,16.0666667 191.88,17.016 C191.88,18.8933333 191.298667,19.832 190.136,19.832 Z M198.464,21.24 C199.578667,21.24 200.493333,20.8613333 201.208,20.104 C201.922667,19.3466667 202.28,18.232 202.28,16.76 C202.28,16.056 202.192,15.4453333 202.016,14.928 C201.84,14.4106667 201.626667,14.016 201.376,13.744 C201.125333,13.472 200.778667,13.232 200.336,13.024 C199.893333,12.816 199.352,12.712 198.712,12.712 C197.794667,12.712 196.957333,13 196.2,13.576 C195.805333,13.8853333 195.490667,14.3306667 195.256,14.912 C195.021333,15.4933333 194.904,16.1786667 194.904,16.968 C194.904,18.376 195.218667,19.44 195.848,20.16 C196.477333,20.88 197.349333,21.24 198.464,21.24 Z M198.584,19.832 C198.221333,19.832 197.917333,19.7466667 197.672,19.576 C197.117333,19.192 196.84,18.248 196.84,16.744 C196.84,15.9333333 196.984,15.2933333 197.272,14.824 C197.56,14.3546667 198.010667,14.12 198.624,14.12 C199.237333,14.12 199.674667,14.3653333 199.936,14.856 C200.197333,15.3466667 200.328,16.0666667 200.328,17.016 C200.328,18.8933333 199.746667,19.832 198.584,19.832 Z M207.64,21 L207.64,19.736 L206.248,19.672 L206.248,15.96 C206.248,15.4906667 206.384,15.104 206.656,14.8 C206.928,14.496 207.277333,14.344 207.704,14.344 C207.874667,14.344 208.018667,14.3706667 208.136,14.424 C208.242667,14.4773333 208.296,14.6106667 208.296,14.824 L208.296,14.824 L208.296,15.56 L209.784,15.448 L209.784,13.064 C209.304,12.8293333 208.8,12.712 208.272,12.712 C207.744,12.712 207.277333,12.848 206.872,13.12 C206.466667,13.392 206.168,13.736 205.976,14.152 L205.976,14.152 L205.976,12.952 L203.272,12.952 L203.272,14.248 L203.944,14.296 C204.093333,14.3066667 204.197333,14.3466667 204.256,14.416 C204.314667,14.4853333 204.344,14.6053333 204.344,14.776 L204.344,14.776 L204.344,19.208 C204.344,19.4 204.306667,19.5306667 204.232,19.6 C204.157333,19.6693333 204.04,19.7146667 203.88,19.736 L203.88,19.736 L203.352,19.784 L203.352,21 L207.64,21 Z M217.288,21.208 C218.258667,21.208 218.984,20.8186667 219.464,20.04 L219.464,20.04 L219.512,20.056 L219.512,21 L222.104,21 L222.104,19.72 L221.544,19.688 C221.288,19.688 221.154667,19.5653333 221.144,19.32 L221.144,19.32 L221.144,9.592 L218.168,9.592 L218.168,10.856 L218.856,10.904 C219.133333,10.9253333 219.272,11.0533333 219.272,11.288 L219.272,11.288 L219.272,12.904 C218.856,12.776 218.418667,12.712 217.96,12.712 C216.733333,12.712 215.776,13.128 215.088,13.96 C214.4,14.792 214.056,15.9013333 214.056,17.288 C214.056,18.3546667 214.28,19.256 214.728,19.992 C215.218667,20.8026667 216.072,21.208 217.288,21.208 Z M217.752,19.8 C216.6,19.8 216.024,18.904 216.024,17.112 C216.024,16.2373333 216.186667,15.5173333 216.512,14.952 C216.837333,14.3866667 217.352,14.104 218.056,14.104 C218.482667,14.104 218.888,14.1893333 219.272,14.36 L219.272,14.36 L219.272,18.504 C219.272,18.8666667 219.128,19.1733333 218.84,19.424 C218.552,19.6746667 218.189333,19.8 217.752,19.8 Z M226.872,21.208 C227.522667,21.208 228.101333,21.1066667 228.608,20.904 C229.114667,20.7013333 229.474667,20.504 229.688,20.312 L229.688,20.312 L229.08,19.016 C228.418667,19.4853333 227.757333,19.72 227.096,19.72 C226.434667,19.72 225.944,19.5466667 225.624,19.2 C225.304,18.8533333 225.128,18.3973333 225.096,17.832 C225.992,17.832 226.797333,17.7253333 227.512,17.512 C227.938667,17.384 228.301333,17.2186667 228.6,17.016 C228.898667,16.8133333 229.149333,16.5333333 229.352,16.176 C229.554667,15.8186667 229.656,15.4053333 229.656,14.936 C229.656,14.232 229.421333,13.6853333 228.952,13.296 C228.482667,12.9066667 227.848,12.712 227.048,12.712 C225.8,12.712 224.829333,13.1386667 224.136,13.992 C223.442667,14.8453333 223.096,15.9013333 223.096,17.16 C223.096,18.4186667 223.4,19.408 224.008,20.128 C224.616,20.848 225.570667,21.208 226.872,21.208 Z M225.032,16.488 C225.064,15.8266667 225.24,15.2586667 225.56,14.784 C225.88,14.3093333 226.338667,14.072 226.936,14.072 C227.576,14.072 227.896,14.3973333 227.896,15.048 C227.896,15.3786667 227.730667,15.664 227.4,15.904 C227.069333,16.144 226.706667,16.3013333 226.312,16.376 C225.928,16.44 225.501333,16.4773333 225.032,16.488 Z M234.52,21 L234.52,19.72 L233.656,19.672 L233.656,15.8 C233.656,15.3413333 233.784,14.9573333 234.04,14.648 C234.296,14.3386667 234.672,14.184 235.168,14.184 C235.664,14.184 235.978667,14.3253333 236.112,14.608 C236.245333,14.8906667 236.312,15.3253333 236.312,15.912 L236.312,15.912 L236.312,19.208 C236.312,19.4 236.274667,19.5306667 236.2,19.6 C236.125333,19.6693333 236.008,19.7146667 235.848,19.736 L235.848,19.736 L235.32,19.784 L235.32,21 L239.096,21 L239.096,19.72 L238.216,19.672 L238.216,15.832 C238.216,15.3306667 238.346667,14.9306667 238.608,14.632 C238.869333,14.3333333 239.245333,14.184 239.736,14.184 C240.226667,14.184 240.538667,14.3253333 240.672,14.608 C240.805333,14.8906667 240.872,15.3253333 240.872,15.912 L240.872,15.912 L240.872,19.224 C240.861333,19.4053333 240.821333,19.5306667 240.752,19.6 C240.682667,19.6693333 240.568,19.7146667 240.408,19.736 L240.408,19.736 L239.88,19.784 L239.88,21 L243.688,21 L243.688,19.72 L242.776,19.672 L242.776,15.496 C242.776,14.568 242.568,13.872 242.152,13.408 C241.736,12.944 241.144,12.712 240.376,12.712 C239.352,12.712 238.541333,13.1386667 237.944,13.992 C237.581333,13.1386667 236.88,12.712 235.84,12.712 C234.8,12.712 233.981333,13.1386667 233.384,13.992 L233.384,13.992 L233.384,12.952 L230.68,12.952 L230.68,14.248 L231.352,14.296 C231.501333,14.3066667 231.605333,14.3466667 231.664,14.416 C231.722667,14.4853333 231.752,14.6106667 231.752,14.792 L231.752,14.792 L231.752,19.208 L231.736,19.208 C231.736,19.4 231.698667,19.5306667 231.624,19.6 C231.549333,19.6693333 231.432,19.7146667 231.272,19.736 L231.272,19.736 L230.744,19.784 L230.744,21 L234.52,21 Z M248.192,21.24 C249.306667,21.24 250.221333,20.8613333 250.936,20.104 C251.650667,19.3466667 252.008,18.232 252.008,16.76 C252.008,16.056 251.92,15.4453333 251.744,14.928 C251.568,14.4106667 251.354667,14.016 251.104,13.744 C250.853333,13.472 250.506667,13.232 250.064,13.024 C249.621333,12.816 249.08,12.712 248.44,12.712 C247.522667,12.712 246.685333,13 245.928,13.576 C245.533333,13.8853333 245.218667,14.3306667 244.984,14.912 C244.749333,15.4933333 244.632,16.1786667 244.632,16.968 C244.632,18.376 244.946667,19.44 245.576,20.16 C246.205333,20.88 247.077333,21.24 248.192,21.24 Z M248.312,19.832 C247.949333,19.832 247.645333,19.7466667 247.4,19.576 C246.845333,19.192 246.568,18.248 246.568,16.744 C246.568,15.9333333 246.712,15.2933333 247,14.824 C247.288,14.3546667 247.738667,14.12 248.352,14.12 C248.965333,14.12 249.402667,14.3653333 249.664,14.856 C249.925333,15.3466667 250.056,16.0666667 250.056,17.016 C250.056,18.8933333 249.474667,19.832 248.312,19.832 Z M256.76,21.224 C257.901333,21.224 258.850667,20.9146667 259.608,20.296 L259.608,20.296 L258.92,19.064 C258.290667,19.5226667 257.653333,19.752 257.008,19.752 C256.362667,19.752 255.869333,19.5013333 255.528,19 C255.186667,18.4986667 255.016,17.7946667 255.016,16.888 C255.016,15.064 255.661333,14.152 256.952,14.152 C257.176,14.152 257.392,14.1866667 257.6,14.256 C257.808,14.3253333 257.912,14.504 257.912,14.792 L257.912,14.792 L257.912,15.56 L259.384,15.448 L259.384,13.368 C258.573333,12.9306667 257.696,12.712 256.752,12.712 C255.808,12.712 254.96,13.0666667 254.208,13.776 C253.456,14.4853333 253.08,15.544 253.08,16.952 C253.08,18.36 253.408,19.424 254.064,20.144 C254.72,20.864 255.618667,21.224 256.76,21.224 Z M264.904,21 L264.904,19.736 L263.512,19.672 L263.512,15.96 C263.512,15.4906667 263.648,15.104 263.92,14.8 C264.192,14.496 264.541333,14.344 264.968,14.344 C265.138667,14.344 265.282667,14.3706667 265.4,14.424 C265.506667,14.4773333 265.56,14.6106667 265.56,14.824 L265.56,14.824 L265.56,15.56 L267.048,15.448 L267.048,13.064 C266.568,12.8293333 266.064,12.712 265.536,12.712 C265.008,12.712 264.541333,12.848 264.136,13.12 C263.730667,13.392 263.432,13.736 263.24,14.152 L263.24,14.152 L263.24,12.952 L260.536,12.952 L260.536,14.248 L261.208,14.296 C261.357333,14.3066667 261.461333,14.3466667 261.52,14.416 C261.578667,14.4853333 261.608,14.6053333 261.608,14.776 L261.608,14.776 L261.608,19.208 C261.608,19.4 261.570667,19.5306667 261.496,19.6 C261.421333,19.6693333 261.304,19.7146667 261.144,19.736 L261.144,19.736 L260.616,19.784 L260.616,21 L264.904,21 Z M271.32,21.208 C272.248,21.208 272.978667,20.824 273.512,20.056 L273.512,20.056 L273.56,20.072 L273.56,21 L276.104,21 L276.104,19.72 L275.592,19.688 C275.442667,19.6773333 275.338667,19.64 275.28,19.576 C275.221333,19.512 275.192,19.3946667 275.192,19.224 L275.192,19.224 L275.192,13.272 C274.2,12.8986667 273.250667,12.712 272.344,12.712 C270.936,12.712 269.88,13.1173333 269.176,13.928 C268.472,14.7386667 268.12,15.8693333 268.12,17.32 C268.12,18.5253333 268.381333,19.4746667 268.904,20.168 C269.426667,20.8613333 270.232,21.208 271.32,21.208 Z M271.736,19.848 C270.626667,19.848 270.072,18.984 270.072,17.256 C270.072,16.3066667 270.232,15.544 270.552,14.968 C270.872,14.392 271.389333,14.104 272.104,14.104 C272.626667,14.104 273.037333,14.1733333 273.336,14.312 L273.336,14.312 L273.336,18.456 C273.336,18.8186667 273.186667,19.1413333 272.888,19.424 C272.589333,19.7066667 272.205333,19.848 271.736,19.848 Z M280.472,21.224 C281.293333,21.224 281.970667,21.0373333 282.504,20.664 L282.504,20.664 L282.024,19.432 C281.661333,19.656 281.301333,19.768 280.944,19.768 C280.586667,19.768 280.322667,19.6746667 280.152,19.488 C279.981333,19.3013333 279.896,18.9733333 279.896,18.504 L279.896,18.504 L279.896,14.296 L281.864,14.296 L282.024,12.952 L279.896,12.952 L279.896,11.256 L278.856,11.256 C278.642667,11.832 278.408,12.2773333 278.152,12.592 C277.896,12.9066667 277.517333,13.0853333 277.016,13.128 L277.016,13.128 L276.856,14.296 L277.992,14.296 L277.99264,18.75072 C277.994347,18.9819733 277.999467,19.1637333 278.008,19.296 C278.018667,19.4613333 278.066667,19.688 278.152,19.976 C278.237333,20.264 278.36,20.4826667 278.52,20.632 C278.68,20.7813333 278.925333,20.9173333 279.256,21.04 C279.586667,21.1626667 279.992,21.224 280.472,21.224 Z M284.872,11.896 C285.234667,11.896 285.530667,11.7866667 285.76,11.568 C285.989333,11.3493333 286.104,11.0693333 286.104,10.728 C286.104,10.3866667 285.989333,10.1013333 285.76,9.872 C285.530667,9.64266667 285.234667,9.528 284.872,9.528 C284.509333,9.528 284.216,9.64266667 283.992,9.872 C283.768,10.1013333 283.656,10.3866667 283.656,10.728 C283.656,11.0693333 283.768,11.352 283.992,11.576 C284.216,11.7893333 284.509333,11.896 284.872,11.896 Z M286.92,21 L286.92,19.72 L286.008,19.672 L286.008,12.952 L283.144,12.952 L283.144,14.28 L283.704,14.312 C283.853333,14.312 283.957333,14.344 284.016,14.408 C284.074667,14.472 284.104,14.5946667 284.104,14.776 L284.104,14.776 L284.104,19.224 C284.104,19.5333333 283.949333,19.704 283.64,19.736 L283.64,19.736 L283.112,19.784 L283.112,21 L286.92,21 Z M291.688,21.208 C292.338667,21.208 292.917333,21.1066667 293.424,20.904 C293.930667,20.7013333 294.290667,20.504 294.504,20.312 L294.504,20.312 L293.896,19.016 C293.234667,19.4853333 292.573333,19.72 291.912,19.72 C291.250667,19.72 290.76,19.5466667 290.44,19.2 C290.12,18.8533333 289.944,18.3973333 289.912,17.832 C290.808,17.832 291.613333,17.7253333 292.328,17.512 C292.754667,17.384 293.117333,17.2186667 293.416,17.016 C293.714667,16.8133333 293.965333,16.5333333 294.168,16.176 C294.370667,15.8186667 294.472,15.4053333 294.472,14.936 C294.472,14.232 294.237333,13.6853333 293.768,13.296 C293.298667,12.9066667 292.664,12.712 291.864,12.712 C290.616,12.712 289.645333,13.1386667 288.952,13.992 C288.258667,14.8453333 287.912,15.9013333 287.912,17.16 C287.912,18.4186667 288.216,19.408 288.824,20.128 C289.432,20.848 290.386667,21.208 291.688,21.208 Z M289.848,16.488 C289.88,15.8266667 290.056,15.2586667 290.376,14.784 C290.696,14.3093333 291.154667,14.072 291.752,14.072 C292.392,14.072 292.712,14.3973333 292.712,15.048 C292.712,15.3786667 292.546667,15.664 292.216,15.904 C291.885333,16.144 291.522667,16.3013333 291.128,16.376 C290.744,16.44 290.317333,16.4773333 289.848,16.488 Z M302.632,21.208 C303.282667,21.208 303.861333,21.1066667 304.368,20.904 C304.874667,20.7013333 305.234667,20.504 305.448,20.312 L305.448,20.312 L304.84,19.016 C304.178667,19.4853333 303.517333,19.72 302.856,19.72 C302.194667,19.72 301.704,19.5466667 301.384,19.2 C301.064,18.8533333 300.888,18.3973333 300.856,17.832 C301.752,17.832 302.557333,17.7253333 303.272,17.512 C303.698667,17.384 304.061333,17.2186667 304.36,17.016 C304.658667,16.8133333 304.909333,16.5333333 305.112,16.176 C305.314667,15.8186667 305.416,15.4053333 305.416,14.936 C305.416,14.232 305.181333,13.6853333 304.712,13.296 C304.242667,12.9066667 303.608,12.712 302.808,12.712 C301.56,12.712 300.589333,13.1386667 299.896,13.992 C299.202667,14.8453333 298.856,15.9013333 298.856,17.16 C298.856,18.4186667 299.16,19.408 299.768,20.128 C300.376,20.848 301.330667,21.208 302.632,21.208 Z M300.792,16.488 C300.824,15.8266667 301,15.2586667 301.32,14.784 C301.64,14.3093333 302.098667,14.072 302.696,14.072 C303.336,14.072 303.656,14.3973333 303.656,15.048 C303.656,15.3786667 303.490667,15.664 303.16,15.904 C302.829333,16.144 302.466667,16.3013333 302.072,16.376 C301.688,16.44 301.261333,16.4773333 300.792,16.488 Z M310.328,21 L310.328,19.72 L309.416,19.672 L309.416,15.8 C309.416,15.3626667 309.565333,14.984 309.864,14.664 C310.162667,14.344 310.565333,14.184 311.072,14.184 C311.578667,14.184 311.922667,14.3253333 312.104,14.608 C312.285333,14.8906667 312.376,15.3253333 312.376,15.912 L312.376,15.912 L312.376,19.208 C312.376,19.4 312.338667,19.5306667 312.264,19.6 C312.189333,19.6693333 312.072,19.7146667 311.912,19.736 L311.912,19.736 L311.384,19.784 L311.384,21 L315.192,21 L315.192,19.72 L314.28,19.672 L314.28,15.496 C314.28,14.568 314.058667,13.872 313.616,13.408 C313.173333,12.944 312.546667,12.712 311.736,12.712 C311.202667,12.712 310.706667,12.8266667 310.248,13.056 C309.789333,13.2853333 309.421333,13.5973333 309.144,13.992 L309.144,13.992 L309.144,12.952 L306.44,12.952 L306.44,14.232 L307.112,14.28 C307.378667,14.2906667 307.512,14.456 307.512,14.776 L307.512,14.776 L307.512,19.208 C307.512,19.4 307.474667,19.5306667 307.4,19.6 C307.325333,19.6693333 307.208,19.7146667 307.048,19.736 L307.048,19.736 L306.52,19.784 L306.52,21 L310.328,21 Z M323.624,21 L323.624,19.736 L322.232,19.672 L322.232,15.96 C322.232,15.4906667 322.368,15.104 322.64,14.8 C322.912,14.496 323.261333,14.344 323.688,14.344 C323.858667,14.344 324.002667,14.3706667 324.12,14.424 C324.226667,14.4773333 324.28,14.6106667 324.28,14.824 L324.28,14.824 L324.28,15.56 L325.768,15.448 L325.768,13.064 C325.288,12.8293333 324.784,12.712 324.256,12.712 C323.728,12.712 323.261333,12.848 322.856,13.12 C322.450667,13.392 322.152,13.736 321.96,14.152 L321.96,14.152 L321.96,12.952 L319.256,12.952 L319.256,14.248 L319.928,14.296 C320.077333,14.3066667 320.181333,14.3466667 320.24,14.416 C320.298667,14.4853333 320.328,14.6053333 320.328,14.776 L320.328,14.776 L320.328,19.208 C320.328,19.4 320.290667,19.5306667 320.216,19.6 C320.141333,19.6693333 320.024,19.7146667 319.864,19.736 L319.864,19.736 L319.336,19.784 L319.336,21 L323.624,21 Z M330.568,21.208 C331.218667,21.208 331.797333,21.1066667 332.304,20.904 C332.810667,20.7013333 333.170667,20.504 333.384,20.312 L333.384,20.312 L332.776,19.016 C332.114667,19.4853333 331.453333,19.72 330.792,19.72 C330.130667,19.72 329.64,19.5466667 329.32,19.2 C329,18.8533333 328.824,18.3973333 328.792,17.832 C329.688,17.832 330.493333,17.7253333 331.208,17.512 C331.634667,17.384 331.997333,17.2186667 332.296,17.016 C332.594667,16.8133333 332.845333,16.5333333 333.048,16.176 C333.250667,15.8186667 333.352,15.4053333 333.352,14.936 C333.352,14.232 333.117333,13.6853333 332.648,13.296 C332.178667,12.9066667 331.544,12.712 330.744,12.712 C329.496,12.712 328.525333,13.1386667 327.832,13.992 C327.138667,14.8453333 326.792,15.9013333 326.792,17.16 C326.792,18.4186667 327.096,19.408 327.704,20.128 C328.312,20.848 329.266667,21.208 330.568,21.208 Z M328.728,16.488 C328.76,15.8266667 328.936,15.2586667 329.256,14.784 C329.576,14.3093333 330.034667,14.072 330.632,14.072 C331.272,14.072 331.592,14.3973333 331.592,15.048 C331.592,15.3786667 331.426667,15.664 331.096,15.904 C330.765333,16.144 330.402667,16.3013333 330.008,16.376 C329.624,16.44 329.197333,16.4773333 328.728,16.488 Z M338.152,21.224 C339.293333,21.224 340.242667,20.9146667 341,20.296 L341,20.296 L340.312,19.064 C339.682667,19.5226667 339.045333,19.752 338.4,19.752 C337.754667,19.752 337.261333,19.5013333 336.92,19 C336.578667,18.4986667 336.408,17.7946667 336.408,16.888 C336.408,15.064 337.053333,14.152 338.344,14.152 C338.568,14.152 338.784,14.1866667 338.992,14.256 C339.2,14.3253333 339.304,14.504 339.304,14.792 L339.304,14.792 L339.304,15.56 L340.776,15.448 L340.776,13.368 C339.965333,12.9306667 339.088,12.712 338.144,12.712 C337.2,12.712 336.352,13.0666667 335.6,13.776 C334.848,14.4853333 334.472,15.544 334.472,16.952 C334.472,18.36 334.8,19.424 335.456,20.144 C336.112,20.864 337.010667,21.224 338.152,21.224 Z M345.8,21 L345.8,19.72 L344.888,19.672 L344.888,15.8 C344.888,15.352 345.04,14.9706667 345.344,14.656 C345.648,14.3413333 346.053333,14.184 346.56,14.184 C347.066667,14.184 347.408,14.3333333 347.584,14.632 C347.76,14.9306667 347.848,15.3573333 347.848,15.912 L347.848,15.912 L347.848,19.208 C347.848,19.4 347.810667,19.5306667 347.736,19.6 C347.661333,19.6693333 347.544,19.7146667 347.384,19.736 L347.384,19.736 L346.856,19.784 L346.856,21 L350.664,21 L350.664,19.72 L349.752,19.672 L349.752,15.496 C349.752,14.568 349.530667,13.872 349.088,13.408 C348.645333,12.944 348.018667,12.712 347.208,12.712 C346.205333,12.712 345.426667,13.1066667 344.872,13.896 L344.872,13.896 L344.872,9.592 L342.024,9.592 L342.024,10.92 L342.584,10.952 C342.733333,10.9626667 342.837333,11 342.896,11.064 C342.954667,11.128 342.984,11.2453333 342.984,11.416 L342.984,11.416 L342.984,19.208 C342.984,19.4 342.946667,19.5306667 342.872,19.6 C342.797333,19.6693333 342.68,19.7146667 342.52,19.736 L342.52,19.736 L341.992,19.784 L341.992,21 L345.8,21 Z M355,21.224 C355.821333,21.224 356.498667,21.0373333 357.032,20.664 L357.032,20.664 L356.552,19.432 C356.189333,19.656 355.829333,19.768 355.472,19.768 C355.114667,19.768 354.850667,19.6746667 354.68,19.488 C354.509333,19.3013333 354.424,18.9733333 354.424,18.504 L354.424,18.504 L354.424,14.296 L356.392,14.296 L356.552,12.952 L354.424,12.952 L354.424,11.256 L353.384,11.256 C353.170667,11.832 352.936,12.2773333 352.68,12.592 C352.424,12.9066667 352.045333,13.0853333 351.544,13.128 L351.544,13.128 L351.384,14.296 L352.52,14.296 L352.52,18.568 C352.52,18.888 352.525333,19.1306667 352.536,19.296 C352.546667,19.4613333 352.594667,19.688 352.68,19.976 C352.765333,20.264 352.888,20.4826667 353.048,20.632 C353.208,20.7813333 353.453333,20.9173333 353.784,21.04 C354.114667,21.1626667 354.52,21.224 355,21.224 Z M360.76,21.208 C361.656,21.208 362.394667,20.9813333 362.976,20.528 C363.557333,20.0746667 363.848,19.448 363.848,18.648 C363.848,18.0293333 363.661333,17.5226667 363.288,17.128 C363.149333,16.968 362.944,16.8186667 362.672,16.68 C362.4,16.5413333 362.173333,16.4426667 361.992,16.384 C361.810667,16.3253333 361.533333,16.2453333 361.16,16.144 C360.786667,16.0426667 360.466667,15.9226667 360.2,15.784 C360.029333,15.688 359.904,15.5733333 359.824,15.44 C359.744,15.3066667 359.704,15.12 359.704,14.88 C359.704,14.64 359.813333,14.4373333 360.032,14.272 C360.250667,14.1066667 360.541333,14.024 360.904,14.024 C361.266667,14.024 361.576,14.072 361.832,14.168 C362.077333,14.264 362.2,14.4453333 362.2,14.712 L362.2,14.712 L362.2,15.384 L363.64,15.272 L363.64,13.352 C362.765333,12.9253333 361.882667,12.712 360.992,12.712 C360.101333,12.712 359.362667,12.936 358.776,13.384 C358.189333,13.832 357.896,14.4693333 357.896,15.296 C357.896,16.1226667 358.168,16.712 358.712,17.064 C358.989333,17.2346667 359.242667,17.3653333 359.472,17.456 C359.701333,17.5466667 359.914667,17.6186667 360.112,17.672 C360.309333,17.7253333 360.512,17.7786667 360.72,17.832 C360.928,17.8853333 361.106667,17.9386667 361.256,17.992 C361.405333,18.0453333 361.557333,18.1466667 361.712,18.296 C361.866667,18.4453333 361.944,18.6373333 361.944,18.872 C361.944,19.5226667 361.496,19.848 360.6,19.848 C359.704,19.848 359.256,19.6133333 359.256,19.144 L359.256,19.144 L359.256,18.376 L357.816,18.488 L357.816,20.712 C358.477333,21.0426667 359.458667,21.208 360.76,21.208 Z M367.976,21.208 C368.872,21.208 369.610667,20.9813333 370.192,20.528 C370.773333,20.0746667 371.064,19.448 371.064,18.648 C371.064,18.0293333 370.877333,17.5226667 370.504,17.128 C370.365333,16.968 370.16,16.8186667 369.888,16.68 C369.616,16.5413333 369.389333,16.4426667 369.208,16.384 C369.026667,16.3253333 368.749333,16.2453333 368.376,16.144 C368.002667,16.0426667 367.682667,15.9226667 367.416,15.784 C367.245333,15.688 367.12,15.5733333 367.04,15.44 C366.96,15.3066667 366.92,15.12 366.92,14.88 C366.92,14.64 367.029333,14.4373333 367.248,14.272 C367.466667,14.1066667 367.757333,14.024 368.12,14.024 C368.482667,14.024 368.792,14.072 369.048,14.168 C369.293333,14.264 369.416,14.4453333 369.416,14.712 L369.416,14.712 L369.416,15.384 L370.856,15.272 L370.856,13.352 C369.981333,12.9253333 369.098667,12.712 368.208,12.712 C367.317333,12.712 366.578667,12.936 365.992,13.384 C365.405333,13.832 365.112,14.4693333 365.112,15.296 C365.112,16.1226667 365.384,16.712 365.928,17.064 C366.205333,17.2346667 366.458667,17.3653333 366.688,17.456 C366.917333,17.5466667 367.130667,17.6186667 367.328,17.672 C367.525333,17.7253333 367.728,17.7786667 367.936,17.832 C368.144,17.8853333 368.322667,17.9386667 368.472,17.992 C368.621333,18.0453333 368.773333,18.1466667 368.928,18.296 C369.082667,18.4453333 369.16,18.6373333 369.16,18.872 C369.16,19.5226667 368.712,19.848 367.816,19.848 C366.92,19.848 366.472,19.6133333 366.472,19.144 L366.472,19.144 L366.472,18.376 L365.032,18.488 L365.032,20.712 C365.693333,21.0426667 366.674667,21.208 367.976,21.208 Z M375.464,21.224 C376.285333,21.224 376.962667,21.0373333 377.496,20.664 L377.496,20.664 L377.016,19.432 C376.653333,19.656 376.293333,19.768 375.936,19.768 C375.578667,19.768 375.314667,19.6746667 375.144,19.488 C374.973333,19.3013333 374.888,18.9733333 374.888,18.504 L374.888,18.504 L374.888,14.296 L376.856,14.296 L377.016,12.952 L374.888,12.952 L374.888,11.256 L373.848,11.256 C373.634667,11.832 373.4,12.2773333 373.144,12.592 C372.888,12.9066667 372.509333,13.0853333 372.008,13.128 L372.008,13.128 L371.848,14.296 L372.984,14.296 L372.984,18.568 C372.984,18.888 372.989333,19.1306667 373,19.296 C373.010667,19.4613333 373.058667,19.688 373.144,19.976 C373.229333,20.264 373.352,20.4826667 373.512,20.632 C373.672,20.7813333 373.917333,20.9173333 374.248,21.04 C374.578667,21.1626667 374.984,21.224 375.464,21.224 Z M381.416,21.208 C382.344,21.208 383.074667,20.824 383.608,20.056 L383.608,20.056 L383.656,20.072 L383.656,21 L386.2,21 L386.2,19.72 L385.688,19.688 C385.538667,19.6773333 385.434667,19.64 385.376,19.576 C385.317333,19.512 385.288,19.3946667 385.288,19.224 L385.288,19.224 L385.288,13.272 C384.296,12.8986667 383.346667,12.712 382.44,12.712 C381.032,12.712 379.976,13.1173333 379.272,13.928 C378.568,14.7386667 378.216,15.8693333 378.216,17.32 C378.216,18.5253333 378.477333,19.4746667 379,20.168 C379.522667,20.8613333 380.328,21.208 381.416,21.208 Z M381.832,19.848 C380.722667,19.848 380.168,18.984 380.168,17.256 C380.168,16.3066667 380.328,15.544 380.648,14.968 C380.968,14.392 381.485333,14.104 382.2,14.104 C382.722667,14.104 383.133333,14.1733333 383.432,14.312 L383.432,14.312 L383.432,18.456 C383.432,18.8186667 383.282667,19.1413333 382.984,19.424 C382.685333,19.7066667 382.301333,19.848 381.832,19.848 Z M390.488,21.208 C391.416,21.208 392.146667,20.824 392.68,20.056 L392.68,20.056 L392.728,20.072 L392.728,21 L395.272,21 L395.272,19.72 L394.76,19.688 C394.610667,19.6773333 394.506667,19.64 394.448,19.576 C394.389333,19.512 394.36,19.3946667 394.36,19.224 L394.36,19.224 L394.36,13.272 C393.368,12.8986667 392.418667,12.712 391.512,12.712 C390.104,12.712 389.048,13.1173333 388.344,13.928 C387.64,14.7386667 387.288,15.8693333 387.288,17.32 C387.288,18.5253333 387.549333,19.4746667 388.072,20.168 C388.594667,20.8613333 389.4,21.208 390.488,21.208 Z M390.904,19.848 C389.794667,19.848 389.24,18.984 389.24,17.256 C389.24,16.3066667 389.4,15.544 389.72,14.968 C390.04,14.392 390.557333,14.104 391.272,14.104 C391.794667,14.104 392.205333,14.1733333 392.504,14.312 L392.504,14.312 L392.504,18.456 C392.504,18.8186667 392.354667,19.1413333 392.056,19.424 C391.757333,19.7066667 391.373333,19.848 390.904,19.848 Z M399.64,21.224 C400.461333,21.224 401.138667,21.0373333 401.672,20.664 L401.672,20.664 L401.192,19.432 C400.829333,19.656 400.469333,19.768 400.112,19.768 C399.754667,19.768 399.490667,19.6746667 399.32,19.488 C399.149333,19.3013333 399.064,18.9733333 399.064,18.504 L399.064,18.504 L399.064,14.296 L401.032,14.296 L401.192,12.952 L399.064,12.952 L399.064,11.256 L398.024,11.256 C397.810667,11.832 397.576,12.2773333 397.32,12.592 C397.064,12.9066667 396.685333,13.0853333 396.184,13.128 L396.184,13.128 L396.024,14.296 L397.16,14.296 L397.16064,18.75072 C397.162347,18.9819733 397.167467,19.1637333 397.176,19.296 C397.186667,19.4613333 397.234667,19.688 397.32,19.976 C397.405333,20.264 397.528,20.4826667 397.688,20.632 C397.848,20.7813333 398.093333,20.9173333 398.424,21.04 C398.754667,21.1626667 399.16,21.224 399.64,21.224 Z" id="Huisvoordemocratieenrechtsstaat" fill="#000000" fill-rule="nonzero"></path>
        <g fill="#D60D41">
            <path d="M16.9268519,20.6636872 C16.4181287,20.6636872 16,20.2456859 16,19.738175 L16,6.47945376 C16,5.97194289 16.4181287,5.55394165 16.9268519,5.55394165 L17.79534,5.55394165 C18.3345518,5.55394165 18.8127865,5.94239603 18.9025099,6.44990689 L19.1124454,7.46492862 C20.1298918,6.15183116 21.4774857,5.28541279 23.0637614,5.28541279 C23.2127197,5.28541279 23.3930377,5.28541279 23.541996,5.31582868 C23.7519315,5.34537554 23.9017609,5.49484792 23.9017609,5.79292365 L23.5123786,8.24183737 C23.4827611,8.5399131 23.1831023,8.74934823 22.8538259,8.68938547 C22.674379,8.65983861 22.4348261,8.63029174 22.1952733,8.63029174 C21.0279974,8.63029174 20.2797212,8.98833023 19.4112331,9.73482309 L19.4112331,19.738175 C19.4112331,20.2456859 18.9931045,20.6636872 18.4843812,20.6636872 L16.9268519,20.6636872" id="Fill-2"></path>
            <path d="M32.3418625,18.4841713 C34.3175205,18.4841713 35.0657967,17.3492241 35.0657967,13.078833 C35.0657967,8.74934823 34.287032,7.73432651 32.3122451,7.73432651 C30.335716,7.73432651 29.588311,8.7788951 29.588311,13.1092489 C29.588311,17.3787709 30.3662045,18.4841713 32.3418625,18.4841713 Z M32.3418625,21.0521415 C28.420164,21.0521415 25.9662713,18.7527002 25.9662713,13.078833 C25.9662713,7.37541899 28.3905465,5.1663563 32.3122451,5.1663563 C36.2322014,5.1663563 38.7174538,7.43538175 38.7174538,13.1092489 C38.7174538,18.7831161 36.26269,21.0521415 32.3418625,21.0521415 L32.3418625,21.0521415 Z" id="Fill-4"></path>
            <path d="M46.0495144,17.5882061 L48.4737896,17.5882061 C51.6768295,17.5882061 52.6350411,16.0361266 52.6350411,10.1528243 C52.6350411,4.59888268 51.706447,3.0459342 48.4737896,3.0459342 L46.0495144,3.0459342 L46.0495144,17.5882061 Z M43.3560688,20.6636872 C42.8464745,20.6636872 42.4274747,20.2456859 42.4274747,19.738175 L42.4274747,0.925512104 C42.4274747,0.418001241 42.8464745,0 43.3560688,0 L48.4145547,0 C53.8615519,0 56.5558685,2.5983861 56.5558685,10.3022967 C56.5558685,17.6777157 54.3110402,20.6636872 48.5635131,20.6636872 L43.3560688,20.6636872 L43.3560688,20.6636872 Z" id="Fill-5"></path>
            <path d="M65.8034811,7.70391061 C64.2764404,7.70391061 63.4689294,8.48081937 63.2894825,11.6458101 L68.2582449,11.6458101 C68.2277564,8.71980137 67.6885446,7.70391061 65.8034811,7.70391061 Z M66.4019278,21.0521415 C61.8826537,21.0521415 59.6378253,18.7527002 59.6378253,13.078833 C59.6378253,7.34587213 61.9723771,5.1663563 65.7738637,5.1663563 C69.8445206,5.1663563 71.7600726,7.43538175 71.7600726,12.9606456 L71.7600726,13.5272502 C71.7600726,13.8261949 71.5205197,14.0651769 71.2513494,14.0651769 L63.2589939,14.0651769 C63.3792059,17.5282433 64.2172055,18.3051521 66.3723104,18.3051521 C67.5090977,18.3051521 68.3470973,17.9766605 69.0962445,17.4986965 C69.5152443,17.2301676 70.114562,17.3492241 70.3828613,17.7672253 L70.9516905,18.5736809 C71.2513494,18.9916822 71.1320085,19.5591558 70.7121376,19.8572315 C69.5448617,20.6037244 68.1981389,21.0521415 66.4019278,21.0521415 L66.4019278,21.0521415 Z" id="Fill-6"></path>
            <path d="M103.665033,18.4841713 C105.641562,18.4841713 106.388967,17.3492241 106.388967,13.078833 C106.388967,8.74934823 105.611074,7.73432651 103.635416,7.73432651 C101.659758,7.73432651 100.911481,8.7788951 100.911481,13.1092489 C100.911481,17.3787709 101.690246,18.4841713 103.665033,18.4841713 Z M103.665033,21.0521415 C99.7442055,21.0521415 97.2903129,18.7527002 97.2903129,13.078833 C97.2903129,7.37541899 99.7145881,5.1663563 103.635416,5.1663563 C107.557114,5.1663563 110.040624,7.43538175 110.040624,13.1092489 C110.040624,18.7831161 107.586732,21.0521415 103.665033,21.0521415 L103.665033,21.0521415 Z" id="Fill-7"></path>
            <path d="M117.552132,21.0521415 C115.786409,21.0521415 114.201005,20.5741775 113.062475,20.0067039 C112.583369,19.7685909 112.403922,19.2002483 112.614729,18.7527002 L113.032858,17.8862818 C113.242793,17.4091868 113.811622,17.2301676 114.26024,17.4682806 C115.188834,17.9471136 116.175792,18.2451893 117.253344,18.2451893 C118.989449,18.2451893 119.618384,17.6481688 119.618384,16.4532588 C119.618384,15.0801986 118.899726,14.8108007 116.715003,14.2137803 C114.619133,13.6463066 113.00324,12.4218498 113.00324,9.52538796 C113.00324,6.92787089 114.649622,5.1663563 117.942385,5.1663563 C119.468555,5.1663563 120.546107,5.37492241 121.533936,5.73382992 C122.013042,5.94239603 122.252595,6.47945376 122.073148,6.95741775 L121.743001,7.82383613 C121.563554,8.30180012 121.025213,8.5399131 120.575725,8.36089385 C119.797831,8.06281813 119.079173,7.94289261 118.211556,7.94289261 C116.924068,7.94289261 116.265515,8.42085661 116.265515,9.46629423 C116.265515,10.6603352 116.804727,10.9297331 118.690661,11.4363749 C121.025213,12.0638113 123,12.9901924 123,16.3037865 C123,19.4392303 121.234277,21.0521415 117.552132,21.0521415" id="Fill-8"></path>
            <path d="M3.62462281,10.0142569 L6.20056327,10.0142569 C8.26654597,10.0142569 9.22544089,9.22558668 9.22544089,6.61582135 C9.22544089,3.91420641 8.32669483,3.09550845 6.23020184,3.09550845 L3.62462281,3.09550845 L3.62462281,10.0142569 Z M0.928384631,21 C0.419298599,21 0,20.5751956 0,20.0594247 L0,0.940575322 C0,0.424804441 0.419298599,0 0.928384631,0 L6.05062697,0 C10.6036344,0 13,1.91206157 13,6.37294979 C13,10.5 11.3524442,13.0497098 6.4097767,13.0497098 L3.62462281,13.0497098 L3.62462281,20.0594247 C3.62462281,20.5751956 3.20445249,21 2.69536646,21 L0.928384631,21 L0.928384631,21 Z" id="Fill-1"></path>
            <g id="M" transform="translate(75.000000, 5.000000)">
                <path d="M0,5 L0,15.0451545 C0,15.5687505 0.369160071,16 0.816441154,16 L2.18509063,16 C2.63237171,16 3,15.5687505 3,15.0451545 L3,5 L0,5" id="Fill-10"></path>
                <path d="M8,5 L8,15.0451545 C8,15.5687505 8.36839418,16 8.81644115,16 L10.1843247,16 C10.6316058,16 11,15.5687505 11,15.0451545 L11,5 L8,5" id="Fill-11"></path>
                <path d="M16,5 L16,15.0451545 C16,15.5687505 16.3690658,16 16.8162328,16 L18.1845329,16 C18.6316998,16 19,15.5687505 19,15.0451545 L19,5 L16,5" id="Fill-12"></path>
                <polygon id="Fill-13" points="0 3 19 3 19 0 0 0"></polygon>
            </g>
        </g>
    </g>
</svg>