
<svg width="50px" height="50px" viewBox="0 0 50 50" xmlns="http://www.w3.org/2000/svg" id="root">
    <rect fill="currentColor" x="0" y="0" width="50" height="50"></rect>
    <g transform="translate(15.000000, 17.000000)" id="Group" fill="#ffffff">
        <path d="M0,5 L0,15.0451545 C0,15.5687505 0.369160071,16 0.816441154,16 L2.18509063,16 C2.63237171,16 3,15.5687505 3,15.0451545 L3,5 L0,5" ></path>
        <path d="M8,5 L8,15.0451545 C8,15.5687505 8.36839418,16 8.81644115,16 L10.1843247,16 C10.6316058,16 11,15.5687505 11,15.0451545 L11,5 L8,5" ></path>
        <path d="M16,5 L16,15.0451545 C16,15.5687505 16.3690658,16 16.8162328,16 L18.1845329,16 C18.6316998,16 19,15.5687505 19,15.0451545 L19,5 L16,5" ></path>
        <polygon points="0 3 19 3 19 0 0 0"></polygon>
    </g>
</svg>