<svg xmlns="http://www.w3.org/2000/svg" width="205px" height="73.66px" viewBox="0 0 205 73.66">
	<rect fill="currentColor" width="205" height="73.66"/>
	<g fill="#ffffff">
		<path d="M20.99,50.33c-0.66,0-1.22-0.55-1.22-1.22v-25.1c0-0.66,0.55-1.22,1.22-1.22h6.86c6.08,0,9.29,2.54,9.29,8.4
			c0,5.42-2.21,8.74-8.74,8.74h-3.76v9.18c0,0.66-0.55,1.22-1.22,1.22C23.43,50.33,20.99,50.33,20.99,50.33z M24.64,35.84h3.43
			c2.76,0,3.98-1,3.98-4.42c0-3.54-1.22-4.64-3.98-4.64h-3.43C24.64,26.77,24.64,35.84,24.64,35.84z"/>
		<path d="M42.89,50.33c-0.66,0-1.22-0.55-1.22-1.22V31.42c0-0.66,0.55-1.22,1.22-1.22H44c0.66,0,1.33,0.55,1.44,1.22
			l0.33,1.33c1.33-1.77,3.1-2.88,5.31-2.88c0.22,0,0.44,0,0.66,0c0.33,0,0.44,0.22,0.44,0.66l-0.55,3.32c0,0.44-0.44,0.66-0.88,0.55
			c-0.22,0-0.55-0.11-0.88-0.11c-1.55,0-2.54,0.44-3.76,1.44v13.38c0,0.66-0.55,1.22-1.22,1.22H42.89z"/>
		<path d="M63.46,50.77c-5.2,0-8.52-3.1-8.52-10.62c0-7.63,3.21-10.51,8.4-10.51s8.52,2.99,8.52,10.62
			C71.97,47.78,68.66,50.77,63.46,50.77 M63.46,47.34c2.65,0,3.65-1.55,3.65-7.19c0-5.75-1-7.08-3.65-7.08s-3.65,1.44-3.65,7.19
			C59.81,45.9,60.81,47.34,63.46,47.34"/>
		<path d="M78.17,50.33c-0.66,0-1.22-0.55-1.22-1.22v-25.1c0-0.66,0.55-1.22,1.22-1.22h6.75
			c7.3,0,10.84,3.43,10.84,13.71c0,9.84-2.99,13.82-10.62,13.82C85.14,50.33,78.17,50.33,78.17,50.33z M81.71,46.13h3.21
			c4.31,0,5.53-2.1,5.53-9.95c0-7.41-1.22-9.51-5.53-9.51h-3.21V46.13z"/>
		<path d="M108.8,50.77c-5.97,0-8.96-3.1-8.96-10.62c0-7.63,3.1-10.51,8.18-10.51c5.42,0,7.96,2.99,7.96,10.4v0.77
			c0,0.44-0.33,0.66-0.66,0.66h-10.62c0.11,4.64,1.33,5.64,4.09,5.64c1.55,0,2.65-0.44,3.65-1.11c0.55-0.33,1.33-0.22,1.77,0.33
			l0.77,1.11c0.44,0.55,0.22,1.33-0.33,1.66C113,50.22,111.23,50.77,108.8,50.77 M108.03,32.97c-1.99,0-3.1,1-3.32,5.2h6.64
			C111.23,34.4,110.57,32.97,108.03,32.97"/>
		<path d="M158.46,50.77c-5.2,0-8.52-3.1-8.52-10.62c0-7.63,3.21-10.51,8.4-10.51c5.2,0,8.52,2.99,8.52,10.62
			C166.86,47.78,163.65,50.77,158.46,50.77 M158.46,47.34c2.65,0,3.65-1.55,3.65-7.19c0-5.75-1-7.08-3.65-7.08
			c-2.65,0-3.65,1.44-3.65,7.19C154.81,45.9,155.8,47.34,158.46,47.34"/>
		<path d="M176.92,50.77c-2.32,0-4.42-0.66-5.97-1.44c-0.66-0.33-0.88-1.11-0.55-1.66l0.55-1.11
			c0.33-0.66,1-0.88,1.66-0.55c1.22,0.66,2.54,1,3.98,1c2.32,0,3.1-0.77,3.1-2.43c0-1.88-1-2.21-3.87-2.99
			c-2.76-0.77-4.98-2.43-4.98-6.19c0-3.43,2.21-5.86,6.52-5.86c1.99,0,3.43,0.33,4.76,0.77c0.66,0.33,1,1,0.66,1.66l-0.44,1.11
			c-0.22,0.66-1,1-1.55,0.66c-1-0.44-1.99-0.55-3.1-0.55c-1.77,0-2.54,0.66-2.54,1.99c0,1.55,0.66,1.99,3.21,2.65
			c3.1,0.88,5.75,2.1,5.75,6.52C184.11,48.67,181.79,50.77,176.92,50.77"/>
		<path d="M120.74,36.06V49c0,0.66,0.55,1.22,1.22,1.22h2.1c0.66,0,1.22-0.55,1.22-1.22V36.06H120.74z"/>
		<path d="M130.7,36.06V49c0,0.66,0.55,1.22,1.22,1.22h2.1c0.66,0,1.22-0.55,1.22-1.22V36.06H130.7z"/>
		<path d="M140.76,36.06V49c0,0.66,0.55,1.22,1.22,1.22h2.1c0.66,0,1.22-0.55,1.22-1.22V36.06H140.76z"/>
		<rect x="120.74" y="29.87" width="24.55" height="3.76"/>
	</g>
</svg>
