<svg xmlns="http://www.w3.org/2000/svg" width="191.7px" height="64.8px" viewBox="0 0 191.7 64.8">
    <rect fill="currentColor" width="191.7" height="64.8"/>
    <g fill="#ffffff">
        <path d="M22.6,35.7c-0.6,0-1.1-0.5-1.1-1.1V11.9c0-0.6,0.5-1.1,1.1-1.1h6.2c5.5,0,8.4,2.3,8.4,7.6c0,4.9-2,7.9-7.9,7.9
            h-3.4v8.3c0,0.6-0.5,1.1-1.1,1.1H22.6z M25.9,22.6H29c2.5,0,3.6-0.9,3.6-4c0-3.2-1.1-4.2-3.6-4.2h-3.1V22.6z"/>
                <path d="M42.4,35.7c-0.6,0-1.1-0.5-1.1-1.1v-16c0-0.6,0.5-1.1,1.1-1.1h1c0.6,0,1.2,0.5,1.3,1.1l0.3,1.2
            c1.2-1.6,2.8-2.6,4.8-2.6c0.2,0,0.4,0,0.6,0c0.3,0,0.4,0.2,0.4,0.6l-0.5,3c0,0.4-0.4,0.6-0.8,0.5c-0.2,0-0.5-0.1-0.8-0.1
            c-1.4,0-2.3,0.4-3.4,1.3v12.1c0,0.6-0.5,1.1-1.1,1.1H42.4z"/>
                <path d="M61,36.1c-4.7,0-7.7-2.8-7.7-9.6c0-6.9,2.9-9.5,7.6-9.5c4.7,0,7.7,2.7,7.7,9.6C68.7,33.4,65.7,36.1,61,36.1
             M61,33c2.4,0,3.3-1.4,3.3-6.5c0-5.2-0.9-6.4-3.3-6.4c-2.4,0-3.3,1.3-3.3,6.5C57.7,31.7,58.6,33,61,33"/>
                <path d="M74.3,35.7c-0.6,0-1.1-0.5-1.1-1.1V11.9c0-0.6,0.5-1.1,1.1-1.1h6.1c6.6,0,9.8,3.1,9.8,12.4
            c0,8.9-2.7,12.5-9.6,12.5H74.3z M77.5,31.9h2.9c3.9,0,5-1.9,5-9c0-6.7-1.1-8.6-5-8.6h-2.9V31.9z"/>
                <path d="M102,36.1c-5.4,0-8.1-2.8-8.1-9.6c0-6.9,2.8-9.5,7.4-9.5c4.9,0,7.2,2.7,7.2,9.4v0.7c0,0.4-0.3,0.6-0.6,0.6h-9.6
            c0.1,4.2,1.2,5.1,3.7,5.1c1.4,0,2.4-0.4,3.3-1c0.5-0.3,1.2-0.2,1.6,0.3l0.7,1c0.4,0.5,0.2,1.2-0.3,1.5
            C105.8,35.6,104.2,36.1,102,36.1 M101.3,20c-1.8,0-2.8,0.9-3,4.7h6C104.2,21.3,103.6,20,101.3,20"/>
                <path d="M146.9,36.1c-4.7,0-7.7-2.8-7.7-9.6c0-6.9,2.9-9.5,7.6-9.5c4.7,0,7.7,2.7,7.7,9.6
            C154.5,33.4,151.6,36.1,146.9,36.1 M146.9,33c2.4,0,3.3-1.4,3.3-6.5c0-5.2-0.9-6.4-3.3-6.4c-2.4,0-3.3,1.3-3.3,6.5
            C143.6,31.7,144.5,33,146.9,33"/>
                <path d="M163.6,36.1c-2.1,0-4-0.6-5.4-1.3c-0.6-0.3-0.8-1-0.5-1.5l0.5-1c0.3-0.6,0.9-0.8,1.5-0.5
            c1.1,0.6,2.3,0.9,3.6,0.9c2.1,0,2.8-0.7,2.8-2.2c0-1.7-0.9-2-3.5-2.7c-2.5-0.7-4.5-2.2-4.5-5.6c0-3.1,2-5.3,5.9-5.3
            c1.8,0,3.1,0.3,4.3,0.7c0.6,0.3,0.9,0.9,0.6,1.5l-0.4,1c-0.2,0.6-0.9,0.9-1.4,0.6c-0.9-0.4-1.8-0.5-2.8-0.5c-1.6,0-2.3,0.6-2.3,1.8
            c0,1.4,0.6,1.8,2.9,2.4c2.8,0.8,5.2,1.9,5.2,5.9C170.1,34.2,168,36.1,163.6,36.1"/>
                <path d="M112.8,22.8v11.7c0,0.6,0.5,1.1,1.1,1.1h1.9c0.6,0,1.1-0.5,1.1-1.1V22.8H112.8z"/>
                <path d="M121.8,22.8v11.7c0,0.6,0.5,1.1,1.1,1.1h1.9c0.6,0,1.1-0.5,1.1-1.1V22.8H121.8z"/>
                <path d="M130.9,22.8v11.7c0,0.6,0.5,1.1,1.1,1.1h1.9c0.6,0,1.1-0.5,1.1-1.1V22.8H130.9z"/>
                <rect x="112.8" y="17.2" width="22.2" height="3.4"/>
                <polygon points="14.8,53.5 15.5,53.4 15.5,50.3 12.6,50.3 12.6,53.4 13.3,53.5 13.3,54 10.8,54 10.8,53.5 11.5,53.4
            11.5,47 10.8,46.9 10.8,46.4 13.3,46.4 13.3,46.9 12.6,47 12.6,49.7 15.5,49.7 15.5,47 14.8,46.9 14.8,46.4 17.3,46.4 17.3,46.9
            16.5,47 16.5,53.4 17.3,53.5 17.3,54 14.8,54 "/>
                <path d="M21.2,49.1v-0.6h1.7v4.9l0.7,0.1V54h-1.5L22,53.4c-0.5,0.4-1,0.8-1.7,0.8c-0.8,0-1.4-0.5-1.4-1.4v-3.5l-0.7-0.1
            v-0.6h1.7v4c0,0.6,0.2,0.9,0.7,0.9c0.4,0,0.9-0.2,1.3-0.6v-3.6L21.2,49.1z"/>
                <path d="M27.1,53.5V54h-2.4v-0.5l0.7-0.1v-4.2l-0.7-0.1v-0.6h1.7v4.9L27.1,53.5z M25.2,46.8c0-0.4,0.3-0.7,0.7-0.7
            c0.4,0,0.7,0.3,0.7,0.7c0,0.4-0.3,0.7-0.7,0.7C25.5,47.4,25.2,47.1,25.2,46.8"/>
                <path d="M28.1,53.7v-1.3h0.7l0.2,0.9c0.3,0.1,0.4,0.2,0.9,0.2c0.8,0,1.1-0.3,1.1-0.9c0-0.6-0.3-0.8-1.1-1.1
            c-0.9-0.2-1.6-0.6-1.6-1.7c0-0.8,0.6-1.5,1.8-1.5c0.7,0,1.2,0.1,1.6,0.3v1.3H31l-0.2-0.9c-0.2-0.1-0.4-0.1-0.7-0.1
            c-0.6,0-1,0.3-1,0.8c0,0.5,0.3,0.7,1.1,1c0.9,0.2,1.7,0.5,1.7,1.8c0,1.1-0.8,1.6-2,1.6C29.1,54.2,28.5,54,28.1,53.7"/>
                <path d="M38.4,49.1v-0.6h2v0.6l-0.6,0.1L38.2,54h-1l-1.6-4.9l-0.5-0.1v-0.6h2.2v0.6l-0.6,0.1l0.9,2.8
            c0.1,0.5,0.2,1,0.3,1.4h0c0.1-0.4,0.2-1,0.4-1.5l0.9-2.8L38.4,49.1z"/>
                <path d="M41,51.2c0-2.1,0.9-2.9,2.3-2.9c1.4,0,2.3,0.8,2.3,2.9s-1,2.9-2.3,2.9C42,54.2,41,53.3,41,51.2 M44.6,51.3
            c0-1.7-0.3-2.3-1.3-2.3c-1,0-1.3,0.6-1.3,2.3c0,1.7,0.3,2.3,1.3,2.3C44.3,53.5,44.6,52.9,44.6,51.3"/>
                <path d="M46.6,51.2c0-2.1,0.9-2.9,2.3-2.9c1.4,0,2.3,0.8,2.3,2.9s-1,2.9-2.3,2.9C47.5,54.2,46.6,53.3,46.6,51.2
             M50.2,51.3c0-1.7-0.3-2.3-1.3-2.3c-1,0-1.3,0.6-1.3,2.3c0,1.7,0.3,2.3,1.3,2.3C49.9,53.5,50.2,52.9,50.2,51.3"/>
                <path d="M54.9,53.5V54h-2.7v-0.5l0.7-0.1v-4.2l-0.7-0.1v-0.6h1.5l0.2,0.9c0.4-0.5,0.9-1,1.6-1c0.1,0,0.2,0,0.2,0l-0.1,1
            c-0.1,0-0.2,0-0.3,0c-0.5,0-0.9,0.1-1.3,0.5v3.5L54.9,53.5z"/>
                <path d="M62.6,53.5c-0.3,0.4-0.8,0.7-1.5,0.7c-1.2,0-2-0.8-2-3c0-2.2,0.9-2.9,2-2.9c0.5,0,1,0.2,1.4,0.6v-2.2l-0.7-0.1
            V46h1.7v7.4l0.7,0.1V54h-1.5L62.6,53.5z M62.5,52.9v-3.2c-0.4-0.4-0.7-0.6-1.2-0.6c-0.9,0-1.2,0.6-1.2,2.2c0,1.6,0.3,2.2,1.1,2.2
            C61.7,53.5,62.2,53.2,62.5,52.9"/>
                <path d="M65.1,51.2c0-2.1,0.9-2.9,2.2-2.9c1.3,0,2.1,0.7,2.1,2.7v0.4h-3.3c0,1.6,0.4,2.1,1.4,2.1c0.7,0,1.1-0.2,1.5-0.5
            l0.3,0.5c-0.5,0.4-1.1,0.7-1.9,0.7C65.9,54.2,65.1,53.3,65.1,51.2 M66.1,50.8h2.3c0-1.3-0.2-1.9-1.1-1.9
            C66.5,48.9,66.2,49.5,66.1,50.8"/>
                <path d="M75,49.2c0.5-0.5,1-0.8,1.7-0.8c0.8,0,1.3,0.4,1.3,1.4v3.8l0.7,0.1V54H77v-4c0-0.6-0.2-0.9-0.7-0.9
            c-0.4,0-0.9,0.2-1.3,0.6v3.7l0.7,0.1V54h-1.7v-4c0-0.6-0.2-0.9-0.7-0.9c-0.4,0-0.9,0.2-1.3,0.6v3.7l0.7,0.1V54h-2.4v-0.5l0.7-0.1
            v-4.2l-0.7-0.1v-0.6h1.5l0.1,0.7c0.5-0.5,1-0.8,1.7-0.8C74.3,48.3,74.8,48.6,75,49.2"/>
                <path d="M79.6,51.2c0-2.1,0.9-2.9,2.3-2.9c1.4,0,2.3,0.8,2.3,2.9s-1,2.9-2.3,2.9C80.5,54.2,79.6,53.3,79.6,51.2
             M83.2,51.3c0-1.7-0.3-2.3-1.3-2.3c-1,0-1.3,0.6-1.3,2.3c0,1.7,0.3,2.3,1.3,2.3C82.8,53.5,83.2,52.9,83.2,51.3"/>
                <path d="M85.2,51.2c0-2.1,0.9-2.9,2.2-2.9c0.7,0,1.2,0.2,1.6,0.6v1.2h-0.7l-0.2-0.9c-0.2-0.2-0.5-0.2-0.8-0.2
            c-0.9,0-1.2,0.7-1.2,2.3c0,1.7,0.4,2.3,1.4,2.3c0.5,0,1-0.2,1.3-0.5l0.3,0.5c-0.5,0.4-1,0.7-1.8,0.7C86.1,54.2,85.2,53.2,85.2,51.2"
                />
                <path d="M92.8,53.5V54h-2.7v-0.5l0.7-0.1v-4.2l-0.7-0.1v-0.6h1.5l0.2,0.9c0.4-0.5,0.9-1,1.6-1c0.1,0,0.2,0,0.2,0l-0.1,1
            c-0.1,0-0.2,0-0.3,0c-0.5,0-0.9,0.1-1.3,0.5v3.5L92.8,53.5z"/>
                <path d="M99,54c-0.2,0.1-0.5,0.2-0.8,0.2c-0.5,0-0.8-0.2-0.9-0.6c-0.3,0.3-0.8,0.6-1.5,0.6c-1,0-1.6-0.5-1.6-1.7
            c0-1.3,0.7-1.8,2.6-1.8h0.5v-0.6c0-0.6-0.2-1-0.9-1c-0.6,0-1.1,0.2-1.6,0.4l-0.3-0.6c0.6-0.3,1.3-0.6,2.1-0.6c1.1,0,1.6,0.5,1.6,1.7
            v2.9c0,0.5,0.1,0.6,0.7,0.6L99,54z M97.3,52.9v-1.6h-0.4c-1.2,0-1.6,0.2-1.6,1.1c0,0.8,0.3,1,0.8,1C96.6,53.5,97,53.2,97.3,52.9"/>
                <path d="M99.8,48.5h0.6V47l1-0.2v1.6h1.1v0.6h-1.1v3.8c0,0.4,0.2,0.6,0.5,0.6c0.2,0,0.5-0.1,0.6-0.2l0.1,0.6
            c-0.3,0.2-0.6,0.3-1.1,0.3c-0.6,0-1.2-0.3-1.2-1.2v-3.9h-0.6V48.5z"/>
                <path d="M106,53.5V54h-2.4v-0.5l0.7-0.1v-4.2l-0.7-0.1v-0.6h1.7v4.9L106,53.5z M104,46.8c0-0.4,0.3-0.7,0.7-0.7
            c0.4,0,0.7,0.3,0.7,0.7c0,0.4-0.3,0.7-0.7,0.7C104.3,47.4,104,47.1,104,46.8"/>
                <path d="M106.8,51.2c0-2.1,0.9-2.9,2.2-2.9c1.3,0,2.1,0.7,2.1,2.7v0.4h-3.3c0,1.6,0.4,2.1,1.4,2.1
            c0.7,0,1.1-0.2,1.5-0.5l0.3,0.5c-0.5,0.4-1.1,0.7-1.9,0.7C107.7,54.2,106.8,53.3,106.8,51.2 M107.8,50.8h2.3c0-1.3-0.2-1.9-1.1-1.9
            C108.3,48.9,107.9,49.5,107.8,50.8"/>
                <path d="M114.7,51.2c0-2.1,0.9-2.9,2.2-2.9c1.3,0,2.1,0.7,2.1,2.7v0.4h-3.3c0,1.6,0.4,2.1,1.4,2.1
            c0.7,0,1.1-0.2,1.5-0.5l0.3,0.5c-0.5,0.4-1.1,0.7-1.9,0.7C115.6,54.2,114.7,53.3,114.7,51.2 M115.7,50.8h2.3c0-1.3-0.2-1.9-1.1-1.9
            C116.2,48.9,115.8,49.5,115.7,50.8"/>
                <path d="M123.9,50c0-0.6-0.2-0.8-0.7-0.8c-0.4,0-1.1,0.3-1.5,0.6v3.7l0.7,0.1V54H120v-0.5l0.7-0.1v-4.2l-0.7-0.1v-0.6
            h1.5l0.1,0.7c0.5-0.5,1.2-0.8,1.8-0.8c0.8,0,1.3,0.4,1.3,1.4v3.7l0.7,0.1V54h-1.7V50z"/>
                <path d="M131.9,53.5V54h-2.7v-0.5l0.7-0.1v-4.2l-0.7-0.1v-0.6h1.5l0.2,0.9c0.4-0.5,0.9-1,1.6-1c0.1,0,0.2,0,0.2,0
            l-0.1,1c-0.1,0-0.2,0-0.3,0c-0.5,0-0.9,0.1-1.3,0.5v3.5L131.9,53.5z"/>
                <path d="M133.3,51.2c0-2.1,0.9-2.9,2.2-2.9c1.3,0,2.1,0.7,2.1,2.7v0.4h-3.3c0,1.6,0.4,2.1,1.4,2.1
            c0.7,0,1.1-0.2,1.5-0.5l0.3,0.5c-0.5,0.4-1.1,0.7-1.9,0.7C134.2,54.2,133.3,53.3,133.3,51.2 M134.3,50.8h2.3c0-1.3-0.2-1.9-1.1-1.9
            C134.8,48.9,134.4,49.5,134.3,50.8"/>
                <path d="M138.6,51.2c0-2.1,0.9-2.9,2.2-2.9c0.7,0,1.2,0.2,1.6,0.6v1.2h-0.7l-0.2-0.9c-0.2-0.2-0.5-0.2-0.8-0.2
            c-0.9,0-1.2,0.7-1.2,2.3c0,1.7,0.4,2.3,1.4,2.3c0.5,0,1-0.2,1.3-0.5l0.3,0.5c-0.5,0.4-1,0.7-1.8,0.7
            C139.4,54.2,138.6,53.2,138.6,51.2"/>
                <path d="M145.2,49.1c0.5-0.5,1.1-0.8,1.7-0.8c0.8,0,1.3,0.4,1.3,1.4v3.7l0.7,0.1V54h-1.7V50c0-0.6-0.2-0.8-0.7-0.8
            c-0.4,0-1.1,0.3-1.5,0.6v3.7l0.7,0.1V54h-2.4v-0.5l0.7-0.1v-6.7l-0.7-0.1V46h1.7V49.1z"/>
                <path d="M149.9,48.5h0.6V47l1-0.2v1.6h1.1v0.6h-1.1v3.8c0,0.4,0.2,0.6,0.5,0.6c0.2,0,0.5-0.1,0.6-0.2l0.1,0.6
            c-0.3,0.2-0.6,0.3-1.1,0.3c-0.6,0-1.2-0.3-1.2-1.2v-3.9h-0.6V48.5z"/>
                <path d="M153.7,53.7v-1.3h0.7l0.2,0.9c0.3,0.1,0.4,0.2,0.9,0.2c0.8,0,1.1-0.3,1.1-0.9c0-0.6-0.3-0.8-1.1-1.1
            c-0.9-0.2-1.6-0.6-1.6-1.7c0-0.8,0.6-1.5,1.8-1.5c0.7,0,1.2,0.1,1.6,0.3v1.3h-0.7l-0.2-0.9c-0.2-0.1-0.4-0.1-0.7-0.1
            c-0.6,0-1,0.3-1,0.8c0,0.5,0.3,0.7,1.1,1c0.9,0.2,1.7,0.5,1.7,1.8c0,1.1-0.8,1.6-2,1.6C154.7,54.2,154.1,54,153.7,53.7"/>
                <path d="M158.6,53.7v-1.3h0.7l0.2,0.9c0.3,0.1,0.4,0.2,0.9,0.2c0.8,0,1.1-0.3,1.1-0.9c0-0.6-0.3-0.8-1.1-1.1
            c-0.9-0.2-1.6-0.6-1.6-1.7c0-0.8,0.6-1.5,1.8-1.5c0.7,0,1.2,0.1,1.6,0.3v1.3h-0.7l-0.2-0.9c-0.2-0.1-0.4-0.1-0.7-0.1
            c-0.6,0-1,0.3-1,0.8c0,0.5,0.3,0.7,1.1,1c0.9,0.2,1.7,0.5,1.7,1.8c0,1.1-0.8,1.6-2,1.6C159.5,54.2,158.9,54,158.6,53.7"/>
                <path d="M163.2,48.5h0.6V47l1-0.2v1.6h1.1v0.6h-1.1v3.8c0,0.4,0.2,0.6,0.5,0.6c0.2,0,0.5-0.1,0.6-0.2l0.1,0.6
            c-0.3,0.2-0.6,0.3-1.1,0.3c-0.6,0-1.2-0.3-1.2-1.2v-3.9h-0.6V48.5z"/>
                <path d="M171.7,54c-0.2,0.1-0.5,0.2-0.8,0.2c-0.5,0-0.8-0.2-0.9-0.6c-0.3,0.3-0.8,0.6-1.5,0.6c-1,0-1.6-0.5-1.6-1.7
            c0-1.3,0.7-1.8,2.6-1.8h0.5v-0.6c0-0.6-0.2-1-0.9-1c-0.6,0-1.1,0.2-1.6,0.4l-0.3-0.6c0.6-0.3,1.3-0.6,2.1-0.6c1.1,0,1.6,0.5,1.6,1.7
            v2.9c0,0.5,0.1,0.6,0.7,0.6L171.7,54z M170,52.9v-1.6h-0.4c-1.2,0-1.6,0.2-1.6,1.1c0,0.8,0.3,1,0.8,1
            C169.3,53.5,169.7,53.2,170,52.9"/>
                <path d="M177.2,54c-0.2,0.1-0.5,0.2-0.8,0.2c-0.5,0-0.8-0.2-0.9-0.6c-0.3,0.3-0.8,0.6-1.5,0.6c-1,0-1.6-0.5-1.6-1.7
            c0-1.3,0.7-1.8,2.6-1.8h0.5v-0.6c0-0.6-0.2-1-0.9-1c-0.6,0-1.1,0.2-1.6,0.4l-0.3-0.6c0.6-0.3,1.3-0.6,2.1-0.6c1.1,0,1.6,0.5,1.6,1.7
            v2.9c0,0.5,0.1,0.6,0.7,0.6L177.2,54z M175.5,52.9v-1.6h-0.4c-1.2,0-1.6,0.2-1.6,1.1c0,0.8,0.3,1,0.8,1S175.2,53.2,175.5,52.9"/>
                <path d="M178,48.5h0.6V47l1-0.2v1.6h1.1v0.6h-1.1v3.8c0,0.4,0.2,0.6,0.5,0.6c0.2,0,0.5-0.1,0.6-0.2l0.1,0.6
            c-0.3,0.2-0.6,0.3-1.1,0.3c-0.6,0-1.2-0.3-1.2-1.2v-3.9H178V48.5z"/>
    </g>
</svg>
