<svg xmlns="http://www.w3.org/2000/svg" width="226px" height="64.8px" viewBox="0 0 226 64.8" id="root">
    <rect fill="currentColor" width="226" height="64.8"/>
    <g fill="#ffffff">
        <path d="M39.8,35.8c-0.6,0-1.1-0.5-1.1-1.1V12c0-0.6,0.5-1.1,1.1-1.1H46c5.5,0,8.4,2.3,8.4,7.6c0,4.9-2,7.9-7.9,7.9
        h-3.3v8.3c0,0.6-0.5,1.1-1.1,1.1H39.8z M43.1,22.8h3.1c2.5,0,3.6-0.9,3.6-4c0-3.2-1.1-4.2-3.6-4.2h-3.1V22.8z"/>
        <path d="M59.6,35.8c-0.6,0-1.1-0.5-1.1-1.1v-16c0-0.6,0.5-1.1,1.1-1.1h1c0.6,0,1.2,0.5,1.3,1.1l0.3,1.2
        c1.2-1.6,2.8-2.6,4.8-2.6c0.2,0,0.4,0,0.6,0c0.3,0,0.4,0.2,0.4,0.6l-0.5,2.9c0,0.4-0.4,0.6-0.8,0.5c-0.2,0-0.5-0.1-0.8-0.1
        c-1.4,0-2.3,0.4-3.3,1.3v12c0,0.6-0.5,1.1-1.1,1.1H59.6z"/>
        <path d="M78.2,36.3c-4.7,0-7.7-2.8-7.7-9.6c0-6.9,2.9-9.5,7.6-9.5c4.7,0,7.7,2.7,7.7,9.6S82.9,36.3,78.2,36.3
         M78.2,33.2c2.4,0,3.3-1.4,3.3-6.5c0-5.2-0.9-6.4-3.3-6.4c-2.4,0-3.3,1.3-3.3,6.5C74.9,31.9,75.8,33.2,78.2,33.2"/>
        <path d="M91.4,35.8c-0.6,0-1.1-0.5-1.1-1.1V12c0-0.6,0.5-1.1,1.1-1.1h6.1c6.6,0,9.8,3.1,9.8,12.4
        c0,8.9-2.7,12.5-9.6,12.5H91.4z M94.7,32.1h2.9c3.9,0,5-1.9,5-9c0-6.7-1.1-8.6-5-8.6h-2.9V32.1z"/>
        <path d="M119.2,36.3c-5.4,0-8.1-2.8-8.1-9.6c0-6.9,2.8-9.5,7.4-9.5c4.9,0,7.2,2.7,7.2,9.4v0.7c0,0.4-0.3,0.6-0.6,0.6
        h-9.6c0.1,4.2,1.2,5.1,3.7,5.1c1.4,0,2.4-0.4,3.3-1c0.5-0.3,1.2-0.2,1.5,0.3l0.7,1c0.4,0.5,0.2,1.2-0.3,1.5
        C122.9,35.7,121.3,36.3,119.2,36.3 M118.4,20.2c-1.8,0-2.8,0.9-3,4.7h6C121.4,21.4,120.7,20.2,118.4,20.2"/>
        <path d="M164,36.3c-4.7,0-7.7-2.8-7.7-9.6c0-6.9,2.9-9.5,7.6-9.5c4.7,0,7.7,2.7,7.7,9.6S168.7,36.3,164,36.3 M164,33.2
        c2.4,0,3.3-1.4,3.3-6.5c0-5.2-0.9-6.4-3.3-6.4c-2.4,0-3.3,1.3-3.3,6.5C160.7,31.9,161.6,33.2,164,33.2"/>
        <path d="M180.7,36.3c-2.1,0-4-0.6-5.4-1.3c-0.6-0.3-0.8-1-0.5-1.5l0.5-1c0.3-0.6,0.9-0.8,1.5-0.5
        c1.1,0.6,2.3,0.9,3.6,0.9c2.1,0,2.8-0.7,2.8-2.2c0-1.7-0.9-2-3.5-2.7c-2.5-0.7-4.5-2.2-4.5-5.6c0-3.1,2-5.3,5.9-5.3
        c1.8,0,3.1,0.3,4.3,0.7c0.6,0.3,0.9,0.9,0.6,1.5l-0.4,1c-0.2,0.6-0.9,0.9-1.4,0.6c-0.9-0.4-1.8-0.5-2.8-0.5c-1.6,0-2.3,0.6-2.3,1.8
        c0,1.4,0.6,1.8,2.9,2.4c2.8,0.8,5.2,1.9,5.2,5.9C187.3,34.3,185.1,36.3,180.7,36.3"/>
        <path d="M129.9,23v11.7c0,0.6,0.5,1.1,1.1,1.1h1.9c0.6,0,1.1-0.5,1.1-1.1V23H129.9z"/>
        <path d="M139,23v11.7c0,0.6,0.5,1.1,1.1,1.1h1.9c0.6,0,1.1-0.5,1.1-1.1V23H139z"/>
        <path d="M148,23v11.7c0,0.6,0.5,1.1,1.1,1.1h1.9c0.6,0,1.1-0.5,1.1-1.1V23H148z"/>
        <rect x="129.9" y="17.4" width="22.2" height="3.4"/>
        <polygon points="14.9,53.9 15.7,53.8 15.7,50.6 12.6,50.6 12.6,53.8 13.4,53.9 13.4,54.5 10.8,54.5 10.8,53.9
        11.6,53.8 11.6,47.2 10.8,47.1 10.8,46.5 13.4,46.5 13.4,47.1 12.6,47.2 12.6,49.9 15.7,49.9 15.7,47.2 14.9,47.1 14.9,46.5
        17.6,46.5 17.6,47.1 16.8,47.2 16.8,53.8 17.6,53.9 17.6,54.5 14.9,54.5 "/>
        <path d="M18.6,51.6c0-2.2,1-3,2.4-3s2.4,0.9,2.4,3s-1,3-2.4,3S18.6,53.7,18.6,51.6 M22.3,51.6c0-1.7-0.4-2.4-1.3-2.4
        c-1,0-1.3,0.6-1.3,2.4c0,1.7,0.4,2.4,1.3,2.4C22,53.9,22.3,53.3,22.3,51.6"/>
        <path d="M27.4,49.3v-0.6h1.8v5.1l0.8,0.1v0.6h-1.5l-0.1-0.7c-0.5,0.5-1,0.8-1.7,0.8c-0.8,0-1.5-0.5-1.5-1.5v-3.7
        l-0.8-0.1v-0.6H26v4.2c0,0.7,0.2,0.9,0.8,0.9c0.5,0,1-0.2,1.4-0.6v-3.7L27.4,49.3z"/>
        <path d="M31.1,54.2v-1.3h0.7l0.2,1c0.3,0.1,0.4,0.2,0.9,0.2c0.8,0,1.1-0.3,1.1-1c0-0.6-0.3-0.9-1.2-1.1
        c-0.9-0.2-1.6-0.6-1.6-1.8c0-0.8,0.6-1.6,1.8-1.6c0.7,0,1.3,0.1,1.7,0.4v1.3H34l-0.2-0.9c-0.2-0.1-0.4-0.1-0.7-0.1
        c-0.6,0-1,0.3-1,0.8c0,0.5,0.3,0.8,1.1,1c0.9,0.2,1.7,0.6,1.7,1.9c0,1.1-0.8,1.7-2.1,1.7C32.1,54.6,31.5,54.4,31.1,54.2"/>
        <path d="M36,51.6c0-2.2,0.9-3,2.3-3c1.4,0,2.2,0.7,2.2,2.8v0.4H37c0,1.6,0.4,2.2,1.5,2.2c0.7,0,1.1-0.2,1.5-0.5l0.3,0.5
        c-0.6,0.5-1.1,0.7-2,0.7C36.8,54.6,36,53.7,36,51.6 M37,51.1h2.4c0-1.3-0.2-1.9-1.1-1.9C37.4,49.2,37.1,49.7,37,51.1"/>
        <path d="M47,53.9v0.5h-2.7v-0.5l0.8-0.1v-4.5h-0.6v-0.7H45v-0.9c0-1.3,0.7-1.7,1.5-1.7c0.4,0,0.9,0.1,1.2,0.3L47.5,47
        c-0.2-0.1-0.5-0.2-0.8-0.2c-0.5,0-0.7,0.3-0.7,1v1h1.2v0.7H46v4.4L47,53.9z"/>
        <path d="M48.1,51.6c0-2.2,1-3,2.4-3s2.4,0.9,2.4,3s-1,3-2.4,3S48.1,53.7,48.1,51.6 M51.8,51.6c0-1.7-0.4-2.4-1.3-2.4
        c-1,0-1.3,0.6-1.3,2.4c0,1.7,0.4,2.4,1.3,2.4C51.5,53.9,51.8,53.3,51.8,51.6"/>
        <path d="M56.8,53.9v0.5H54v-0.5l0.8-0.1v-4.4L54,49.3v-0.6h1.5l0.2,0.9c0.4-0.5,0.9-1,1.6-1c0.1,0,0.2,0,0.2,0l-0.1,1.1
        c-0.1,0-0.2,0-0.3,0c-0.5,0-0.9,0.1-1.3,0.5v3.6L56.8,53.9z"/>
        <path d="M63.9,46.5c2.2,0,3.2,1,3.2,4c0,3.1-1.1,4-3.4,4h-2.6v-0.6l0.8-0.1v-6.6l-0.8-0.1v-0.6H63.9z M64,53.8
        c1.5,0,1.9-1,1.9-3.3c0-2.3-0.4-3.3-1.9-3.3H63v6.6H64z"/>
        <path d="M68.3,51.6c0-2.2,0.9-3,2.3-3c1.4,0,2.2,0.7,2.2,2.8v0.4h-3.4c0,1.6,0.4,2.2,1.5,2.2c0.7,0,1.1-0.2,1.5-0.5
        l0.3,0.5c-0.6,0.5-1.1,0.7-2,0.7C69.1,54.6,68.3,53.7,68.3,51.6 M69.3,51.1h2.4c0-1.3-0.2-1.9-1.1-1.9
        C69.7,49.2,69.4,49.7,69.3,51.1"/>
        <path d="M78.5,49.4c0.5-0.5,1.1-0.9,1.7-0.9c0.8,0,1.4,0.4,1.4,1.4v3.9l0.8,0.1v0.5h-1.8v-4.1c0-0.7-0.2-0.9-0.7-0.9
        c-0.5,0-1,0.3-1.4,0.6v3.8l0.8,0.1v0.5h-1.8v-4.1c0-0.7-0.2-0.9-0.7-0.9c-0.5,0-1,0.3-1.4,0.6v3.8l0.8,0.1v0.5h-2.5v-0.5l0.8-0.1
        v-4.4l-0.8-0.1v-0.6h1.5l0.1,0.7c0.5-0.5,1.1-0.9,1.7-0.9C77.8,48.5,78.3,48.8,78.5,49.4"/>
        <path d="M83.3,51.6c0-2.2,1-3,2.4-3s2.4,0.9,2.4,3s-1,3-2.4,3S83.3,53.7,83.3,51.6 M87,51.6c0-1.7-0.4-2.4-1.3-2.4
        c-1,0-1.3,0.6-1.3,2.4c0,1.7,0.4,2.4,1.3,2.4C86.7,53.9,87,53.3,87,51.6"/>
        <path d="M89.1,51.6c0-2.1,0.9-3,2.3-3c0.8,0,1.3,0.2,1.7,0.6v1.2h-0.7l-0.2-1c-0.2-0.2-0.5-0.2-0.8-0.2
        c-0.9,0-1.2,0.7-1.2,2.4c0,1.8,0.4,2.4,1.4,2.4c0.6,0,1-0.2,1.4-0.5l0.3,0.5c-0.5,0.4-1,0.7-1.9,0.7C90,54.6,89.1,53.6,89.1,51.6"/>
        <path d="M97.1,53.9v0.5h-2.8v-0.5l0.8-0.1v-4.4l-0.8-0.1v-0.6h1.5l0.2,0.9c0.4-0.5,0.9-1,1.6-1c0.1,0,0.2,0,0.2,0
        l-0.1,1.1c-0.1,0-0.2,0-0.3,0c-0.5,0-0.9,0.1-1.3,0.5v3.6L97.1,53.9z"/>
        <path d="M103.4,54.4c-0.2,0.1-0.6,0.2-0.8,0.2c-0.5,0-0.8-0.2-0.9-0.7c-0.3,0.3-0.8,0.7-1.5,0.7c-1.1,0-1.7-0.5-1.7-1.7
        c0-1.3,0.8-1.9,2.7-1.9h0.5v-0.6c0-0.6-0.2-1.1-0.9-1.1c-0.6,0-1.1,0.2-1.7,0.4l-0.3-0.6c0.6-0.3,1.3-0.6,2.2-0.6
        c1.1,0,1.7,0.5,1.7,1.7v3.1c0,0.5,0.1,0.6,0.7,0.6L103.4,54.4z M101.7,53.3v-1.7h-0.4c-1.3,0-1.7,0.2-1.7,1.2c0,0.8,0.3,1.1,0.8,1.1
        C101,53.9,101.4,53.6,101.7,53.3"/>
        <path d="M104.4,51.6c0-2.1,0.9-3,2.3-3c0.8,0,1.3,0.2,1.7,0.6v1.2h-0.7l-0.2-1c-0.2-0.2-0.5-0.2-0.8-0.2
        c-0.9,0-1.2,0.7-1.2,2.4c0,1.8,0.4,2.4,1.4,2.4c0.6,0,1-0.2,1.4-0.5l0.3,0.5c-0.5,0.4-1,0.7-1.9,0.7
        C105.2,54.6,104.4,53.6,104.4,51.6"/>
        <path d="M112.4,49.3v-0.6h2.1v0.6l-0.6,0.1l-1.6,5c-0.5,1.7-1.2,2.2-2.4,2.4l-0.2-0.8c1.1-0.2,1.5-0.7,1.8-1.6h-0.4
        l-1.6-5l-0.6-0.1v-0.6h2.2v0.6l-0.7,0.1l0.9,3c0.1,0.5,0.3,1.1,0.3,1.6h0c0.1-0.4,0.2-1,0.4-1.6l0.9-3L112.4,49.3z"/>
        <path d="M122.7,54.4c-0.2,0.1-0.6,0.2-0.8,0.2c-0.5,0-0.8-0.2-0.9-0.7c-0.3,0.3-0.8,0.7-1.5,0.7c-1,0-1.7-0.5-1.7-1.7
        c0-1.3,0.8-1.9,2.7-1.9h0.5v-0.6c0-0.6-0.2-1.1-0.9-1.1c-0.6,0-1.1,0.2-1.7,0.4l-0.3-0.6c0.6-0.3,1.3-0.6,2.2-0.6
        c1.1,0,1.7,0.5,1.7,1.7v3.1c0,0.5,0.1,0.6,0.7,0.6L122.7,54.4z M121,53.3v-1.7h-0.4c-1.3,0-1.7,0.2-1.7,1.2c0,0.8,0.3,1.1,0.8,1.1
        C120.3,53.9,120.7,53.6,121,53.3"/>
        <path d="M127.7,50.2c0-0.7-0.2-0.9-0.7-0.9c-0.5,0-1.1,0.3-1.5,0.6v3.8l0.8,0.1v0.5h-2.5v-0.5l0.8-0.1v-4.4l-0.8-0.1
        v-0.6h1.5l0.1,0.7c0.5-0.5,1.2-0.9,1.9-0.9c0.8,0,1.4,0.4,1.4,1.4v3.9l0.8,0.1v0.5h-1.8V50.2z"/>
        <path d="M133.9,53.9c-0.3,0.4-0.9,0.7-1.5,0.7c-1.2,0-2.1-0.8-2.1-3.1c0-2.2,1-3,2.1-3c0.6,0,1,0.2,1.4,0.6v-2.3
        l-0.8-0.1v-0.6h1.8v7.7l0.8,0.1v0.5h-1.5L133.9,53.9z M133.9,53.3v-3.4c-0.4-0.4-0.7-0.6-1.3-0.6c-0.9,0-1.2,0.6-1.2,2.3
        c0,1.7,0.3,2.3,1.2,2.3C133.1,53.9,133.6,53.6,133.9,53.3"/>
        <path d="M139.4,48.7h0.7v-1.5l1-0.2v1.7h1.2v0.7h-1.2v3.9c0,0.4,0.2,0.6,0.6,0.6c0.2,0,0.5-0.1,0.7-0.2l0.2,0.6
        c-0.3,0.2-0.6,0.3-1.1,0.3c-0.7,0-1.2-0.3-1.2-1.2v-4h-0.7V48.7z"/>
        <path d="M145.1,49.3c0.5-0.5,1.2-0.8,1.8-0.8c0.8,0,1.4,0.4,1.4,1.4v3.9l0.8,0.1v0.5h-1.8v-4.2c0-0.7-0.2-0.9-0.7-0.9
        c-0.5,0-1.1,0.3-1.5,0.6v3.8l0.8,0.1v0.5h-2.5v-0.5l0.8-0.1v-7l-0.8-0.1v-0.6h1.8V49.3z"/>
        <path d="M149.9,51.6c0-2.2,0.9-3,2.3-3c1.4,0,2.2,0.7,2.2,2.8v0.4H151c0,1.6,0.4,2.2,1.5,2.2c0.7,0,1.1-0.2,1.5-0.5
        l0.3,0.5c-0.6,0.5-1.1,0.7-2,0.7C150.8,54.6,149.9,53.7,149.9,51.6 M151,51.1h2.4c0-1.3-0.2-1.9-1.1-1.9
        C151.4,49.2,151.1,49.7,151,51.1"/>
        <path d="M164.5,53.9v0.6h-1.7l-0.8-2.2c-0.3-1-0.7-1.2-1.2-1.2H160v2.8l0.8,0.1v0.6h-2.7v-0.6l0.8-0.1v-6.6l-0.8-0.1
        v-0.6h3c1.5,0,2.5,0.7,2.5,2.2c0,1.2-0.7,1.9-1.8,2v0c0.5,0.1,0.9,0.5,1.2,1.3l0.6,1.7L164.5,53.9z M161.2,50.3
        c1.1,0,1.4-0.6,1.4-1.6c0-0.9-0.3-1.5-1.4-1.5H160v3.1H161.2z"/>
        <path d="M168.1,49.3v-0.6h1.8v5.1l0.8,0.1v0.6H169l-0.1-0.7c-0.5,0.5-1,0.8-1.7,0.8c-0.8,0-1.5-0.5-1.5-1.5v-3.7
        l-0.8-0.1v-0.6h1.8v4.2c0,0.7,0.2,0.9,0.7,0.9c0.5,0,1-0.2,1.4-0.6v-3.7L168.1,49.3z"/>
        <polygon points="172.4,46.8 171.6,46.7 171.6,46.1 173.4,46.1 173.4,53.8 174.1,53.9 174.1,54.5 171.6,54.5 171.6,53.9
        172.4,53.8 "/>
        <path d="M175.1,51.6c0-2.2,0.9-3,2.3-3c1.4,0,2.2,0.7,2.2,2.8v0.4h-3.4c0,1.6,0.4,2.2,1.5,2.2c0.7,0,1.1-0.2,1.5-0.5
        l0.3,0.5c-0.6,0.5-1.1,0.7-2,0.7C175.9,54.6,175.1,53.7,175.1,51.6 M176.1,51.1h2.4c0-1.3-0.2-1.9-1.1-1.9
        C176.5,49.2,176.2,49.7,176.1,51.1"/>
        <path d="M183.2,51.6c0-2.2,1-3,2.4-3c1.4,0,2.4,0.9,2.4,3s-1,3-2.4,3C184.2,54.6,183.2,53.7,183.2,51.6 M187,51.6
        c0-1.7-0.4-2.4-1.3-2.4c-1,0-1.3,0.6-1.3,2.4c0,1.7,0.4,2.4,1.3,2.4C186.6,53.9,187,53.3,187,51.6"/>
        <path d="M191.8,53.9v0.5h-2.7v-0.5l0.8-0.1v-4.5h-0.6v-0.7h0.6v-0.9c0-1.3,0.7-1.7,1.5-1.7c0.5,0,0.9,0.1,1.2,0.3
        l-0.3,0.6c-0.2-0.1-0.5-0.2-0.8-0.2c-0.5,0-0.7,0.3-0.7,1v1h1.2v0.7h-1.2v4.4L191.8,53.9z"/>
        <polygon points="197.7,53.8 200,53.8 200.2,52.6 200.9,52.6 200.9,54.5 195.8,54.5 195.8,53.9 196.6,53.8 196.6,47.2
        195.8,47.1 195.8,46.5 198.5,46.5 198.5,47.1 197.7,47.2 "/>
        <path d="M206.9,54.4c-0.2,0.1-0.6,0.2-0.8,0.2c-0.5,0-0.8-0.2-0.9-0.7c-0.3,0.3-0.8,0.7-1.5,0.7c-1,0-1.7-0.5-1.7-1.7
        c0-1.3,0.8-1.9,2.7-1.9h0.5v-0.6c0-0.6-0.2-1.1-0.9-1.1c-0.6,0-1.1,0.2-1.7,0.4l-0.3-0.6c0.6-0.3,1.3-0.6,2.2-0.6
        c1.1,0,1.7,0.5,1.7,1.7v3.1c0,0.5,0.1,0.6,0.7,0.6L206.9,54.4z M205.1,53.3v-1.7h-0.4c-1.3,0-1.7,0.2-1.7,1.2c0,0.8,0.3,1.1,0.8,1.1
        S204.9,53.6,205.1,53.3"/>
        <path d="M213.1,49.3v-0.6h2.1v0.6l-0.5,0.1l-1.3,5h-0.9l-0.8-3.1c-0.1-0.5-0.3-1.3-0.3-1.7h0c-0.1,0.3-0.2,1.1-0.3,1.7
        l-0.7,3.1h-1l-1.4-5l-0.5-0.1v-0.6h2.2v0.6l-0.7,0.1l0.6,2.4c0.1,0.5,0.2,1.3,0.3,1.6h0c0,0,0.1-1,0.3-1.5l0.8-3.3h0.9l0.9,3.2
        c0.1,0.5,0.3,1.3,0.3,1.6h0c0.1-0.3,0.2-1.1,0.3-1.6l0.6-2.5L213.1,49.3z"/>
    </g>
</svg>
